<svg height="5in" viewBox="0 0 127 127" width="5in" xmlns="http://www.w3.org/2000/svg">
	<path d="m-68.581823-9.5252504c-.01394 0-.02853.000511-.04247.000511-21.149973.0101-63.455277 0-63.455277 0 .0101 21.1875424 0 63.4972494 0 63.4972494.0101 21.184171 0 63.49826 0 63.49826 21.15896.0101 63.455783 0 63.455783 0 .01368.00001.02776.00051.04196.00051s.02827-.0005.04247-.00051c21.162681.0101 63.4552923 0 63.4552923 0 .0101-21.152757 0-63.49826 0-63.49826.010103-21.156132 0-63.4972494 0-63.4972494-21.1536723.0101-63.4558073 0-63.4558073 0-.01395-.000009-.0275-.000502-.04195-.000511zm-61.357337 1.260216c3.49019.01506 10.27864.01083 10.27864.01083-.40803 3.5637174-.94714 11.4296676-.94714 11.4296676-2.88018-4.4584169-5.67564-7.7277971-9.3315-11.4405016zm11.50723.01169c3.69686.01278 11.00736.0039 11.00736.0039-.80562 2.1988117-1.56944 4.7640649-2.23427 7.79061246-.60321 2.74607974-.93954 5.05759004-.93954 5.05759004-1.62146-.00569-3.52823-.045691-5.57004-.1343195-1.88388-.081774-3.44887-.1892261-3.44887-.1892261.26407-4.42471794.65051-8.6698163 1.18536-12.5285619zm12.22731.004c3.65602.01044 10.994676-.0022 10.994676-.0022-.915803 1.4466138-2.478202 4.4731442-2.478202 4.4731442-4.605024 2.0231832-8.453604 4.53035876-11.805004 7.647935.75544-4.32969594 1.83059-8.4436475 3.28853-12.1188472zm12.220997-.0028c3.660739.0087 11.082821-.0063 11.082821-.0063-.03419.05201-.105914.125279-.105914.125279-4.569559.8477913-9.105698 2.0763692-13.24844 3.7515307.685387-1.3283908 1.441191-2.6212299 2.271533-3.8704847zm37.48822-.02574c3.818416.0074 11.549267-.0063 11.549267-.0063-.827185 1.1980214-2.271788 3.4413496-2.271788 3.4413496-3.083415-1.3549045-6.12139-2.5033585-9.38383-3.3131906.03534-.04058.07079-.08119.106351-.121833zm12.83861-.0068c3.87382.0084 11.637906-.0022 11.637906-.0022-.817691 1.9566284-1.605835 3.9775847-2.297159 6.0438279-.626626 1.87287306-.991449 3.2626512-.991449 3.2626512-3.467168-1.85990414-7.635798-3.9356621-10.827577-5.3802971.735617-1.2571242 1.559272-2.5606927 2.478279-3.923947zm12.933697-.0022c3.906855.01012 11.62474.0039 11.62474.0039-.526149 3.6945261-1.185197 10.1034447-1.185197 10.1034447-4.417348-.1917335-13.613263-.3233556-13.613263-.3233556.708776-2.9491347 1.739971-6.1200057 3.17372-9.7839921zm12.910313.0048c3.593412.01248 10.5775434.01083 10.5775434.01083-1.981455 1.9625398-4.2028154 4.0453894-6.9222274 6.1558367-2.458544 1.90799606-4.602258 3.260391-4.602258 3.260391.220956-2.936309.530208-6.0258771.946942-9.4270577zm-52.624815.02213c-1.9968 2.1304571-3.894564 4.4859134-5.534644 7.0901869-1.487608 2.3621635-2.322091 4.2579461-2.322091 4.2579461-3.746125.2496226-10.686415.6934695-10.686415.6934695.822904-2.0876116 1.936246-4.42192234 3.491086-6.8847361 1.420001-2.2492318 2.849898-3.9845609 2.849898-3.9845609 4.150126-.7384545 8.323364-1.1311575 12.202168-1.1723075 0 0-.000002.000002-.000002.000002zm1.256569-.000977c3.853918.03543 7.249565.422661 10.432088 1.1101004-1.575747 1.8634673-3.093671 3.8673891-4.427078 6.0095816-1.20975 1.94352896-1.913405 3.4558155-1.913405 3.4558155-4.158695.2232022-11.948345.6936275-11.948345.6936275 1.751932-3.74840824 4.311001-7.5025483 7.85674-11.269125zm-61.645101.8874222c1.96867 1.9991899 4.03848 4.2052876 6.15503 6.92984886 1.90784 2.45590964 3.26033 4.59363634 3.26033 4.59363634-1.61719-.1152413-3.55752-.2867185-5.72049-.5180884-1.99221-.2131037-3.70568-.428926-3.70568-.428926-.00014.1843077.0109-10.7607787.0108-10.5764708zm124.4823557-.010774c.00536 3.4907261-.010822 10.2767053-.010822 10.2767053-3.5423233-.4054337-11.4269557-.946724-11.4269557-.946724 4.457162-2.87983694 7.72586-5.674887 11.4377777-9.3299813zm-77.7280307.5663279c-1.49294 1.9254976-2.929507 4.1042712-4.201607 6.57994976-1.154286 2.24639624-1.827548 4.09025294-1.827548 4.09025294-3.338651.2197093-9.577556.5239546-9.577556.5239546.39968-1.3948132.89777-2.9378348 1.54378-4.58825404.58805-1.50235696 1.141187-2.66732326 1.141187-2.66732326 4.018541-1.7588274 8.429262-3.0506935 12.921744-3.93858zm26.405004-.084791c3.349349.8054496 6.514917 1.9499674 9.710516 3.2868407-1.085235 1.8741315-2.684663 5.3358468-2.684663 5.3358468-4.473534.1406061-13.054514.5240199-13.054514.5240199 1.406068-2.92824174 3.377403-5.9466617 6.028661-9.1467074zm10.836016 3.764575c3.011337 1.2980985 6.617928 2.99930786 9.808966 4.6316139-4.063262.017851-12.121823.1841282-12.121823.1841282.620576-1.54245854 1.385723-3.1379676 2.312857-4.8157421zm-51.553301.893523c-.92304 2.16051726-2.312534 6.6632565-2.312534 6.6632565-2.68556.1191606-7.9047.1839456-7.9047.1839456 2.95356-2.7313082 6.30503-4.98528034 10.217234-6.8472021zm-32.453714 6.735276c3.69519.5471445 10.10498 1.1858292 10.10498 1.1858292-.19289 4.4412801-.32358 13.6139601-.32358 13.6139601-1.64175-.387756-3.5753-.938423-5.85402-1.721964-2.08049-.715379-3.93128-1.453128-3.93128-1.453128-.00002.272256.004-11.8969526.004-11.6246973zm11.85896 1.3232336c2.49592.1912687 7.23683.3175725 7.23683.3175725-1.52616 1.6570125-2.90349 3.4077635-4.17787 5.2301222-.98743-1.8938227-1.98838-3.7367087-3.05896-5.5476947zm9.11993.3348057c2.897.019274 8.77477-.2189063 8.77477-.2189063-.55333 2.3227985-1.26557 7.0547713-1.26557 7.0547713-2.33184 2.212258-4.32071 4.729388-6.06942 7.517629-.84349.0528-2.54251.0526-2.54251.0526.0773-4.883938.41897-9.752444 1.10273-14.406093zm9.77816-.2691075c1.672624-.080412 3.651698-.2018578 5.814784-.3525845 1.992464-.1388374 3.656465-.2676897 3.656465-.2676897-.05562.1883966-.177953.5333495-.177953.5333495-3.914975 1.4883472-7.417032 3.5453339-10.487996 6.2169262.29294-2.0692527.68741-4.1179726 1.1947-6.1300015zm35.876754-2.5242156c4.235971-.2392372 13.160829-.6203516 13.160829-.6203516-.498355 1.350629-1.194693 3.9344944-1.194693 3.9344944-3.969723-1.2264237-8.12076-2.2470619-12.144274-2.8963663.05811-.139067.117486-.2783228.178138-.4177765zm14.672823-.670511c4.558966-.1361633 13.857792-.2191517 13.857792-.2191517-.380413 1.6378055-.696539 3.3588347-.895629 5.2206539-.179988 1.6831805-.207159 3.0071369-.207159 3.0071369-1.542853.0014-4.663037.0528-4.663037.0528-3.004773-1.3843195-6.214301-2.598047-9.357506-3.6204089.290951-1.4474327.707217-2.9195238 1.265539-4.4410302zm16.884951-.2019772c3.800351.045816 11.221461.3173446 11.221461.3173446-1.809691 1.0925426-5.600931 3.112674-5.600931 3.112674-1.834739-1.228841-3.738188-2.3665738-5.620531-3.4300148 0 0 .000001-.0000038.000001-.0000038zm13.761286.4547583c2.489934.1532676 5.213601.356677 8.040043.6487428 2.5763354.2662214 4.4894442.5366461 4.4894442.5366461.00792 3.7028135-.0039 11.0079961-.0039 11.0079961-2.1898638-.802353-4.7514782-1.566374-7.7823672-2.232494-2.748914-.604147-5.066753-.94142-5.066753-.94142.0227-2.9456265.122897-5.9026567.323535-9.019471zm-59.967178 1.4227804c-.884288 2.1443949-1.613651 4.5053544-2.068842 7.1209896-.412749 2.371754-.469448 4.270088-.469448 4.270088-2.392402.49276-4.06865.84709-6.716287 1.407749-2.141493.453478-3.755439.790369-3.755439.790369.08557-2.092855.309422-4.4556.805877-7.001134.453342-2.3244689 1.031997-4.1621098 1.031997-4.1621098 3.516256-1.2935774 7.278963-2.083508 11.17215-2.4259712 0 0-.000008.0000194-.000008.0000194zm1.256564-.094757c3.895684-.2454849 7.722431-.044276 11.462625.4555539-.625879 1.6437076-1.149575 3.4287456-1.483754 5.3884767-.302868 1.776118-.354092 3.189671-.354092 3.189671-2.462307.394783-4.977364.828236-7.774518 1.350806-2.497387.466567-4.388554.847814-4.388554.847814.178088-3.742032.964391-7.4844553 2.538293-11.2323216zm-33.33267 2.6750172c-.51246 4.0543914-.89815 12.4479354-.89815 12.4479354-1.1707-2.265927-3.49491-6.870341-3.49491-6.870341 1.33147-1.952073 2.77778-3.8198973 4.39306-5.5775944zm76.701503-3.976242c2.023047 1.0955395 4.068965 2.2760852 6.033469 3.5579944-2.297226 1.2055959-6.931506 3.557199-6.931506 3.557199.09601-2.3061427.379633-4.634923.898037-7.1151934zm13.805727.6109636c-.167206 2.4981611-.317551 7.2391938-.317551 7.2391938-1.657321-1.5266533-3.408412-2.9044892-5.231204-4.1792279 1.894201-.9877792 3.737431-1.9890336 5.548755-3.0599659zm-99.33381 3.2409527c1.09132 1.833828 3.11243 5.6011691 3.11243 5.6011691-1.22874 1.83466-2.36661 3.737772-3.42995 5.620026.038-3.787747.13895-7.556688.31752-11.2211951zm28.519545.4390023c-.577198 2.0321801-1.060584 4.2878718-1.370602 6.8037288-.281214 2.282113-.32984 4.114323-.32984 4.114323-1.729501.364692-3.785094.779159-5.743189 1.129256-1.837704.328572-3.241734.531545-3.241734.531545.0625-2.014258.41943-6.053025.41943-6.053025 2.981284-2.786957 6.401485-4.948992 10.265934-6.5258209 0 0 .000001-.0000069.000001-.0000069zm26.405514-2.3482011c4.092953.6239431 8.333099 1.6294669 12.366143 2.8550246-.216651 1.236247-.419425 3.6523583-.419425 3.6523583-2.677893.242828-5.532255.550231-8.66041.957785-2.819655.367361-4.986727.703225-4.986727.703225.137594-2.696132.671464-5.3988216 1.700419-8.1683929zm-51.203129 8.6779849c1.20142 2.317139 3.55734 6.933126 3.55734 6.933126-1.27838-.04593-2.75583-.166907-4.37983-.406311-1.489-.219501-2.73583-.492033-2.73583-.492033 1.0957-2.023427 2.27617-4.069863 3.55832-6.034782zm88.906463-6.3511249c1.952082 1.3315149 3.819707 2.7781629 5.577395 4.3934779-4.029431-.509163-12.448151-.897677-12.448151-.897677 2.27886-1.1776477 4.588962-2.3228206 6.870756-3.4958009zm-23.86782.9891385c2.376929.763883 4.768812 1.6350317 7.06443 2.6060074-2.469044.107461-7.374044.451074-7.374044.451074.04516-1.013823.146356-2.0303168.309614-3.0570814zm-51.552983 6.5816204c-.15688 1.725751-.30954 5.163851-.30954 5.163851-1.41899.208332-4.19117.450713-4.19117.450713 1.34333-2.03427 2.8301-3.910297 4.50071-5.614564zm-28.29455 2.604212c1.94127.823055 3.99346 1.623182 6.04425 2.306566 1.87296.624128 3.26275.982891 3.26275.982891-1.85968 3.466933-3.93605 7.636136-5.38047 10.82748-1.24806-.719397-3.9243-2.479084-3.9243-2.479084 0 .0068-.002-11.631118-.002-11.637853zm10.7522 3.65519c1.62402.391265 3.37197.711262 5.21994.905443 1.68295.17684 3.00673.197434 3.00673.197434.001 1.569736.0525 4.665192.0525 4.665192-1.38409 3.004423-2.59745 6.213207-3.61966 9.355984-1.43902-.276883-4.44076-1.265801-4.44076-1.265801-.14364-4.54897-.2256-9.204413-.21879-13.858252zm11.97722 1.044719c1.71873-.08609 5.22972-.556069 5.22972-.556069-.0169 3.673194.60013 10.931009.60013 10.931009-.18899.38707-.37442.777106-.55294 1.172597-2.4037-2.895343-6.43136-9.511998-6.43136-9.511998.37053-.690134.75542-1.368849 1.15445-2.035539zm6.16487-.700618c1.58773-.247749 3.396284-.586984 5.478963-1.023293 1.89507-.397004 3.49886-.762725 3.49886-.762725.0044.425196.0027 1.246134.0027 1.246134-3.522115 2.611396-6.305119 5.998816-8.507183 10.046159-.32441-3.145272-.49541-6.326602-.4734-9.506275zm35.383361-7.268227c2.441868-.395157 5.254404-.817457 8.408249-1.207726 2.878699-.356222 5.245986-.578516 5.245986-.578516-.0095 1.902963.473454 5.721479.473454 5.721479-4.443274-1.530314-9.368668-2.565306-14.124926-3.019617-.0058-.305226-.0067-.610409-.0027-.91562zm15.234397-1.930671c3.061845-.259022 9.275328-.556534 9.275328-.556534.719385.329991 1.431625.671724 2.133312 1.027207-1.90157 1.092833-4.014095 2.375852-6.163043 3.892457-1.96538 1.387054-3.420737 2.612316-3.420737 2.612316-.40427-.168272-.813516-.32967-1.224852-.487829-.405226-2.198767-.624265-4.342223-.600008-6.487617zm16.168426-.614997c2.738587.0472 5.820615.177748 9.095236.476596 2.993406.273182 5.310291.625634 5.310291.625634.0057 2.900823.218756 8.775253.218756 8.775253-2.298786-.547461-7.055855-1.265386-7.055855-1.265386-2.211809-2.33146-4.72817-4.320076-7.515859-6.068611-.04008-.850553-.05838-1.696747-.05257-2.543486zm16.682726 1.467619c2.427863.42797 5.098519 1.005128 7.815263 1.810997 2.4843404.736931 4.303889 1.477449 4.303889 1.477449.010307 3.66754.00223 10.994828.00223 10.994828-1.4260416-.902651-4.473629-2.478405-4.473629-2.478405-2.023116-4.60501-4.530273-8.45346-7.647752-11.804869zm-62.949027 3.964509c-.01941 2.151194.139649 4.504263.566595 7.123927.386704 2.37276.884973 4.267483.884973 4.267483-2.403117.850784-4.070164 1.457636-6.756186 2.430462-2.167716.785107-3.813618 1.36933-3.813618 1.36933-.404118-1.955941-.786783-4.174786-1.042414-6.600911-.233319-2.214379-.281504-3.992611-.281504-3.992611 3.028617-2.15238 6.506843-3.670791 10.442154-4.597701zm1.256562-.27278c3.964131-.78924 8.111025-.952998 12.192665-.679382.07384 1.521718.25862 3.18049.619282 5.048851.326235 1.690018.704604 3.05581.704604 3.05581-2.418922.676993-4.919576 1.430745-7.691658 2.332507-2.482242.807478-4.37332 1.468154-4.37332 1.468154-.952217-3.744243-1.495815-7.485066-1.451573-11.22594zm-40.889145 5.656757c.0178 4.08895.1839 12.124933.1839 12.124933-1.53419-.605417-4.81694-2.313971-4.81694-2.313971 1.29824-3.011551 3.00043-6.619476 4.63304-9.810962zm101.847935-8.457965c2.731931 2.953997 4.986587 6.305843 6.848811 10.218899-2.138354-.913463-6.664935-2.312821-6.664935-2.312821-.107388-2.690362-.173965-5.302687-.183876-7.906078zm-73.711613 8.459476c.08582 1.936782.272674 4.052361.617277 6.393323.312114 2.120266.66586 3.799188.66586 3.799188-1.775695.629817-3.861387 1.338595-5.896265 1.948631-1.89907.569322-3.359394.922323-3.359394.922323-.11594-.829413-.3466-2.529462-.3466-2.529462 2.103554-4.215556 4.821515-7.778345 8.319122-10.534003zm26.405537-6.222409c4.846652.448903 9.84516 1.520977 14.313012 3.141066.119188.532768.346518 1.590106.346518 1.590106-2.609284.416048-5.410578.949492-8.474639 1.653543-2.766805.635747-4.901772 1.217769-4.901772 1.217769-.685918-2.565617-1.140325-5.089382-1.283119-7.602484zm-43.358039 9.12365c1.08754 1.906898 2.38138 4.034889 3.89224 6.172706 1.38664 1.962066 2.61083 3.411055 2.61083 3.411055-.16804.403896-.32924.812545-.48722 1.223518-1.21534.231264-2.60601.432043-4.06871.532621-1.34469.09246-2.41854.06787-2.41854.06787-.25652-3.035843-.55579-9.273698-.55579-9.273698.33004-.719706.67161-1.432091 1.02719-2.134068zm71.124152-12.023697c.689718.370396 1.367753.755203 2.034085 1.154075.112125 1.719161.55586 5.230615.55586 5.230615-3.647212-.01631-10.929489.601257-10.929489.601257-.387051-.18905-.777036-.374364-1.172524-.552933 2.931419-2.434209 6.092711-4.494318 9.512068-6.433014zm-72.975352 16.03391c.10835 2.494247.45044 7.371687.45044 7.371687-1.00492-.03209-3.0554-.30946-3.0554-.30946.76349-2.376219 1.6345-4.767224 2.60496-7.062227zm76.701662-13.813581c2.033098 1.342983 3.908183 2.829073 5.611526 4.49905-1.699596-.154226-5.161155-.30894-5.161155-.30894-.196409-1.425309-.349796-2.816939-.450371-4.19011zm-95.813142 14.828276c1.19787.848012 3.44082 2.272125 3.44082 2.272125-1.35475 3.083215-2.50297 6.121148-3.31266 9.38346-.0306-.0164-.12183-.106375-.12183-.106375.00042.645489-.007-12.194699-.006-11.54921zm4.66722 3.010443c1.87516 1.108569 5.33796 2.686561 5.33796 2.686561.0815 2.59592.17532 5.230151.30472 8.266187.11503 2.69896.21916 4.788721.21916 4.788721-1.63172-.777531-3.51074-1.843934-5.61605-3.321921-1.92308-1.350053-3.53213-2.709485-3.53213-2.709485.80535-3.34928 1.94954-6.514662 3.28634-9.710063zm6.35123 3.088188c1.35118.52265 3.93357 1.19485 3.93357 1.19485-1.22636 3.969842-2.24709 8.120582-2.89631 12.144191-.12886-.04286-.41725-.177985-.41725-.177985-.24742-4.230077-.46285-8.632357-.62001-13.161056zm5.02689 1.420781c1.23741.241668 3.651.419352 3.651.419352.24361 2.688808.55158 5.546417.95839 8.669649.36686 2.816468.70169 4.977749.70169 4.977749-1.49755-.06999-3.21017-.281505-5.07212-.741284-1.70414-.420807-3.09294-.958828-3.09294-.958828.62369-4.093416 1.62865-8.333089 2.85398-12.366638zm4.59048.4462c1.90481.0347 5.71975-.473637 5.71975-.473637-1.52986 4.443547-2.56444 9.369183-3.01857 14.125327-.29513.01727-.91587.0028-.91587.0028-.71253-4.35248-1.33268-8.923537-1.78531-13.654494zm6.97498-.704851c.53223-.09361 1.59064-.346825 1.59064-.346825.41745 2.619959.95186 5.42434 1.654674 8.483615.63491 2.763679 1.21518 4.892923 1.21518 4.892923-1.418724.386339-3.046454.752484-4.764684.999666-1.57901.227156-2.83717.28413-2.83717.28413.449-4.846743 1.52125-9.845353 3.14136-14.313509zm3.272924-.771187c2.75373-.725546 8.619517-2.796762 8.619517-2.796762.211951.905376.647482 2.680558.647482 2.680558-1.164166 1.664081-2.133821 3.491333-2.912796 5.438358-2.304041-1.60546-4.406003-3.364495-6.354203-5.322154zm9.719413-3.198294c1.154906-.412327 3.573277-1.330616 3.573277-1.330616-1.147368.961076-2.186223 2.02984-3.120038 3.198712-.158639-.621121-.309896-1.243864-.453239-1.868096zm19.518835-7.012826c1.445942-.451158 4.372505-1.331058 4.372505-1.331058.157312.49709.453379 1.478674.453379 1.478674-1.597528-.15945-3.216431-.21103-4.825884-.147616zm5.786785-1.732624c2.205258-.609242 4.73848-1.262458 7.554398-1.875406 2.572536-.559968 4.678064-.921564 4.678064-.921564-1.948749 1.959856-5.35503 6.388201-5.35503 6.388201-1.990647-.694037-4.091632-1.199316-6.229812-1.5118-.230615-.696727-.447008-1.38974-.64762-2.079431zm14.845635-3.221293c.854717-.119843 2.531284-.347165 2.531284-.347165 4.215276 2.103485 7.778226 4.820989 10.533571 8.318505-1.927052.08566-4.040276.271654-6.386171.617041-2.123694.312673-3.808749.667932-3.808749.667932-1.143142-3.258877-2.144618-6.330724-2.869935-9.256313zm4.562794-.578509c1.772721-.178622 3.756651-.335199 5.934494-.416729 1.983342-.07425 3.569655-.05762 3.569655-.05762.269135 1.631927.590187 3.352506 1.031992 5.479228.393683 1.89507.753416 3.498819.753416 3.498819-.402103.0047-1.246734.0029-1.246734.0029-2.610653-3.521646-5.996728-6.304635-10.042823-8.50666zm11.080737-.447604c2.038653.06305 6.050348.418715 6.050348.418715 2.786261 2.981085 4.947879 6.400837 6.524307 10.264883-2.021498-.573811-4.273581-1.057544-6.792901-1.368155-2.284275-.281632-4.121718-.330329-4.121718-.330329-.661017-3.191002-1.240699-6.171288-1.660036-8.985114zm7.823821.644544c2.08316.302416 6.130472 1.194508 6.130472 1.194508.100753 1.801109.205242 3.529814.361126 5.817466.135716 1.991679.2588 3.653704.2588 3.653704-.166162-.04801-.534508-.178299-.534508-.178299-1.488143-3.914741-3.544617-7.416549-6.21589-10.487379zm7.631336 1.595989c1.406105.402765 2.951218.902383 4.597973 1.547278 1.499673.587296 2.659254 1.138003 2.659254 1.138003 1.7586074 4.018347 3.0501424 8.428837 3.9379234 12.921034-1.916485-1.485891-4.0925304-2.922719-6.5723934-4.197466-2.249314-1.156235-4.098956-1.83157-4.098956-1.83157-.208702-3.339069-.391358-6.519555-.523801-9.577279zm8.758871 3.423386c1.3397874.700413 3.8704118 2.271502 3.8704118 2.271502.011903 3.676906.00632 11.082524.00632 11.082524-.031674-.01693-.1257847-.10634-.1257847-.10634-.8476987-4.569216-2.0760257-9.105098-3.7509441-13.247583 0 0-.000001-.000103-.000001-.000103zm-69.414245 3.390999c1.054627 3.801978 4.11159 11.370511 4.11159 11.370511-1.871764.866013-4.63729 2.157266-6.884404 3.188066-2.24777 1.0311-3.993715 1.798363-3.993715 1.798363-1.095517-2.930901-2.95362-8.967087-2.95362-8.967087 2.436004-3.281177 5.655036-5.793844 9.720149-7.389853zm1.256563-.454987c4.131839-1.374262 8.63407-1.697557 12.914617-1.205705.853437 2.448028 2.953583 7.468499 2.953583 7.468499-4.031272 1.549235-11.756607 4.987566-11.756607 4.987566-1.639655-3.755145-3.070038-7.504806-4.111593-11.25036zm26.949924-6.634129c.749725 2.750198 2.795916 8.621225 2.795916 8.621225-.883124.207102-2.682314.648326-2.682314.648326-1.663781-1.164051-3.490509-2.13386-5.437278-2.912749 1.605953-2.30499 3.365488-4.407812 5.323676-6.356802zm-49.037473 15.48679c1.101934 1.107288 2.381964 2.282226 3.872609 3.475475 1.357117 1.086361 2.51449 1.879603 2.51449 1.879603-.694205 1.991152-1.199198 4.092729-1.511721 6.231371-.684662.239196-2.079524.648-2.079524.648-1.09536-3.932346-2.06005-8.022845-2.795854-12.234449zm10.227502.26815c.696389 2.454205 2.324603 7.236986 2.324603 7.236986-1.592532-.842181-4.629521-2.731751-4.629521-2.731751.632554-1.59181 1.400583-3.102238 2.304918-4.505235zm26.40566-10.097771c1.736285.287727 3.439764.71207 5.069481 1.271196-.965599 1.489154-2.745469 4.64319-2.745469 4.64319-.854324-2.007011-1.640246-3.977211-2.324012-5.914386zm-29.190718 15.901405c1.495974.988512 4.643496 2.745732 4.643496 2.745732-1.995045.862268-5.915014 2.325399-5.915014 2.325399.287825-1.736786.712186-3.440893 1.271518-5.071131zm35.558497-14.150124c1.591699.632477 3.102026 1.400465 4.504821 2.304743-2.431683.690488-7.237026 2.325801-7.237026 2.325801.850422-1.608144 1.755664-3.149813 2.732205-4.630544zm-72.234861 14.129822c1.85752 1.582794 3.87474 3.110277 6.01087 4.437399 1.94385 1.207662 3.45597 1.90592 3.45597 1.90592.13398 2.497294.25939 4.751969.42899 7.603816.14621 2.458298.26443 4.342555.26443 4.342555-2.08817-.970691-4.46352-2.33217-7.03332-4.269478-2.34928-1.77106-4.23654-3.590037-4.23654-3.590037.0354-3.853201.42239-7.248357 1.1096-10.430175zm11.87264 7.38667c1.63633.635526 3.43623 1.162396 5.38739 1.492111 1.77524.299989 3.18728.345426 3.18728.345426.39601 2.471279.83007 4.989491 1.35149 7.781221.46581 2.494025.84584 4.379805.84584 4.379805-2.07979-.09337-4.4547-.395911-7.01076-1.085469-2.34-.631265-4.21639-1.452282-4.21639-1.452282-.24537-3.894989-.0443-7.721112.45515-11.460812zm11.34864 1.845095c1.51196-.06037 3.19462-.249278 5.05045-.611026 1.689354-.329301 3.053454-.713541 3.053454-.713541.67918 2.427817 1.433962 4.9315 2.333793 7.698283.806211 2.478924 1.464808 4.364614 1.464808 4.364614-2.074867.534145-4.462781 1.01485-7.011455 1.26686-2.33966.231342-4.21224.18545-4.21224.18545-.78879-3.96346-.95246-8.109706-.67881-12.19064zm9.209884-1.634506c.500915-.134059 1.478871-.453687 1.478871-.453687-.159449 1.59768-.211601 3.217199-.148173 4.826753-.456831-1.432469-.902111-2.89015-1.330698-4.373066zm2.744857-.874744c2.454873-.831392 7.467975-2.954785 7.467975-2.954785 1.556594 4.052162 4.984898 11.754466 4.984898 11.754466-2.065659.90908-4.489539 1.903917-7.028641 2.788806-2.345218.817319-4.219728 1.324223-4.219728 1.324223-1.373524-4.131241-1.696378-8.63264-1.204504-12.91271zm9.47084-3.843778c1.688247-.748255 5.182766-2.394238 5.182766-2.394238-.908612 1.124831-1.637319 2.384101-2.171336 3.733274-1.020697-.430387-2.024441-.875335-3.01143-1.339036zm16.420274-7.581907c1.885407-.818451 5.691485-2.3944 5.691485-2.3944-.450657.994046-1.344619 3.017255-1.344619 3.017255-1.397494-.409132-2.866929-.619665-4.346866-.622855zm7.982317-3.283898c2.952408-1.10409 8.966631-2.95488 8.966631-2.95488 3.28044 2.435823 5.792136 5.655197 7.387582 9.720239-3.781302 1.049694-11.369384 4.113258-11.369384 4.113258-1.714004-3.731923-3.453694-7.405112-4.984829-10.878617zm10.54941-3.376047c.636487-.152847 1.869835-.45396 1.869835-.45396.434567 1.1505 1.33121 3.576294 1.33121 3.576294-.961464-1.148346-2.03147-2.187865-3.201045-3.122334zm3.279374-.76364c1.966823-.40675 4.187782-.78929 6.610665-1.044595 2.21191-.233074 3.984707-.281224 3.984707-.281224 2.152155 3.028508 3.67032 6.506754 4.596892 10.442063-2.14274-.01897-4.493624.138979-7.117642.566695-2.375738.387246-4.275903.887229-4.275903.887229-1.31503-3.746771-2.623047-7.262118-3.798719-10.570168zm14.270603-1.318659c2.102903.08573 4.46655.310679 7.007587.806434 2.320888.452805 4.15232 1.02939 4.15232 1.02939 1.293333 3.516052 2.083006 7.278596 2.42541 11.171709-2.134863-.879864-4.492756-1.609694-7.111457-2.065612-2.37369-.413262-4.276594-.470006-4.276594-.470006-.760643-3.743436-1.51723-7.224974-2.197266-10.471915zm14.165822 2.879311c2.098178.826785 4.434087 1.942557 6.893533 3.495905 2.2467124 1.418988 3.9769344 2.844955 3.9769344 2.844955.7384047 4.150074 1.1311794 8.323404 1.1722943 12.202188-2.1217063-1.988545-4.4750817-3.886879-7.0833547-5.529997-2.365055-1.489899-4.26609-2.326598-4.26609-2.326598-.266357-4.162436-.426961-6.524018-.693317-10.686453zm-56.57703 8.764742c1.55999 3.476632 4.993577 10.43344 4.993577 10.43344-1.982835-.663144-4.434175-1.48961-6.828975-2.364592-2.248788-.821636-3.99275-1.532579-3.99275-1.532579 1.098199-2.744582 3.071741-5.071513 5.828148-6.536269zm1.256566-.584713c2.89559-1.166839 6.06102-1.250869 8.900749-.441028-1.395341 3.477624-3.906658 10.832637-3.906658 10.832637-1.731628-3.468969-3.443305-6.933344-4.994091-10.391609zm12.083735-4.253182c.782275 1.708863 2.396216 5.189007 2.396216 5.189007-1.12546-.910401-2.385698-1.640705-3.736227-2.175626.4307-1.021359.875972-2.025753 1.340011-3.013381zm-23.890858 10.836744c1.002393.471991 3.016685 1.344303 3.016685 1.344303-.40914 1.398644-.619141 2.869331-.621802 4.35033-.823891-1.871685-1.627942-3.769492-2.394883-5.694633zm4.268946 1.862933c3.486577 1.415901 10.830291 3.905317 10.830291 3.905317-1.838839.924907-4.21523 2.106833-6.491873 3.19159-2.1664 1.032227-3.897493 1.803302-3.897493 1.803302-1.166339-2.895361-1.25081-6.060496-.440925-8.900209zm17.764923-8.435638c2.744331 1.098117 5.070243 3.072228 6.534475 5.828799-3.456042 1.551454-10.433078 4.99516-10.433078 4.99516 1.237643-3.699898 2.475623-7.313326 3.898603-10.823959zm-67.329573 14.062456c2.12599 2.004489 4.49144 3.909482 7.0911 5.544319 2.36235 1.485596 4.2578 2.315201 4.2578 2.315201.25089 3.766058.69345 10.685857.69345 10.685857-2.08206-.811062-4.42689-1.930468-6.88495-3.485176-2.24952-1.422801-3.98514-2.858253-3.98514-2.858253-.7383-4.149988-1.1311-8.323395-1.17226-12.201948zm12.62091 8.417313c2.1381.89282 4.5109 1.624671 7.11897 2.075934 2.37054.410163 4.26694.461818 4.26694.461818.49301 2.39463.85039 4.085508 1.40873 6.722882.45281 2.138838.7887 3.748369.7887 3.748369-2.08238-.07555-4.46-.30193-6.99711-.799139-2.32393-.455431-4.16121-1.03843-4.16121-1.03843-1.29318-3.516079-2.08262-7.278413-2.42502-11.171434zm12.6606 2.574921c2.1442.03057 4.515-.130934 7.124794-.559413 2.371806-.389406 4.264422-.892896 4.264422-.892896.851096 2.404821 1.463561 4.087644 2.432267 6.762872.783977 2.165068 1.366502 3.806487 1.366502 3.806487-1.939581.411573-4.184268.797472-6.597814 1.049465-2.214797.231243-3.993761.275125-3.993761.275125-2.15193-3.028407-3.66983-6.506467-4.59641-10.44164zm12.662676-1.78718c3.808481-1.034964 11.368533-4.113031 11.368533-4.113031.870348 1.881747 2.161108 4.646833 3.190457 6.891357 1.02963 2.245136 1.794664 3.986364 1.794664 3.986364-1.61642.616556-3.526368 1.298527-5.563878 1.945697-1.878802.59676-3.402246 1.00914-3.402246 1.00914-3.280254-2.435569-5.792047-5.654574-7.38753-9.719527zm12.646173-4.674577c3.486122-1.540694 10.43273-4.995151 10.43273-4.995151-.650341 1.971187-1.493054 4.467051-2.361516 6.837626-.823053 2.246623-1.536391 3.986004-1.536391 3.986004-2.744209-1.097618-5.070447-3.071882-6.534823-5.828479zm13.467739-6.511637c1.909741-.946671 4.175004-2.07504 6.503798-3.187887 2.162867-1.033555 3.886935-1.807531 3.886935-1.807531 1.166224 2.895475 1.250554 6.06097.440252 8.900299-3.514854-1.426965-7.131134-2.667156-10.830985-3.904881zm11.66-5.557471c2.098083-.909707 4.486281-1.891078 7.039632-2.783848 2.341663-.818753 4.209604-1.329412 4.209604-1.329412 1.373448 4.131125 1.6964 8.632011 1.204445 12.911702-2.430107.847712-7.468629 2.954931-7.468629 2.954931-1.545472-4.050623-3.256995-7.961147-4.985052-11.753373zm12.505812-4.448137c2.09832-.527891 4.468188-1.005636 7.023657-1.260988 2.337106-.233532 4.204357-.192938 4.204357-.192938.788744 3.96329.952248 8.109092.678332 12.189835-1.514702.07378-3.171731.257649-5.04403.61911-1.692736.326795-3.063428.706731-3.063428.706731-1.178371-4.245024-2.481378-8.257221-3.798888-12.06175zm12.484361-1.416914c2.097856.105182 4.461461.406172 7.020633 1.093938 2.337442.628178 4.208674 1.441682 4.208674 1.441682.245374 3.894848.04417 7.720592-.455412 11.460218-1.635487-.622339-3.418282-1.146442-5.380878-1.481246-1.778025-.303317-3.195653-.354609-3.195653-.354609-.681683-4.306796-1.4352-8.351689-2.197364-12.159983zm12.488337 3.093851c2.103063.988116 4.470346 2.34532 7.041595 4.28111 2.3468414 1.766842 4.2288262 3.57549 4.2288262 3.57549-.035421 3.852883-.4224671 7.248082-1.1096388 10.429863-1.855031-1.568584-3.8577474-3.087115-6.0038434-4.423292-1.946479-1.211894-3.463591-1.917679-3.463591-1.917679-.215032-4.171835-.452922-8.145501-.693348-11.945492zm-49.584168 9.662092c1.999731.668764 4.44798 1.494298 6.840839 2.36859 2.245235.820352 3.98231 1.528379 3.98231 1.528379-1.098649 2.744177-3.073018 5.069895-5.829766 6.53436-1.551064-3.482694-3.26183-6.959336-4.993383-10.431329zm-1.256072.628566c.930051 1.849656 2.110264 4.223425 3.19381 6.498219 1.030518 2.163468 1.799063 3.889257 1.799063 3.889257-2.895005 1.166562-6.059132 1.25163-8.898105.442511 1.426981-3.514388 2.667325-7.130343 3.905232-10.829987zm14.407138-1.892677c.838977 1.879015 2.397179 5.699092 2.397179 5.699092-.97595-.459404-3.019923-1.345313-3.019923-1.345313.409725-1.399689.620194-2.871573.622744-4.353779zm-23.89027 11.346583c1.125285.909818 2.385274 1.639548 3.735409 2.174065-.415387 1.026163-1.339562 3.013192-1.339562 3.013192-.766473-1.701385-1.572457-3.432385-2.395847-5.187257zm36.713353-13.423988c.469776 1.440985 1.331237 4.373878 1.331237 4.373878-.479503.152261-1.47929.453824-1.47929.453824.159497-1.59809.211556-3.217743.148053-4.827702zm-49.036912 20.214312c.960971 1.147719 2.030146 2.186635 3.199 3.12068-.607225.165017-1.868273.45355-1.868273.45355-.42807-1.165216-.874446-2.358579-1.330727-3.57423zm17.382814-4.161906c1.397797.408966 2.867583.619476 4.347795.622289-1.855887.828975-5.691964 2.394777-5.691964 2.394777.465597-.989067.912254-1.99469 1.344169-3.017066zm17.753671-8.297298c1.034712.436151 3.011872 1.33874 3.011872 1.33874-1.688413.773379-5.184328 2.394939-5.184328 2.394939.909098-1.124813 1.638085-2.384365 2.172456-3.733679zm-75.684612 8.698737c.0522.05424.12579.106375.12579.106375.8478 4.569689 2.0763 9.105991 3.75131 13.248821-1.31774-.670927-3.87078-2.27234-3.87078-2.27234-.00021-.496962-.006-10.585895-.006-11.082856zm1.44091 1.171692c1.91995 1.499998 4.11056 2.943048 6.58056 4.209879 2.24649 1.152194 4.09004 1.821077 4.09004 1.821077.22085 3.356415.52405 9.57704.52405 9.57704-1.38421-.387678-2.94864-.89353-4.58895-1.537953-1.50272-.59037-2.668-1.148265-2.668-1.148265-1.7586-4.01851-3.04982-8.429357-3.9377-12.921778zm12.07511 6.538727c.18998.0735.53382.178176.53382.178176 1.48825 3.915007 3.54507 7.41701 6.21645 10.487788-2.05665-.283575-6.13006-1.195082-6.13006-1.195082-.15683-3.013897-.37315-6.158344-.62021-9.470882zm1.99799.626525c2.02393.58456 4.29528 1.070123 6.80153 1.376648 2.28084.278956 4.11124.323285 4.11124.323285.36644 1.738229.78049 3.792672 1.13015 5.74885.32807 1.835451.53047 3.235653.53047 3.235653-2.01051-.04741-6.04856-.419121-6.04856-.419121-2.78641-2.981003-4.94823-6.401032-6.52483-10.265315zm12.36186 1.733877c.42992.01261 1.24821-.0028 1.24821-.0028 2.611024 3.521884 5.997745 6.304596 10.044453 8.506276-1.742793.184286-3.759758.342843-5.925599.421928-1.98749.07258-3.581164.05202-3.581164.05202-.45121-2.810607-1.07484-5.788301-1.7859-8.977407zm2.78978-.04591c1.925954-.07574 4.066284-.265883 6.393564-.611131 2.119164-.314374 3.7961-.672582 3.7961-.672582.632823 1.784522 1.340993 3.869365 1.950258 5.902211.568492 1.896802.920517 3.353172.920517 3.353172-.824524.131563-2.526437.346423-2.526437.346423-4.21547-2.103122-7.778338-4.820634-10.534002-8.318093zm11.615293-1.588632c.912137-.194592 2.681764-.648145 2.681764-.648145 1.663446 1.163784 3.489679 2.13311 5.435999 2.911792-.884251 1.284285-1.953325 2.683984-3.196713 4.099518-1.137897 1.295438-2.124635 2.255699-2.124635 2.255699-.734216-2.738058-1.702873-5.601604-2.796415-8.618864zm4.327336-1.091847c2.460017-.678591 7.233587-2.324666 7.233587-2.324666-.833794 1.610501-2.730148 4.628042-2.730148 4.628042-1.591133-.632055-3.10105-1.399634-4.503439-2.303376zm9.54848-3.183311c4.148766-1.57203 11.753695-4.986397 11.753695-4.986397.912935 2.074875 1.906958 4.498537 2.790377 7.034183.81596 2.342022 1.321424 4.211044 1.321424 4.211044-4.131148 1.374026-8.632122 1.697975-12.911757 1.20692-.838736-2.43986-1.84551-4.926172-2.953739-7.46575zm13.010269-5.561531c1.886582-.860651 4.652329-2.151729 6.896412-3.184109 2.244666-1.032648 3.984465-1.803425 3.984465-1.803425.62012 1.62627 1.301691 3.53676 1.947384 5.570446.595472 1.875509 1.00616 3.392911 1.00616 3.392911-2.436506 3.281116-5.656722 5.793342-9.722618 7.389511-1.04207-3.793007-2.472309-7.581913-4.111803-11.365334zm12.859684-5.845857c2.021188-.848069 5.914362-2.325067 5.914362-2.325067-.287924 1.736029-.71259 3.439604-1.27188 5.069082-1.485447-.981083-3.031076-1.89024-4.642482-2.744015zm7.210673-2.768878c.709657-.222575 2.080968-.648469 2.080968-.648469.61292 2.181034 1.275525 4.758034 1.881251 7.552907.557697 2.573262.915233 4.679855.915233 4.679855-1.093174-1.097932-2.370947-2.271849-3.865637-3.468328-1.36012-1.088759-2.523792-1.886114-2.523792-1.886114.694212-1.990737 1.199362-4.091592 1.511977-6.229851zm3.171243-.953134c1.443944-.379456 3.045293-.740656 4.774184-.992521 1.576422-.229653 2.829574-.292369 2.829574-.292369-.449537 4.847008-1.522131 9.845893-3.142959 14.314059-.517212.116177-1.589933.346763-1.589933.346763-.727909-4.616739-1.725252-9.092501-2.870866-13.375932zm8.737008-1.328144c.315887.0057.916164-.0029.916164-.0029.399644 2.411685.829279 5.284835 1.213446 8.408333.354053 2.878657.57254 5.245887.57254 5.245887-1.888292-.0089-5.722752.474662-5.722752.474662 1.530625-4.443533 2.566099-9.369319 3.020602-14.125912zm1.982518.03085c1.515709.08359 3.21297.292567 5.08026.750552 1.701825.417402 3.085929.947755 3.085929.947755-.623966 4.093588-1.629251 8.333794-2.855018 12.367403-1.220287-.213422-3.650597-.41856-3.650597-.41856-.421076-4.727905-.997888-9.296444-1.660574-13.64715zm9.302578 2.146606c.14841.073.418715.178484.418715.178484.256904 4.243807.620129 13.161129.620129 13.161129-1.33518-.49237-3.936618-1.194737-3.936618-1.194737 1.226816-3.969842 2.248235-8.121147 2.897778-12.144809 0 0-.000004-.000067-.000004-.000067zm1.528375.686071c1.647585.796996 3.514186 1.855757 5.62341 3.333376 1.9208034 1.34562 3.5247364 2.695208 3.5247364 2.695208-.805555 3.349657-1.949466 6.515475-3.2865694 9.711288-1.856771-1.074957-5.337605-2.684933-5.337605-2.684933-.132838-4.485157-.314897-8.851144-.523972-13.054939zm10.4014267 7.093634c.050481.05421.121821.106339.121821.106339.012423 3.8339.00632 11.549682.00632 11.549682-1.1783533-.813413-3.4414673-2.271722-3.4414673-2.271722 1.354994-3.083562 2.503479-6.121748 3.3133263-9.384299zm-69.2057597 7.823749c.869846 2.013097 2.324797 5.913719 2.324797 5.913719-1.736282-.287446-3.439901-.711435-5.06963-1.270357.981368-1.485667 1.890794-3.031588 2.744833-4.643362zm26.405689-11.418443c1.618497.855624 4.628509 2.730033 4.628509 2.730033-.632423 1.590992-1.400291 3.100577-2.304302 4.502826-.684323-2.445062-1.469498-4.857603-2.324207-7.232859zm-29.867491 17.117846c1.990913.694117 4.092143 1.198876 6.23063 1.511215.247578.709557.64834 2.080439.64834 2.080439-2.170297.610062-4.746067 1.272975-7.544571 1.879753-2.576324.558602-4.689179.917251-4.689179.917251 1.970486-1.961493 3.740236-4.074781 5.35478-6.388658zm35.548265-13.674805c1.294618.901675 2.680773 1.959796 4.102818 3.20634 1.295111 1.135275 2.25471 2.116193 2.25471 2.116193-1.571357.428634-3.25461.942254-5.285024 1.628248-1.817089.613919-3.336547 1.168966-3.336547 1.168966-.189589-.889754-.648481-2.683107-.648481-2.683107 1.163938-1.663647 2.133611-3.490088 2.912524-5.43664zm-3.818227 6.650591c.170974.630501.454153 1.87071.454153 1.87071-1.133137.428326-3.579264 1.332783-3.579264 1.332783 1.149437-.962161 2.189859-2.032901 3.125111-3.203493zm-23.890961 8.73455c1.598954.159429 3.219643.211316 4.830522.147455-1.420002.463207-4.376507 1.332343-4.376507 1.332343-.143582-.491729-.295104-.984952-.454015-1.479798zm-59.525209-.58705c1.44673.935862 4.47336 2.479191 4.47336 2.479191 2.02276 4.604994 4.52894 8.453669 7.64586 11.80506-2.40693-.415739-5.09406-.996162-7.8053-1.802433-2.48709-.739611-4.31169-1.487067-4.31169-1.487067 0 .0068-.002-10.988013-.002-10.994751zm6.00525 3.174563c2.16158.941566 6.66582 2.314324 6.66582 2.314324.11992 2.702795.18419 7.907362.18419 7.907362-2.73246-2.954636-4.98757-6.307336-6.85001-10.221686zm8.17426 2.701279c2.32313.569513 7.05334 1.265855 7.05334 1.265855 2.21175 2.331644 4.72805 4.320303 7.51583 6.068796.0535.857857.0529 2.5427.0529 2.5427-2.71235-.03898-5.81923-.170859-9.08394-.470619-2.99622-.275107-5.31898-.632345-5.31898-.632345.007-2.89036-.0754-5.779131-.21916-8.774387zm8.87448 1.463498c1.7263.171949 5.16079.309414 5.16079.309414.21041 1.433625.45091 4.19024.45091 4.19024-2.03328-1.343004-3.90829-2.82949-5.6117-4.499654zm6.74527.335281c3.674804.03175 10.929232-.600586 10.929232-.600586.387151.189064.776936.374682 1.172511.553257-2.891372 2.419114-9.509319 6.4315-9.509319 6.4315-.69039-.37071-1.36907-.755829-2.035984-1.155069-.0989-1.710518-.29124-3.443103-.55644-5.229102zm15.695393-1.245626c2.604174-.406009 5.442958-.947821 8.484135-1.649121 2.762899-.637128 4.890806-1.221963 4.890806-1.221963.388668 1.426994.754437 3.055571 1.001201 4.771202.226801 1.576845.283732 2.830751.283732 2.830751-4.846681-.448598-9.845111-1.519981-14.312833-3.139862-.105328-.527015-.221275-1.057174-.347041-1.591007zm14.794074-3.257948c2.398558-.660571 4.964848-1.435057 7.699494-2.327456 2.478163-.808699 4.36258-1.472504 4.36258-1.472504.536755 2.084553 1.016871 4.473767 1.268539 7.019646.231056 2.337365.185524 4.205142.185524 4.205142-3.963444.78899-8.109501.952987-12.190311.67967-.119169-2.681453-.592588-5.371815-1.325826-8.104498zm13.31865-4.238249c2.167291-.754523 4.331856-1.540482 6.766562-2.425427 2.165054-.786936 3.805884-1.375398 3.805884-1.375398.413925 1.950416.799417 4.196784 1.050987 6.607022.230895 2.212155.274802 3.98555.274802 3.98555-3.029196 2.152781-6.508032 3.671557-10.44417 4.598545.04337-3.797872-.501077-7.595792-1.454065-11.390292zm11.667465-4.187723c1.815032-.630106 3.844086-1.32075 5.90474-1.941682 1.896588-.571493 3.352435-.92976 3.352435-.92976.135261.849081.346957 2.529781.346957 2.529781-2.103762 4.215404-4.821614 7.778354-8.319217 10.533901-.143458-3.418476-.598371-6.826298-1.284915-10.19224zm12.221387-3.516654c1.239776-.221501 2.600725-.419103 4.076423-.523985 1.342752-.09543 2.412643-.07737 2.412643-.07737.273908 3.061627.556517 9.274134.556517 9.274134-.330027.719441-.671492 1.43161-1.026996 2.133329-1.080812-1.893968-2.374176-4.021718-3.887617-6.162719-1.389029-1.965002-2.618193-3.419291-2.618193-3.419291.168158-.404023.32916-.812992.487223-1.224095zm7.419872-.575591c1.022019.05806 3.055658.308954 3.055658.308954-.763541 2.375883-1.634317 4.766775-2.604783 7.061393-.100784-2.480305-.254273-4.942197-.450875-7.370347zm4.153907.506431c1.456383.304931 4.442847 1.26544 4.442847 1.26544.152159 4.564698.219132 13.857307.219132 13.857307-1.631226-.378748-3.351189-.695287-5.216031-.894806-1.685344-.180315-3.013063-.207511-3.013063-.207511.01276-1.543238-.05293-4.665424-.05293-4.665424 1.384233-3.004081 2.597637-6.212449 3.620045-9.355006zm5.44858 1.652254c1.551367.635851 4.817477 2.31317 4.817477 2.31317-1.298265 3.011477-3.00067 6.619078-4.63332 9.81035-.01-4.073153-.07668-8.137368-.184157-12.12352zm6.039197 3.008337c1.2664714.752085 3.9245602 2.478511 3.9245602 2.478511.011293 3.883998.00223 11.63783.00223 11.63783-1.9478578-.813998-3.9681402-1.602417-6.0377652-2.295005-1.87548-.627617-3.269347-.993473-3.269347-.993473 1.860447-3.467952 3.935297-7.635079 5.38032-10.827794 0 0-.000001-.000069 0-.000069zm-77.41626 12.345184c.403594.167934.811989.328968 1.22265.486826.232719 1.22254.433168 2.613841.533584 4.074208.09233 1.342756.06795 2.412849.06795 2.412849-3.035503.271574-9.272061.556092-9.272061.556092-.719396-.329929-1.431523-.671293-2.133164-1.026725 3.446249-1.965969 6.630185-4.049161 9.581039-6.50325zm53.329565-14.471883c2.422889 2.916723 6.434083 9.510248 6.434083 9.510248-.370536.690003-.75555 1.368237-1.154584 2.034781-1.705139.111522-5.231433.556557-5.231433.556557.03112-3.649255-.601482-10.928968-.601482-10.928968.189114-.38718.374784-.777013.553416-1.172618zm-1.360899 2.740305c.185553 1.754303.34376 3.772789.422662 5.934419.07242 1.984124.05208 3.571303.05208 3.571303-1.626212.268379-3.343299.588634-5.473704 1.031326-1.897038.394199-3.505165.755056-3.505165.755056.01232-.406258-.003-1.247068-.003-1.247068 3.522002-2.611146 6.304948-5.998057 8.507157-10.044962 0 0-.000008-.000074-.000008-.000074zm-49.037289 12.840959c4.443256 1.529885 9.368508 2.564508 14.124919 3.018343.01765.31205.003.915441.003.915441-2.400368.397892-5.271796.827706-8.398529 1.212474-2.881352.354571-5.254722.573684-5.254722.573684.02153-1.895725-.1499-3.789801-.474686-5.719942zm-46.070732 2.942319c2.18804.812888 4.77576 1.581443 7.79144 2.241406 2.74629.601009 5.05794.93346 5.05794.93346-.006 1.628811-.0459 3.536325-.13438 5.575683-.0817 1.88186-.18884 3.4426-.18884 3.4426-2.45281-.14175-5.22843-.34935-8.03214-.64121-2.57947-.26851-4.49792-.54452-4.49792-.54452.00014-.21824.004-10.78918.004-11.007419zm15.18969 3.504531c4.05279.527764 12.44321.89807 12.44321.89807-2.27101 1.187624-6.86748 3.493928-6.86748 3.493928-1.95148-1.331108-3.81858-2.77717-5.57573-4.391998zm15.22247.9346c1.570154.01297 4.667668-.0527 4.667668-.0527 3.003112 1.383143 6.210733 2.59549 9.352315 3.617058-.27961 1.45497-1.265008 4.44294-1.265008 4.44294-4.540108.15136-13.856495.21889-13.856495.21889.68339-2.89049 1.02444-5.565998 1.10152-8.226191zm7.157884-.135566c2.492369-.094 7.367774-.45052 7.367774-.45052-.03254 1.019319-.308586 3.053756-.308586 3.053756-2.375151-.763098-4.765323-1.633318-7.059188-2.603236zm8.948675-.584925c2.660303-.232701 5.573289-.547263 8.668496-.952644 2.816315-.368856 4.977698-.708041 4.977698-.708041-.07008 1.50529-.282496 3.218886-.741412 5.077856-.420119 1.701798-.95595 3.085938-.95595 3.085938-4.09343-.62352-8.333762-1.62864-12.3671-2.85381.227198-1.22812.363202-2.440476.418268-3.649299zm15.086678-1.884454c2.423495-.378811 5.035683-.829608 7.780301-1.344751 2.494016-.468108 4.380038-.85321 4.380038-.85321-.09341 2.088993-.397101 4.465007-1.085542 7.017706-.63036 2.337328-1.448502 4.208468-1.448502 4.208468-3.895056.24551-7.721142.0445-11.460919-.45476 1.116075-2.90486 1.690618-5.742283 1.834624-8.573453zm13.416917-2.451475c2.127834-.426776 4.352933-.896226 6.724295-1.401142 2.140592-.45578 3.749867-.797321 3.749867-.797321-.07563 2.092897-.302923 4.471744-.799164 7.004904-.454637 2.320783-1.035268 4.152187-1.035268 4.152187-3.516707 1.29377-7.279826 2.08374-11.17378 2.42628 1.571804-3.791208 2.356769-7.587865 2.53405-11.384908zm11.547828-2.422251c3.205201-.652653 8.985926-1.66089 8.985926-1.66089-.04786 2.035765-.418261 6.048473-.418261 6.048473-2.980995 2.786305-6.400959 4.947732-10.264837 6.524306 1.027323-3.590575 1.560262-7.247943 1.697172-10.911889zm9.92112-1.795184c1.433101-.184946 4.190754-.45088 4.190754-.45088-1.342996 2.032956-2.829515 3.907661-4.499411 5.610865.162833-1.712271.263723-3.434792.308657-5.159985zm5.562342-.533845c.858007-.02749 2.544627-.0529 2.544627-.0529-.03899 2.724892-.1714 5.833499-.470742 9.094332-.274764 2.993098-.630848 5.309776-.630848 5.309776-2.885634.006-8.776118.21913-8.776118.21913.563342-2.299768 1.264893-7.056478 1.264893-7.056478 2.331121-2.211194 4.319652-4.727011 6.068188-7.513862zm4.060718-.01649c1.302454.06147 2.745892.178234 4.385265.416249 1.487304.215937 2.730236.481156 2.730236.481156-1.09558 2.022881-2.276026 4.068566-3.557932 6.032881-1.359082-2.620143-2.198487-4.310143-3.557569-6.930286zm8.582555 1.227114c1.666754.407383 3.567172.946768 5.861009 1.731922 2.0786994.711515 3.9244658 1.441765 3.9244658 1.441765.00956 3.91116-.0039 11.624097-.0039 11.624097-3.6751928-.52339-10.1047608-1.18529-10.1047608-1.18529.200477-4.427199.300598-9.014106.323184-13.612494zm-85.933777 9.209292c-.046 1.284903-.16744 2.763252-.40642 4.384882-.21917 1.48713-.49065 2.72998-.49065 2.72998-2.02322-1.09555-4.06924-2.27617-6.03381-3.55812 2.61646-1.35679 4.31442-2.199956 6.93088-3.556742zm76.701292-9.30815c1.184741 2.291894 3.49586 6.868876 3.49586 6.868876-1.331427 1.951769-2.777719 3.819255-4.39281 5.576696.517911-4.040028.801357-8.231425.89695-12.445572zm8.248293 1.347926c-.03024 3.804229-.317167 11.223596-.317167 11.223596-1.076633-1.808621-3.113948-5.601988-3.113948-5.601988 1.229156-1.835095 2.367425-3.738891 3.431115-5.621608zm-99.333335 7.22578c1.65683 1.526188 3.40738 2.903786 5.22959 4.178136-1.87361.99157-5.54671 3.05872-5.54671 3.05872.17845-2.4882.27923-4.871898.31712-7.236856zm80.53315-1.198102c-.286795 2.082609-1.19428 6.133098-1.19428 6.133098-1.795554.10049-3.519249.20467-5.81143.36091-1.993741.13591-3.660273.25938-3.660273.25938.06608-.16837.17896-.53674.17896-.53674 3.914649-1.48829 7.416247-3.545353 10.487023-6.216648zm-49.037448 5.341608c3.96979 1.22602 8.121331 2.24709 12.144978 2.89605-.05053.14741-.178774.41952-.178774.41952-4.220977.25564-13.16041.62023-13.16041.62023.507285-1.34329.901457-2.6498 1.194206-3.9358zm-25.210222.75709c1.83501 1.22902 3.73875 2.36703 5.62148 3.43058-3.77913-.0301-11.22293-.31763-11.22293-.31763 1.82882-1.08846 3.68954-2.10737 5.60145-3.11295zm88.894193-5.448876c.990793 1.899501 3.060492 5.548536 3.060492 5.548536-2.482026-.16601-7.239867-.31739-7.239867-.31739 1.526624-1.65729 2.904605-3.408408 4.179375-5.231146zm-109.563773 8.467346c3.56327.42784 11.42775.94726 11.42775.94726-2.40237 1.5615-4.81373 3.3182-7.4006 5.56894-2.31347 2.01288-4.03797 3.76147-4.03797 3.76147.00021-.14352.0106-10.13416.0108-10.27767zm13.92963 1.07252c4.4392.20959 13.61176.32361 13.61176.32361-.38912 1.64872-.94053 3.58412-1.72274 5.85997-.71438 2.07847-1.44965 3.92413-1.44965 3.92413-3.89046.009-11.62419-.004-11.62419-.004.53517-3.68647.92042-6.98338 1.18482-10.10381zm16.73403.32736c4.083452-.002 12.121621-.18399 12.121621-.18399-.611351 1.55016-2.311766 4.81598-2.311766 4.81598-3.01136-1.29796-6.618938-2.99986-9.809855-4.63199zm13.620653-.2264c2.496164-.0694 5.322118-.17079 8.262765-.29835 2.6997-.11711 4.791579-.22571 4.791579-.22571-.780774 1.63979-1.848737 3.52039-3.324028 5.62255-1.348001 1.9208-2.702388 3.52471-2.702388 3.52471-3.34991-.80545-6.515935-1.94938-9.71196-3.28622 1.09112-1.86578 1.977847-3.63224 2.684032-5.33698zm14.44824-.59467c2.306102-.11402 4.933712-.26088 7.599976-.42186 2.459347-.1485 4.345957-.27175 4.345957-.27175-.974167 2.09739-2.337421 4.47406-4.271603 7.04045-1.768625 2.34673-3.581594 4.22866-3.581594 4.22866-3.853224-.0354-7.248626-.42235-10.430844-1.10957 2.801618-3.30217 4.872481-6.42735 6.338108-9.46593zm13.202509-.77361c3.915783-.2404 10.688606-.69377 10.688606-.69377-.814324 2.09229-1.935145 4.43816-3.48697 6.89241-1.420487 2.24654-2.850627 3.97667-2.850627 3.97667-4.150651.73864-8.324711 1.13171-12.204211 1.17282 3.544493-3.77251 6.102557-7.55745 7.853202-11.34813zm11.808863-.76439c3.347951-.19838 9.577769-.52412 9.577769-.52412-.390456 1.39521-.897199 2.96088-1.539893 4.59717-.588985 1.49954-1.143829 2.65905-1.143829 2.65905-4.018025 1.75869-8.428087 3.05003-12.919958 3.93791 2.649195-3.40576 4.621962-6.9924 6.025911-10.67001zm10.594731-.5665c2.696266-.0958 7.907579-.18418 7.907579-.18418-2.954276 2.73211-6.306375 4.98698-10.219661 6.84925.92667-2.14924 1.692085-4.38045 2.312082-6.66507zm9.904075-.18046c1.677459.0199 3.485765.0563 5.576125.14358 1.88278.0787 3.44415.17984 3.44415.17984-.142274 2.46389-.350088 5.24016-.64146 8.04003-.268099 2.57622-.543205 4.48937-.543205 4.48937-3.683164.008-11.007905-.004-11.007905-.004 1.431472-3.88206 2.465814-8.25192 3.172295-12.84892zm10.812183.44856c1.681393.13321 3.511043.29309 5.728181.52698 1.9905484.21 3.6992578.42 3.6992578.42.00745 3.59401-.010817 10.57749-.010817 10.57749-3.6682978-3.72517-6.4933498-7.02386-9.4166218-11.52447zm-86.104834 3.13164c3.467114 1.85975 7.6361 3.93571 10.828086 5.38025-.72941 1.26602-2.4771 3.92376-2.4771 3.92376-3.863222.0113-11.637866.002-11.637866.002 1.45907-3.46812 2.5302-6.4926 3.28688-9.30624zm74.185871-2.84907c-.417362 2.4186-.998497 5.10676-1.803456 7.81426-.738516 2.48402-1.483493 4.30346-1.483493 4.30346-3.647866.0103-10.994726.002-10.994726.002.921867-1.42588 2.477177-4.473 2.477177-4.473 4.604607-2.02297 8.453109-4.52971 11.804498-7.64695zm-90.730071 2.72297c-.11577 1.62535-.2875 3.56752-.51859 5.72818-.21289 1.9905-.42807 3.69934-.42807 3.69934-3.57393.007-10.57856-.0108-10.57856-.0108 3.72553-3.66864 7.02442-6.49376 11.52522-9.41667zm101.847497-2.02865c1.555445 2.4072 3.324128 4.8318 5.569441 7.40892 2.0131574 2.31067 3.7617644 4.03012 3.7617644 4.03012-3.4712184.005-10.2776714-.0108-10.2776714-.0108.416233-3.55137.725983-7.41198.946466-11.4282zm-24.353132 7.55518c-.681801 1.33984-2.270788 3.87095-2.270788 3.87095-3.657024.0119-11.082335.006-11.082335.006.0367-.0315.105879-.1253.105879-.1253 4.569277-.84782 9.104889-2.07685 13.247244-3.75198zm-49.037719.4623c3.083757 1.35481 6.122295 2.50332 9.385109 3.31307-.03355.0503-.105881.12133-.105881.12133-3.813266.0124-11.549758.006-11.549758.006.830143-1.18789 1.585321-2.33197 2.27053-3.44073z" fill="#fff" transform="translate(132.07957 9.524996)"/>
</svg>
