<svg height="5in" viewBox="0 0 127 127" width="5in" xmlns="http://www.w3.org/2000/svg">
	<path d="m-68.584065-9.5251085c-.0139 0-.0285.001-.0425.001-21.140775.0202-63.453015-.000522-63.453015-.000522.0101 21.1793295 0 63.4949865 0 63.4949865.0202 21.175819 0 63.496004 0 63.496004 21.16568.01 63.453015-.00044 63.453015-.00044.0142.00044.0283.00087.0425.00087s.0283-.00043.0425-.00043c21.16867.0197 63.4530293 0 63.4530293 0 .0101-21.159467 0-63.496004 0-63.496004.0202-21.16297 0-63.4949865 0-63.4949865-21.1454793.01044-63.4530293.000522-63.4530293.000522-.0144-.000019-.028-.001-.0425-.001zm-61.269865 1.338097c3.61059.14019 10.70452.35427 10.70452.35427.53445 2.5187742 1.15986 5.5275282 1.7378 8.37349624.54364 2.67707996.94244 4.70874296.94244 4.70874296-4.82056-4.84768996-9.55725-9.603985-13.38476-13.4365092zm11.98331.392529c3.87078.128249 11.41497.301352 11.41497.301352.71632 3.0221992 1.72964 7.29670324 2.51366 10.5986782.78323 3.298648 1.35484 5.712606 1.35484 5.712606-2.10735-.35126-4.65909-.805197-7.45649-1.329586-2.5833-.484256-4.76525-.914526-4.76525-.914526-.91853-4.452358-1.9391-9.218616-3.06173-14.3685242zm12.67345.330047c3.80384.101688 11.25892.215265 11.25892.215265.49615 2.6108602 1.34823 7.16531224 1.34823 7.16531224-3.24692 2.62813596-6.22021 5.58593396-8.91416 8.32325996-1.11509-4.718101-2.34609-9.919239-3.69299-15.7038372zm12.50443.234419c3.75309.07447 11.154555.129153 11.154555.129153.0199.09746.024.233993.024.233993-3.701835 1.5453882-7.019055 3.6277222-10.035855 5.96173824-.36938-2.02396904-.75029-4.13054604-1.14272-6.32488424zm37.063805.129145c3.70329-.01099 11.15406-.129153 11.15406-.129153-.39834 2.2848352-1.1429 6.32571424-1.1429 6.32571424-3.01666-2.33394304-6.33364-4.41617504-10.03528-5.96159924.008-.07821.0161-.156528.0241-.234962zm12.39805-.148283c3.72269-.04076 11.25893-.215258 11.25893-.215258-.73137 3.1646102-1.58295 6.78938524-2.38709 10.1918702-.75127 3.178811-1.30575 5.511433-1.30575 5.511433-2.69406-2.7374-5.66727-5.694563-8.91429-8.32268696.43371-2.27993504.88312-4.66583304 1.3482-7.16535824zm12.51895-.243988c3.76058-.07117 11.4155-.301371 11.4155-.301371-.65672 3.0402512-1.26815 5.8638072-1.98215 9.2278132-.62233 2.93209-1.07945 5.140511-1.07945 5.140511-2.37232.468384-5.11561.989113-7.80986 1.474367-2.50393.450977-4.41255.769886-4.41255.769886 1.16056-4.885394 2.45007-10.284419 3.86851-16.3112062zm12.69427-.339631c3.521039-.09326 10.7034792-.354238 10.7034792-.354238-.88125.887085-7.1550202 7.1813212-8.0362792 8.06840624-2.91639 2.92667596-5.34706 5.36667596-5.34706 5.36667596.81161-4.094281 1.7049-8.437839 2.67986-13.0808442zm-51.18277.799425c.008 1.21493.0603 11.3950152.068 12.6099452.019 3.836791.0317 6.5545373.0317 6.5545373-3.09146.0041-9.37247-.320604-9.37247-.320604.74913 7.585485-1.72756-17.5511175-.97841-9.9656323-.34783-3.590866-.64892-6.774138-.64892-6.774138 3.44177-1.2822862 7.08407-2.0306942 10.90004-2.1041122v.000004zm1.23175 0c3.81668.07332 7.45961.822444 10.90193 2.1050452-.31821 3.440977-.69414 7.351329-1.04899 10.951212-.33194 3.367339-.57837 5.7875673-.57837 5.7875673-3.16467.217225-9.37418.320661-9.37418.320661.0299-5.5209813.0631-11.84937926.0996-19.1644855zm-62.773285-.265647c-.18859-.188343 8.25752 8.23236724 8.06893 8.04402424 2.92619 2.91326696 5.36484 5.33778596 5.36484 5.33778596-2.22787-.435486-5.00104-.996693-7.97554-1.612286-2.76696-.572644-5.10416-1.06721-5.10416-1.06721-.10706-3.53869996-.22509-7.104302-.35407-10.7023142zm124.3158242 0c-.11866 3.6085532-.35408 10.7023162-.35408 10.7023162-2.50488.531484-5.5136502 1.156903-8.3624702 1.735399-2.679989.544212-4.717209.944094-4.717209.944094 4.846479-4.819267 9.602229-9.555321 13.4337592-13.3818092zm-74.8406992 2.8294232c.39787 3.78065204.69889 6.641953 1.12416 10.591358.35149 3.264148.61036 5.6175033.61036 5.6175033-3.1768-.209269-9.847435-.961785-9.847435-.961785-.23374-1.2581673-.83858-4.4827353-1.07232-5.7409023-.37374-2.004782-.68913-3.70956-.68913-3.70956 2.97215-2.26565896 6.23544-4.295309 9.874365-5.796614zm25.36645.000913c3.63874 1.50134 6.9018 3.53088904 9.87381 5.796479-.32733 1.808349-.74275 4.047273-1.12247 6.069661-.36222 1.929206-.63885 3.3799563-.63885 3.3799563-3.39412.429825-9.84703.96178-9.84703.96178.52693-4.7710763 1.10511-10.1352393 1.73454-16.2078763zm10.89938 6.595523c2.83265 2.257997 5.4486 4.744438 7.84896 7.119035-3.30358.550119-9.49753 1.3890793-9.49753 1.3890793.52021-2.6557683 1.06973-5.4852793 1.64857-8.5081143zm-47.166905.000739c.59154 3.039822 1.64845 8.5072643 1.64845 8.5072643-1.66512-.205082-3.67235-.481992-5.83353-.8095493-1.99873-.302935-3.66307-.579413-3.66307-.579413 2.40015-2.374383 5.0158-4.86048 7.84815-7.118302zm-38.18167 2.55655c2.79122.613957 6.11666 1.332619 9.231 1.990932 2.93257.619889 5.14022 1.071312 5.14022 1.071312.47059 2.3834693.99127 5.1268703 1.47593 7.8178433.45044 2.500974.76849 4.404458.76849 4.404458-1.33682-.314856-8.44936-2.007595-9.78618-2.322451-3.48387-.827604-6.5282-1.546651-6.5282-1.546651-.0875-3.778937-.18793-7.5817373-.30126-11.4154433zm16.87127 3.573873c3.55091.731852 10.04614 1.9489363 10.04614 1.9489363-1.42274 1.455606-2.62539 2.67715-4.04076 4.096792.0921.09272-6.09743-6.1384463-6.00538-6.0457283zm12.54519 2.3987693c3.8033.683879 10.7518 1.70105 10.7518 1.70105.54678 2.733545 1.43605 7.262326 1.43605 7.262326-1.98409 1.49204-3.88936 3.139929-5.64944 4.794109-1.09248-.223677-3.52037-.768345-3.52037-.768345-.87667-3.889094-1.88268-8.179349-3.01804-12.98914zm11.88105 1.852402c3.37956.457217 9.718145 1.020587 9.718145 1.020587.0348.237603.0736.661244.0736.661244-3.13262 1.222503-5.973775 2.892625-8.564125 4.753557-.38737-2.021403-.79658-4.162051-1.22762-6.435388zm31.218745 1.020524c3.14205-.224694 9.71775-1.020583 9.71775-1.020583-.44435 2.391991-1.22764 6.435378-1.22764 6.435378-2.59025-1.860896-5.43136-3.530319-8.5638-4.752845.0245-.219325.049-.43997.0737-.66195zm10.84562-1.171749c1.88442-.25023 4.12496-.583537 6.58431-.987056 2.26548-.371712 4.1674-.713941 4.1674-.713941-.67535 2.885659-1.26379 5.377884-1.97447 8.442196-.60866 2.62446-1.04358 4.547002-1.04358 4.547002-1.23422.284692-3.51933.768114-3.51933.768114-1.76033-1.654378-3.66586-3.302365-5.65022-4.794559.44924-2.263791.92787-4.677823 1.43589-7.261756zm13.25125-2.150913c1.7386-.3120463 3.87503-.7171013 6.15412-1.1667203 2.11846-.417931 3.89256-.782313 3.89256-.782313-2.03043 2.0618913-6.00539 6.0457303-6.00539 6.0457303-1.41608-1.420347-2.61787-2.640366-4.04129-4.09669zm12.54793-2.4609083c2.44519-.498337 5.45646-1.132808 8.738719-1.839059 3.0435002-.654877 5.6312802-1.222936 5.6312802-1.222936-.0999 3.841732-.30125 11.4154443-.30125 11.4154443-3.0064302.712581-7.2829502 1.726311-10.5892692 2.511331-3.30311.784258-5.72379 1.357456-5.72379 1.357456.65192-3.835413 1.40002-7.888118 2.24431-12.2222363zm-47.90221 6.2074433c.006.819947.0479 8.325182.0536 9.145129.0146 2.761337.024 4.70255.024 4.70255-2.56779-.0037-7.85588-.429844-7.85588-.429844-.11846-1.152987-.60857-5.843107-.72703-6.996093-.26249-2.526781-.49382-4.777821-.49382-4.777821 2.83703-.998355 5.83815-1.586674 8.99912-1.643948v.000027zm1.01255.000003c3.16155.05719 6.16326.645268 9.00078 1.643882-.24012 2.398666-.5322 5.22056-.79337 7.714327-.2476 2.364178-.42759 4.05957-.42759 4.05957-2.696.282189-7.85731.429922-7.85731.429922.0225-3.947786.0483-8.503883.0775-13.847701zm-33.933975-2.712064c.52068 2.175797 1.15231 4.855645 1.70268 7.233511.52611 2.273052.90533 3.96086.90533 3.96086-2.1881-2.206625-6.86357-6.918086-6.86357-6.918086.76878-.769935 3.48678-3.506351 4.25556-4.276285zm66.856595.000522c11.42231 11.482651-7.16711-7.2068683 4.2552 4.275762-2.43404 2.470213-6.86293 6.917432-6.86293 6.917432.77292-3.410836 1.64217-7.11733 2.60773-11.193173zm12.28567-2.1670143c-.70837 3.5468823-1.94937 10.0487683-1.94937 10.0487683-1.45631-1.423427-2.67754-2.625984-4.09787-4.042021-.0939.09323 6.14115-6.0999773 6.04724-6.0067473zm-91.426855.0014c2.04163 2.0290073 6.04579 6.0053153 6.04579 6.0053153-1.42007 1.415773-2.64083 2.617586-4.09686 4.040749-.58176-3.173929-1.2314-6.510004-1.94893-10.0460643zm35.233895 6.8809743c.23757 2.083282.60491 5.320216.84249 7.403498.25991 2.278999.44658 3.914991.44658 3.914991-1.51663-.161391-3.29172-.394248-5.2979-.710891-1.836825-.289911-3.403565-.578607-3.403565-.578607-.29349-1.578124-1.02377-5.344642-1.02377-5.344642 2.5499-1.836679 5.351175-3.482474 8.436165-4.684341zm20.95844-.000068c3.08467 1.201832 5.88611 2.847854 8.43577 4.684339-.37126 1.980717-1.02379 5.344646-1.02379 5.344646-3.10395.56789-8.70115 1.289491-8.70115 1.289491.38218-3.32416.8119-7.062622 1.28917-11.318476zm-48.932505.329607c2.39422 2.376569 6.9188 6.864162 6.9188 6.864162-1.86248-.416636-4.18691-.953692-6.75593-1.557475-2.38191-.559809-4.43914-1.050634-4.43914-1.050634 50.880525-50.609917-46.60426 46.353872 4.27627-4.256053zm76.905745.000003c.7247.723575 3.55157 3.532477 4.27627 4.256052-2.16293.517615-4.84492 1.149765-7.22553 1.700782-2.2764.526895-3.96955.907328-3.96955.907328-.16473.163344 7.08354-7.027506 6.91881-6.864162zm-18.6288 5.027726c1.45686 1.09952 2.85999 2.277903 4.1862 3.479017-1.76243.37616-5.07298 1.001635-5.07298 1.001635.28056-1.424045.57615-2.915198.88678-4.480652zm-39.648915.000429c.33378 1.638204.88668 4.480063.88668 4.480063-1.60752-.288151-5.0721-1.001474-5.0721-1.001474 1.32599-1.200919 2.72881-2.379224 4.18542-3.478589zm-41.61076-3.957565c2.90138.680569 7.0118 1.645348 10.19384 2.394859s5.51103 1.298244 5.51103 1.298244c-2.7373 2.694006-5.69523 5.667234-8.32334 8.914225-2.16574-.402837-7.16635-1.348369-7.16635-1.348369-.0588-3.734599-.13055-7.485238-.21518-11.258959zm18.12166 4.263992c2.55728.608783 5.70997 1.350537 8.44354 1.981974 2.62389.606098 4.54523 1.035908 4.54523 1.035908.28916 1.254331.76846 3.520829.76846 3.520829-1.65424 1.760101-3.30167 3.665031-4.79374 5.649125-1.10639-.215391-2.88929-.568876-4.42069-.872549-1.53881-.305142-2.84175-.563466-2.84175-.563466-.46495-3.401785-1.03197-6.962473-1.70105-10.751821zm18.22155 4.168836c2.27945.496151 6.40733 1.292187 6.40733 1.292187.3137 1.577425.68155 3.472427 1.0027 5.176309.30496 1.617951.5197 2.813028.5197 2.813028-.19788.183398-.39503.367605-.58818.555837.69224.699307-5.8382-5.896277-5.14595-5.19697-1.83537-1.852973-3.42395-3.45599-3.42395-3.45599.40407-.399041.81472-.794085 1.22835-1.184401zm7.44645 1.483999c3.096085.572293 8.604705 1.293409 8.604705 1.293409.0508.379563.12374 1.077538.12374 1.077538-2.74474 1.162513-5.24117 2.804356-7.417205 4.684809-.3871-2.156114-.82418-4.492513-1.31124-7.055756zm26.687905 1.293329c1.50228-.162897 3.25483-.396777 5.23806-.714115 1.81573-.290534 3.36633-.579288 3.36633-.579288-.48088 2.572627-1.31133 7.056193-1.31133 7.056193-2.17592-1.88049-4.67223-3.522203-7.41686-4.68475.0406-.354303.0819-.7136.1238-1.07804zm9.64225-1.48498c2.02172-.369104 6.40817-1.292346 6.40817-1.292346.41362.390311.82431.785361 1.22837 1.184397-1.53425 1.55577-3.87747 3.920879-5.56154 5.619708-1.74057 1.755823-3.00838 3.033256-3.00838 3.033256-.19336-.18848-.39074-.372943-.58884-.556559.43993-2.4171.94733-5.057123 1.52222-7.988456zm11.64149-2.443422c2.15316-.480014 4.7873-1.087396 7.79531-1.792663 2.77075-.649637 5.19425-1.22541 5.19425-1.22541-.65809 3.797212-1.70097 10.751859-1.70097 10.751859-2.70908.541954-7.26384 1.436287-7.26384 1.436287-1.49196-1.983949-3.1392-3.888767-4.79331-5.648758.2431-1.138271.49929-2.310813.76856-3.521315zm15.40503-3.588648c1.77255-.415262 7.67081-1.809057 9.443359-2.224319 3.34864-.788177 6.2615102-1.468783 6.2615102-1.468783-.0685 3.78077-.21519 11.258958-.21519 11.258958-2.57717.489876-7.1663302 1.348366-7.1663302 1.348366-2.628119-3.247005-5.586019-6.220209-8.323349-8.914222zm-46.15237 8.052853c.0143 1.911957.0291 4.541228.0393 6.507388.0102 1.96154.0161 3.346801.0161 3.346801-1.22355-.003-2.61673-.04743-4.16388-.154304-1.41422-.09769-2.60284-.225566-2.60284-.225566-.12136-1.280744-.28621-2.917921-.47634-4.754124-.17673-1.706593-.33718-3.220584-.33718-3.220584 2.344-.908563 4.85973-1.447952 7.52482-1.499631v.00002zm.84258.000004c2.6656.05161 5.18177.591245 7.52616 1.500043-.19269 1.884977-.3429 3.322906-.5356 5.207884-.16345 1.603654-.27793 2.766341-.27793 2.766341-2.35931.247687-6.76796.379934-6.76796.379934.0151-2.81632.0336-6.0413.0553-9.854202zm-45.143615-6.567378c.55359 3.324382 1.3896 9.499593 1.3896 9.499593-.83973-.161636-4.34417-.843846-5.1839-1.005482-1.80279-.349619-3.32722-.643646-3.32722-.643646 2.25859-2.833209 4.74638-5.449738 7.12152-7.850465zm89.446445.0012c2.3748 2.400397 4.86218 5.016482 7.12042 7.849257-3.00883.585583-8.5097 1.648855-8.5097 1.648855.38777-3.036849.85086-6.188075 1.38928-9.498112zm-53.49303 8.401704c.17401 1.489241.38466 3.345574.55843 4.922206.16778 1.522333.284 2.632179.284 2.632179-1.33768-.143913-2.91027-.348735-4.74084-.6288-1.67243-.255876-3.137655-.510778-3.137655-.510778-.0807-.518532-.28571-1.652227-.28571-1.652227 2.129495-1.920026 4.599795-3.587762 7.321775-4.76258zm17.53922-.00008c2.7219 1.174868 5.19199 2.843006 7.32138 4.76301-.0942.580086-.28564 1.651811-.28564 1.651811-2.89538.500509-7.87823 1.139575-7.87823 1.139575.2395-2.248218.52033-4.738501.84249-7.554396zm-35.765745-3.289226c-.0347-.03443 5.65578 5.602527 5.62103 5.568092 1.75524 1.738084 3.03195 3.001812 3.03195 3.001812-.18825.193226-.37242.390231-.55583.588194-1.32336-.236577-2.96647-.544893-4.80657-.900285-1.70205-.328729-3.18278-.622098-3.18278-.622098-.36589-2.004507-1.29211-6.406868-1.29211-6.406868.39045-.413907.78508-.824532 1.18431-1.228847zm53.991585-.000002c.3989.404054.79326.814495 1.18346 1.228114-.47583 2.27515-1.29231 6.407805-1.29231 6.407805-1.5669.31164-3.46291.679713-5.16888 1.001275-1.62034.305422-2.81945.520908-2.81945.520908-.1834-.197962-.3676-.394976-.55583-.588193-.83532.826884 9.48832-9.396794 8.65301-8.569909zm-56.173005 2.311315c.37988 1.78031 1.00129 5.071212 1.00129 5.071212-1.34737-.257658-4.479-.886452-4.479-.886452 1.09898-1.456431 2.27718-2.858881 3.47771-4.18476zm58.354745.000783c1.20025 1.325698 2.37803 2.727862 3.47677 4.18406-1.6156.329293-4.47787.886227-4.47787.886227.30006-1.617195.63376-3.302221 1.0011-5.070287zm-90.378815-.09939c2.28518.418938 6.32509 1.142688 6.32509 1.142688-2.33385 3.016723-4.41578 6.333892-5.96102 10.035547-.0589.0039-.23497-.02413-.23497-.02413-.0301-3.707478-.0731-7.42317-.1291-11.154117zm8.55652 1.551343c1.75666.327719 4.31686.802198 6.07352 1.129916 1.93.359986 3.38085.632163 3.38085.632163.43208 3.412273.96183 9.846847.96183 9.846847 6.98914.759378-16.65449-1.803478-9.66534-1.0441-3.47506-.370561-6.54689-.690717-6.54689-.690717 1.50123-3.638836 3.53038-6.902023 5.79603-9.874109zm11.18326 2.08921c2.3942.463134 6.43489 1.227465 6.43489 1.227465-1.86096 2.590368-3.53064 5.431278-4.75311 8.563916-.20326-.01443-.66125-.0736-.66125-.0736-.23813-3.134634-.57831-6.350643-1.02053-9.717781zm8.13329 1.553113c1.98307.389082 5.3436 1.023525 5.3436 1.023525.57087 3.120601 1.28945 8.701204 1.28945 8.701204-1.04059-.117361-5.69691-.651274-6.7375-.768631-2.42604-.276834-4.57858-.520139-4.57858-.520139 1.20152-3.084899 2.84678-5.88599 4.68303-8.435959zm6.63211 1.268877c2.5753.497309 7.05533 1.311115 7.05533 1.311115-1.87995 2.176081-3.52119 4.672602-4.68342 7.417137-.33914-.032-1.07855-.123853-1.07855-.123853-.30179-2.69059-.73291-5.519268-1.29336-8.604399zm8.42686 1.554801c.58305.110174 1.65263.285778 1.65263.285778.50315 2.910891 1.13954 7.878224 1.13954 7.878224-1.22143-.126643-2.78016-.298095-4.5166-.494625-1.61468-.182748-3.03873-.347905-3.03873-.347905 1.17489-2.721995 2.84316-5.192025 4.76316-7.321472zm3.30216.560365c2.620355.433926 7.139435.993478 7.139435.993478.0696.604826.17391 1.702526.17391 1.702526-.95123.581987-1.83602 1.2645-2.63669 2.029139-.73676-.744252-3.9399-3.980891-4.676655-4.725143zm22.795345.993409c1.22242-.128526 2.6595-.309809 4.31215-.552544 1.51257-.222161 2.82664-.44086 2.82664-.44086-1.82335 1.85609-4.67665 4.725138-4.67665 4.725138-.80051-.764492-1.68507-1.446939-2.63609-2.028848.055-.552217.11301-1.119313.17395-1.702886zm8.78752-1.267861c.53519-.08355 1.65343-.285913 1.65343-.285913 1.92 2.129447 3.5883 4.599477 4.76317 7.321472-1.47975.172931-3.33822.383835-4.91715.557865-1.5251.1681-2.63896.284748-2.63896.284748.26589-2.400952.64572-4.97699 1.13951-7.878172zm3.02496-.529597c1.17523-.206829 2.66134-.479887 4.2677-.781857 1.49808-.281613 2.78661-.529065 2.78661-.529065-.55186 3.092049-1.29336 8.604326-1.29336 8.604326-.35966.04853-1.07802.123791-1.07802.123791-1.16212-2.744555-2.80303-5.241077-4.68293-7.417195zm8.34438-1.556571c1.60011-.297659 5.34247-1.023309 5.34247-1.023309 1.83614 2.549951 3.48155 5.351055 4.68294 8.435924-2.03791.232421-5.35443.608769-7.39234.841191-2.28163.260195-3.92251.447434-3.92251.447434.30088-2.729212.73069-5.591581 1.28944-8.70124zm7.04148-1.349071c1.92074-.360107 6.43629-1.22773 6.43629-1.22773-.42979 3.374259-1.02049 9.717885-1.02049 9.717885-.21003.03174-.6627.07376-.6627.07376-1.22247-3.132638-2.89214-5.973547-4.7531-8.563915zm8.16519-1.554862c1.2796-.237747 4.47435-.836941 5.75395-1.074687 2.00191-.373176 3.69901-.687126 3.69901-.687126 2.265639 2.972088 4.294789 6.235277 5.796019 9.874113-3.77066.396835-6.618339.696326-10.580659 1.122961-3.26927.352009-5.6301.611691-5.6301.611691.22442-3.186151.54501-6.447097.96178-9.846952zm11.684409-2.170471c1.96653-.34964 6.3250502-1.142682 6.3250502-1.142682-.0379 3.738466-.1291 11.154219-.1291 11.154219-.0595.01604-.23495.02413-.23495.02413-1.54526-3.701648-3.6271702-7.018818-5.9610102-10.035546 0-.000036 0-.000072.00001-.000108zm-55.237469 8.88278c.0219 2.952078.0333 7.195999.0333 7.195999-1.09423-.00087-2.34574-.02726-3.74116-.09004-1.27674-.05744-2.36342-.13284-2.36342-.13284-.0535-.87223-.13115-1.935647-.22903-3.118642-.0904-1.092483-.17747-2.035556-.17747-2.035556 1.91827-1.094061 4.115-1.757465 6.47782-1.818922zm.72192.000005c2.36318.06136 4.56055.724621 6.47904 1.81886-.16223 1.875647-.40654 5.154216-.40654 5.154216-2.15449.146705-6.1057.222918-6.1057.222918.008-2.1295.0188-4.468378.0332-7.195994zm15.17058-.885448c-.41862 2.618217-.99366 7.14039-.99366 7.14039-.59088.06814-1.70361.174021-1.70361.174021-.58191-.951212-1.26415-1.836121-2.02873-2.636799.71346-.706304 4.01253-3.971308 4.726-4.677612zm-31.062045.000435c1.734885 1.717043 4.725565 4.67716 4.725565 4.67716-.76459.800682-1.44682 1.685586-2.02874 2.636799-.53025-.04682-1.70323-.173978-1.70323-.173978-.23744-2.188665-.568635-4.528786-.993595-7.139981zm7.975695 3.14036c.14878 1.484317.35804 4.145455.35804 4.145455-.76871-.77573-2.46015-2.483877-2.46015-2.483877.64611-.615209 1.35026-1.172369 2.10211-1.661578zm15.1108.000283c.75166.489139 1.45557 1.046195 2.10152 1.661295-.90085.922021-2.4595 2.48323-2.4595 2.48323.0968-1.298004.21608-2.668274.35798-4.144525zm-17.72134 2.169734c.88418.875421 2.48383 2.460204 2.48383 2.460204-1.29208-.09042-4.14536-.358031-4.14536-.358031.48921-.751856 1.0463-1.456052 1.66153-2.102173zm20.33129.000004c.6152.646117 1.17237 1.350313 1.66153 2.102169-1.47068.14747-4.14536.358035-4.14536.358035.0794-.0787 2.40442-2.381513 2.48383-2.460204zm-69.066125-1.859086c3.93085.375613 6.8651.655739 10.95453 1.055869 3.36815.329552 5.78863.571735 5.78863.571735.21828 3.181016.32065 9.372332.32065 9.372332-.73743-.003-10.60019-.05365-11.33762-.05654-4.1257-.02235-7.8304-.04326-7.8304-.04326.0733-3.81599.82194-7.458363 2.10421-10.900123zm20.52934 2.010786c2.68805.278852 5.02516.519944 7.71321.798796 2.36688.245839 4.05827.421786 4.05827.421786.28358 2.710022.42986 7.856103.42986 7.856103-.48124-.0017-7.67127-.04139-8.15251-.0433-2.98457-.01752-5.69198-.03435-5.69198-.03435.0572-3.160904.64503-6.162003 1.64315-8.999068zm15.00328 1.559087c1.57659.168391 3.55505.373734 5.20907.540539 1.60364.161726 2.76612.273026 2.76612.273026.24892 2.371582.37989 6.766916.37989 6.766916-1.42706-.0047-3.62056-.01674-5.80036-.02987-2.12151-.01278-4.05437-.02557-4.05437-.02557.0516-2.665165.59104-5.181029 1.49965-7.525041zm11.103905 1.107391c1.87688.174426 5.15442.40653 5.15442.40653.14743 2.1657.22289 6.104786.22289 6.104786-1.10086-.0013-2.68382-.008-4.27956-.01635-1.53584-.0081-2.91627-.01691-2.91627-.01691.0614-2.362856.72454-4.559782 1.81852-6.478051zm19.37408.406495c.8776-.0539 1.94222-.131678 3.12326-.229421 1.09102-.0903 2.03057-.177074 2.03057-.177074 1.09388 1.918273 1.75678 4.115225 1.81815 6.478055-2.9392.02178-7.19488.03326-7.19488.03326.007-1.968074.0817-3.945704.2229-6.104816zm8.28177-.700247c1.28793-.122057 2.9275-.287179 4.76146-.477096 1.7051-.176569 3.2145-.336539 3.2145-.336539.90862 2.344008 1.44802 4.859873 1.49965 7.525037-1.90205.01426-4.53308.02909-6.50199.0393-1.96437.01017-3.3535.01613-3.3535.01613.0127-2.197247.13929-4.402834.37988-6.766846zm11.20831-1.1522c1.16097-.119296 5.84235-.608474 7.00332-.727769 2.52353-.262131 4.76693-.492687 4.76693-.492687.99804 2.837043 1.58594 5.838124 1.64313 8.999002-.81573.0057-8.31744.04786-9.13317.05356-2.76415.01461-4.71007.02404-4.71007.02404.0143-2.574326.15762-5.154995.42986-7.856155zm15.55859-1.603856c-7.1673.7079 17.1468592-1.687626 9.97956-.979726 3.587869-.347509 6.7621392-.64773 6.7621392-.64773 1.28225 3.44176 2.03083 7.084133 2.10419 10.900123-1.20955.0077-11.3894492.06032-12.5989992.06801-3.8422.01904-6.56751.03178-6.56751.03178.0107-3.099221.11757-6.202002.32062-9.372471zm-42.4843 3.713308c.012 1.969508.0109 5.416333.0109 5.416333-1.22408-1.225282-3.8218-3.837242-3.8218-3.837242 1.01987-.918492 2.34658-1.503178 3.81088-1.579091zm.65048 0c1.4645.0758 2.79141.660486 3.81141 1.579091-1.37793 1.397869-3.82231 3.837755-3.82231 3.837755.00083-1.738556.004-3.497512.0109-5.416846zm-4.92183 2.038838c1.36594 1.356974 3.83739 3.822221 3.83739 3.822221-.90395.0022-2.13799.000435-3.31542-.003-1.13441-.0035-2.10043-.008-2.10043-.008.0758-1.4644.66001-2.791326 1.57846-3.811304zm9.19371 0c.91846 1.019978 1.50267 2.346904 1.57847 3.811304-1.95901.01196-5.41586.01091-5.41586.01091 1.23209-1.230965 2.47501-2.468778 3.83739-3.822221zm-65.601545 4.752777c.93205-.0035 11.68034-.05794 12.61239-.06134 3.83746-.02144 6.55563-.03835 6.55563-.03835.004 3.107869-.32057 9.371885-.32057 9.371885-2.62144.267891-6.15221.618091-9.96781.985408-3.59146.345735-6.77541.642018-6.77541.642018-1.28213-3.441586-2.03079-7.083951-2.10423-10.899641zm20.99041-.109574c2.7063-.01065 6.4075-.03161 9.1429-.04806 2.76074-.01661 4.70159-.02943 4.70159-.02943-.004 2.581534-.42977 7.855702-.42977 7.855702-1.74867.186939-4.39856.464774-6.99522.732652-2.52606.260596-4.77627.487796-4.77627.487796-.99817-2.837021-1.58597-5.837807-1.64323-8.998645zm15.14678-.08494c1.89955-.0075 4.59659-.02313 6.50775-.03465 1.96165-.01183 3.34698-.02074 3.34698-.02074-.003 1.228895-.0478 2.623152-.15458 4.168347-.0977 1.4128-.22522 2.598208-.22522 2.598208-1.54545.154665-2.65478.265813-4.75492.481343-1.70653.175139-3.22026.332126-3.22026.332126-.90869-2.343951-1.44804-4.85959-1.49975-7.524667zm10.785025-.06031c2.952-.0093 7.19583-.03322 7.19583-.03322-.00087 1.09903-.0274 2.351512-.0902 3.745212-.0574 1.275491-.13263 2.359234-.13263 2.359234-.92745.06367-1.88138.132709-3.11913.233487-1.09243.08895-2.03527.173-2.03527.173-1.09396-1.918143-1.75714-4.114925-1.8186-6.477716zm7.90716-.0357c1.96939-.0013 5.4161-.01091 5.4161-.01091-1.14667 1.155086-3.83735 3.822177-3.83735 3.822177-.91853-1.019752-1.50288-2.346847-1.57875-3.811277zm6.93453-.01091c.43808.0013 2.88147.0053 3.31955.0068 1.13329.0022 2.09656.0043 2.09656.0043-.0759 1.46443-.66022 2.791521-1.57876 3.811277-1.36236-1.353417-2.60527-2.591216-3.83735-3.822177zm6.12801.01339c.4042.0026 3.87978.01804 4.28398.02052 1.53436.0068 2.9109.0127 2.9109.0127-.0614 2.362769-.72437 4.55956-1.81823 6.477716-1.86172-.160952-5.1538-.406452-5.1538-.406452-.14115-2.158969-.21543-4.136495-.22285-6.104477zm8.12478.03817c1.41238.01052 3.68512.02339 5.80764.03469 2.11998.01131 4.04785.0207 4.04785.0207-.0516 2.665078-.59105 5.180721-1.49974 7.524668-1.85879-.189952-3.34404-.345035-5.20283-.534987-1.60644-.163713-2.77312-.278561-2.77312-.278561-.24055-2.363864-.36715-4.569338-.3798-6.766481zm11.15833.0628c1.98814.01478 5.12.03287 8.16145.04899 2.98189.01578 5.6818.02852 5.6818.02852-.0572 3.160808-.64515 6.161577-1.64321 8.99858-2.38536-.238709-5.20576-.530548-7.70314-.792035-2.36696-.247834-4.06713-.428286-4.06713-.428286-.2722-2.701008-.41545-5.281547-.42977-7.855755zm15.66783.08741c2.81008.01944 7.12149.0427 11.35006.06347 4.121949.02022 7.8164592.03617 7.8164592.03617-.0733 3.81569-.82208 7.458059-2.10421 10.899641-3.4244202-.316579-7.3347492-.692361-10.9411792-1.047765-3.37272-.33237-5.80057-.579513-5.80057-.579513-.20303-3.170308-.30988-6.272942-.32056-9.372024zm-41.52409.242865c1.23428 1.235482 3.82202 3.83746 3.82202 3.83746-1.01998.918269-2.34677 1.502247-3.81112 1.577947-.006-1.918773-.0101-3.677281-.0109-5.415407zm-.62866.000435c.002.9088.00043 2.142878-.003 3.318829-.003 1.133035-.008 2.096069-.008 2.096069-1.46415-.07582-2.79074-.659791-3.8106-1.577951 1.35317-1.362196 2.59076-2.604995 3.8215-3.836947zm-60.757585 12.195297c.0976-.000092.23496-.02413.23496-.02413 1.54548 3.70181 3.62777 7.019035 5.96181 10.035865-1.93232.361874-6.32588 1.142874-6.32588 1.142874.0559-3.731117.099-7.446981.12911-11.154622zm2.63231-.271444c3.3232-.339126 7.10052-.739 10.59267-1.117626 3.26466-.35396 5.61861-.61716 5.61861-.61716-.21051 3.193816-.96192 9.847335-.96192 9.847335-1.52984.293539-3.6501.691773-5.74333 1.079682-2.00514.371578-3.71018.6823-3.71018.6823-2.26584-2.97223-4.29438-6.235577-5.79585-9.874531zm17.99886-1.93286c.23658-.01796.66198-.07368.66198-.07368 1.2227 3.132651 2.893 5.973818 4.75411 8.564096-1.89746.371561-6.4367 1.227852-6.4367 1.227852.44226-3.367317.78247-6.583488 1.02061-9.71827zm2.43042-.271378c2.29142-.252592 5.00303-.560961 7.40081-.836544 2.27556-.261534 3.91457-.452195 3.91457-.452195-.16214 1.52333-.39549 3.300177-.71185 5.303951-.28973 1.835128-.5777 3.397728-.5777 3.397728-1.58052.309134-5.34179 1.023208-5.34179 1.023208-1.83641-2.549847-3.48228-5.35128-4.68404-8.436148zm12.6078-1.437296c.37869-.0363 1.07956-.123969 1.07956-.123969 1.1625 2.744786 2.8041 5.241246 4.68448 7.417301-1.39105.254686-2.43212.445021-4.26352.78696-1.50046.280148-2.79399.524583-2.79399.524583.5605-3.085315.99166-5.914149 1.29347-8.604875zm2.37181-.272047c2.07884-.232731 2.84246-.320705 4.9213-.553435 1.52245-.169517 2.63257-.288961 2.63257-.288961-.14457 1.343508-.34984 2.917952-.62966 4.746351-.25572 1.670995-.50997 3.132337-.50997 3.132337-.52077.09589-1.65055.285417-1.65055.285417-1.92026-2.129432-3.5885-4.59968-4.76369-7.321709zm8.493725-.941552c.60392-.05663 1.7036-.174022 1.7036-.174022.58184.951078 1.26398 1.835639 2.02844 2.636186-1.29267 1.290243-4.725525 4.677103-4.725525 4.677103.42491-2.610908.756065-4.950803.993485-7.139267zm2.71073-.272644c1.48258-.136387 4.14407-.35793 4.14407-.35793-.73313.736874-2.4828 2.459164-2.4828 2.459164-.61505-.645795-1.17216-1.349725-1.66127-2.101234zm5.39392-.445513c2.16488-.135704 6.1046-.222882 6.1046-.222882-.001 1.106187-.008 2.689443-.0163 4.28319-.008 1.534052-.0169 2.910286-.0169 2.910286-2.36264-.06141-4.5595-.724095-6.47775-1.817747.16761-1.868413.30308-3.563921.4064-5.152847zm6.76006-.222634c1.12044.0075 2.331.03239 3.74615.09456 1.27577.05604 2.35957.128365 2.35957.128365.0639.931778.13328 1.888256.23384 3.122873.0888 1.090647.17255 2.029643.17255 2.029643-1.91853 1.093939-4.11579 1.756712-6.47892 1.818034-.0144-2.726543-.0254-5.064634-.0332-7.193476zm7.35498.310465c1.30455.103135 4.14408.357935 4.14408.357935-.48909.751508-1.04626 1.455438-1.66128 2.101234.11162.110517-2.59442-2.569686-2.4828-2.459169zm5.1512.456556c.54639.06047 1.70397.174061 1.70397.174061.14014 1.253126.31322 2.631099.55831 4.313499.22035 1.512569.43525 2.826177.43525 2.826177-1.71718-1.699521-4.72597-4.677551-4.72597-4.677551.76446-.800547 1.4466-1.685108 2.02844-2.636186zm2.64267.273096c1.46266.159922 2.55629.279687 4.5234.500421 1.61257.180948 3.03126.342057 3.03126.342057-1.17519 2.722029-2.84344 5.192277-4.7637 7.321709-.56382-.0913-1.65134-.285552-1.65134-.285552-.49383-2.901371-.8737-5.477558-1.13962-7.878635zm8.84691.990556c.36099.04837 1.07853.123852 1.07853.123852.17802 1.535943.40209 3.224195.7218 5.239577.288 1.81552.57167 3.365219.57167 3.365219-2.55236-.477008-7.0565-1.311347-7.0565-1.311347 1.8803-2.176046 3.5221-4.672515 4.6845-7.417301zm2.37252.272591c1.69581.198622 4.26123.493744 6.74621.77547 2.42295.274691 4.56795.513126 4.56795.513126-1.20166 3.084899-2.847 5.886318-4.68334 8.436226-1.95745-.366765-5.34127-1.023108-5.34127-1.023108-.5588-3.109841-.98865-5.972367-1.28955-8.701714zm13.08331 1.486374c.2334.03426.6634.07384.6634.07384.25296 3.145434 1.02058 9.718426 1.02058 9.718426-2.36766-.439704-6.43812-1.228121-6.43812-1.228121 1.86113-2.590274 3.53143-5.431445 4.75414-8.564097 0-.000013 0-.00003 0-.000048zm2.451.271913c2.56349.28763 5.98902.66126 9.67697 1.052286 3.470929.368018 6.532829.682335 6.532829.682335-1.50147 3.638967-3.52999 6.902301-5.795849 9.874531-3.55679-.643687-9.45208-1.761709-9.45208-1.761709-.41681-3.400038-.73743-6.661144-.96187-9.847443zm18.6071692 1.981951c.0974.01991.23494.02413.23494.02413.0494 3.720285.12911 11.154622.12911 11.154622-2.25029-.392126-6.3258602-1.142869-6.3258602-1.142869 2.33403-3.01683 4.4163302-6.33406 5.9618102-10.035866zm-68.0342692-5.24892c-.0913 1.30376-.35793 4.144382-.35793 4.144382-.75172-.488996-1.45581-1.045887-2.10184-1.660891-.11317.114304 2.57294-2.597799 2.45977-2.483491zm14.39473.000435c.78114.788273 2.45913 2.482834 2.45913 2.482834-.64585.614887-1.34974 1.171695-2.10126 1.660613-.14185-1.475839-.26114-2.845761-.35787-4.143447zm-17.48806 3.122799c.80066.764656 1.6855 1.446834 2.63672 2.028769-.0483.54503-.17405 1.703987-.17405 1.703987-1.24786.139569-2.62364.312173-4.30877.557599-1.51426.220544-2.831885.43609-2.831885.43609 22.606335-22.84124-17.92835 18.1148 4.677985-4.726445zm20.58076 0c1.29343 1.306578 4.67797 4.726445 4.67797 4.726445-2.60291-.41612-7.14-.99362-7.14-.99362-.0552-.589848-.1741-1.704352-.1741-1.704352.95101-.581856 1.83562-1.263969 2.63613-2.028473zm-71.510785 14.547899c2.61063-.475395 7.16642-1.348326 7.16642-1.348326 2.62832 3.24746 5.5844 6.220064 8.32213 8.914472-2.37374.56592-6.02189 1.42889-9.43198 2.22906-3.35101.7863-6.27174 1.46373-6.27174 1.46373.0846-3.77371.15636-7.524341.21517-11.258936zm9.37551-1.769934c3.19388-.601639 8.51199-1.649226 8.51199-1.649226-.3751 3.044617-1.3897 9.500486-1.3897 9.500486-2.37524-2.400909-4.86359-5.017757-7.12229-7.85126zm10.23218-1.986795c2.73107-.527609 7.26247-1.43597 7.26247-1.43597 1.49214 1.984135 3.13946 3.888952 4.79381 5.649012-.22794 1.112504-.76842 3.520743-.76842 3.520743-2.36352.538652-4.55905 1.043952-7.78751 1.79809-2.7724.6476-5.20133 1.2198-5.20133 1.2198.66905-3.789294 1.23604-7.349933 1.70098-10.751675zm8.95861-1.772561c1.63462-.315635 4.47843-.886304 4.47843-.886304-.29123 1.624173-1.00124 5.071094-1.00124 5.071094-1.20052-1.325778-2.37823-2.728442-3.47719-4.18479zm5.76636-1.139487c1.77149-.342521 3.27552-.636121 5.17545-.996573 1.61845-.307052 2.8143-.525831 2.8143-.525831.18349.198013.36743.395318.55575.588587-1.27808 1.271813-3.33538 3.309182-5.19831 5.152721-1.85262 1.833321-3.45453 3.417003-3.45453 3.417003-.39934-.404417-.79412-.815191-1.18471-1.229191.48379-2.267051.91448-4.392238 1.29205-6.406716zm11.08262-2.068308c2.908315-.487295 7.878415-1.139537 7.878415-1.139537-.1274 1.228459-.2991 2.789202-.49535 4.523054-.18255 1.612839-.34715 3.032012-.34715 3.032012-2.72198-1.174778-5.19227-2.842469-7.321755-4.762516.0989-.56317.19422-1.113865.28584-1.653013zm8.672285-1.223928c2.37001-.233631 6.76663-.379857 6.76663-.379857-.005 1.434637-.0168 3.629328-.0299 5.807271-.0128 2.119843-.0255 4.047586-.0255 4.047586-2.66507-.05171-5.18079-.591074-7.52478-1.499604.31283-2.993147.58402-5.619029.81358-7.975396zm7.49845-.379861c1.24711.01143 2.60609.05429 4.16949.160309 1.41308.09583 2.59837.219617 2.59837.219617.15481 1.546894.26736 2.669415.4821 4.761406.17499 1.704704.33149 3.213503.33149 3.213503-2.34438.90877-4.86053 1.448426-7.52612 1.500022-.0218-3.813204-.0402-7.038385-.0553-9.854857zm7.56174.464322c1.37204.156263 2.89105.353537 4.7469.635459 1.67068.253795 3.13125.504073 3.13125.504073.0988.537692.28578 1.652596.28578 1.652596-2.1294 1.920021-4.59948 3.588116-7.32137 4.762951-.32219-2.816187-.60305-5.306686-.84256-7.555079zm10.97062 1.685367c1.46663.27163 2.84356.52933 4.81449.907752 1.69956.326317 3.17426.614456 3.17426.614456.38947 2.025569 1.29224 6.407642 1.29224 6.407642-.39036.413748-.7848.824296-1.18388 1.228465.0462.04577-5.65917-5.605851-5.61298-5.560081-1.75832-1.74113-3.03988-3.009643-3.03988-3.009643.18833-.193274.37228-.390574.55575-.588591zm9.27824 1.775695c1.37261.278226 4.47787.886196 4.47787.886196-1.09875 1.456178-2.27643 2.858803-3.47673 4.184442-.36736-1.768195-.70108-3.453334-1.00114-5.070638zm6.17403 1.222791c2.13499.4316 7.26388 1.436243 7.26388 1.436243.27609 1.96437.58454 4.050752.99689 6.586573.36826 2.264756.704 4.165129.704 4.165129-12.34521-2.888964 3.91116.91645-8.43405-1.972516-2.62782-.609453-4.55558-1.045552-4.55558-1.045552-.2635-1.230283-.76852-3.521235-.76852-3.521235 1.65422-1.759938 3.30135-3.664647 4.79338-5.648642zm8.98408 1.773813c2.50915.499878 8.51057 1.648952 8.51057 1.648952-2.25836 2.833064-4.74628 5.449473-7.12119 7.85005-.53847-3.31036-1.0016-6.461877-1.38938-9.499002zm10.719679 2.07056c2.20156.427948 7.1663902 1.348322 7.1663902 1.348322.077 3.748716.21518 11.259.21518 11.259-3.1502402-.72799-6.7730002-1.57902-10.1813492-2.3845-3.18306-.75224-5.52236-1.30829-5.52236-1.30829 2.73772-2.694407 5.69381-5.667019 8.322139-8.914471zm-71.804294-5.66232c.19309.188148.39002.372161.58785.555465-.23798 1.331021-.54678 2.976334-.90163 4.813534-.32836 1.700004-.62072 3.17556-.62072 3.17556-2.00847.386282-6.4068 1.292082-6.4068 1.292082-.41375-.390339-.82432-.784765-1.22847-1.183861.61025-.615808 7.95952-8.036972 8.56977-8.65278zm35.500575-.000004c-.68011-.687048 5.83432 5.892307 5.1542 5.205259 1.833 1.850574 3.41558 3.447525 3.41558 3.447525-.40414.399092-.81474.793522-1.22848 1.183861-2.25615-.471761-6.40765-1.292243-6.40765-1.292243-.34093-1.763382-.63383-3.263486-.99518-5.167934-.30753-1.620825-.52705-2.820716-.52705-2.820716.19801-.183483.39531-.367431.58858-.555752zm-1.41547 1.29686c.25515 1.393782.44771 2.44653.78814 4.26979.27972 1.498074.52313 2.786174.52313 2.786174-3.07554-.548874-8.60428-1.293404-8.60428-1.293404-.034-.358226-.12385-1.078448-.12385-1.078448 2.74466-1.162304 5.24087-2.803769 7.41686-4.68406zm-32.669305.000365c2.176125 1.880269 4.672415 3.52183 7.417205 4.684112-.0343.359174-.12379 1.078-.12379 1.078-1.52967.177322-3.21551.400796-5.2336.720839-1.817185.288178-3.370995.572574-3.370995.572574.48704-2.563156.9241-4.899477 1.31118-7.055525zm-45.12981 18.232961c3.29657-.77036 7.06937-1.66551 10.59968-2.5064 3.29929-.78586 5.71452-1.36269 5.71452-1.36269-.35292 2.11686-.80742 4.67079-1.33129 7.46485-.48388 2.58085-.91307 4.757007-.91307 4.757007-2.6814.55987-5.1999 1.08872-8.73049 1.84515-3.04583.65256-5.6406 1.217-5.6406 1.217.11333-3.833527.21374-7.636157.30125-11.414917zm18.73623-4.44372c10.3363-2.42372-3.10597.7292 7.23034-1.69452 2.27311-.52857 3.96179-.91291 3.96179-.91291-2.14941 2.14704-6.91684 6.86219-6.91684 6.86219-.7486-.74743-3.52669-3.50733-4.27529-4.25476zm13.39677-3.102599c1.25059-.268035 3.52328-.768961 3.52328-.768961 1.75948 1.65324 3.6641 3.2995 5.64736 4.79067-.41526 2.13252-1.43678 7.26606-1.43678 7.26606-1.95674.27508-4.03975.58285-6.57934.99577-2.26699.36859-4.17249.70523-4.17249.70523 1.13532-4.80963 2.14131-9.09977 3.01797-12.988769zm5.32359-1.148356c1.77505-.3588 5.06931-1.000887 5.06931-1.000887-.26192 1.369022-.88602 4.476672-.88602 4.476672-1.45572-1.09847-2.85803-2.275803-4.18329-3.475785zm6.11628-1.192118c3.116735-.549882 8.701555-1.289491 8.701555-1.289491-.11816 1.047635-.6514 5.697964-.76957 6.745594-.2765 2.42314-.519 4.56846-.519 4.56846-3.08484-1.20144-5.886245-2.84716-8.436105-4.68334.36132-1.88358.70236-3.659979 1.02312-5.341223zm9.606345-1.384986c2.70777-.262457 7.856-.429844 7.856-.429844-.002.483535-.0414 7.677393-.0433 8.160933-.0175 2.98169-.0343 5.6814-.0343 5.6814-3.16087-.0572-6.16179-.64498-8.99881-1.64306.45316-4.44628.85996-8.331125 1.2204-11.769429zm8.71347-.429848c2.58221.02491 7.85744.429922 7.85744.429922.18815 1.75993.46591 4.408585.7336 7.002985.26033 2.52299.48682 4.76575.48682 4.76575-2.8375.99835-5.83891 1.58653-9.0004 1.6437-.0291-5.34149-.055-9.895866-.0775-13.842357zm8.76223.525426c1.5581.177709 3.26805.400996 5.30499.719713 1.83474.287083 3.39625.569769 3.39625.569769.31343 1.602935 1.02312 5.341219 1.02312 5.341219-2.54975 1.83615-5.35112 3.48117-8.43578 4.68264-.47703-4.25371-.90656-7.990507-1.28858-11.313341zm9.74693 1.480478c1.62802.312174 5.07018 1.001048 5.07018 1.001048-1.32549 1.200182-2.72811 2.377575-4.18407 3.476225-.31039-1.56422-.60576-3.054251-.88611-4.477273zm6.8705 1.380448c1.11767.248352 3.52223.76873 3.52223.76873.54008 2.369835 1.04763 4.574705 1.80023 7.796435.64706 2.76994 1.21775 5.19238 1.21775 5.19238-3.7769-.6545-10.75174-1.70094-10.75174-1.70094-.52288-2.70698-1.4365-7.26488-1.4365-7.26488 1.98353-1.49133 3.88832-3.13829 5.64803-4.791725zm5.72791 1.264125c2.12486.48762 3.94973.90821 6.76468 1.56691 2.37811.55648 4.42745 1.04052 4.42745 1.04052-14.24512 14.169817 9.96984-9.915063-4.2753 4.25476-.15373-.1526-6.76309-6.70959-6.91683-6.86219zm13.61547 3.18237c2.3628.56604 6.36391 1.51939 9.797199 2.33255 3.47986.8242 6.5156802 1.53622 6.5156802 1.53622.10389 3.79344.30124 11.414937.30124 11.414937-3.02937-.65434-5.8491802-1.26501-9.2194192-1.98036-2.93589-.62315-5.15046-1.08155-5.15046-1.08155-.84425-4.333947-1.59233-8.386517-2.24424-12.221797zm-75.971435-2.46907c-.41881 1.872-.95657 4.19913-1.55949 6.76436-.55921 2.37923-1.04851 4.42996-1.04851 4.42996-10.02605-10.07899 5.77047 5.802747-4.25557-4.27625.1511-.15222 6.71246-6.76584 6.86357-6.91807zm61.640685.00087c2.21349 2.23221 6.86292 6.91741 6.86292 6.91741-.75666.7578-3.49854 3.5179-4.25521 4.27569-.96556-4.07582-1.8348-7.78228-2.60771-11.1931zm12.94405 3.31143c.35541 1.89972.69885 3.72093 1.17603 6.15744.41481 2.11805.77332 3.89128.77332 3.89128-2.01374-2.00128-6.04724-6.00673-6.04724-6.00673 1.42097-1.41668 2.64094-2.61792 4.09789-4.04199zm-87.528325.00087c1.45643 1.42355 2.67632 2.62507 4.09678 4.04124-1.97549 1.97883-6.04579 6.0053-6.04579 6.0053.71755-3.53624 1.36723-6.87247 1.94901-10.04654zm63.003875.176c.37673 1.9243 1.22836 6.43917 1.22836 6.43917-3.35622-.42745-9.71781-1.02055-9.71781-1.02055-.0149-.20973-.0741-.66552-.0741-.66552 3.13239-1.2223 5.97332-2.89253 8.56354-4.7531zm-38.480235.00043c2.59033 1.86062 5.431455 3.53094 8.563985 4.7532-.0177.23256-.074.66481-.074.66481-3.12856.25167-9.718215 1.02056-9.718215 1.02056.43127-2.27453.84068-4.41623 1.22823-6.43857zm-19.64883 4.6427c1.41658 1.42084 2.61811 2.64091 4.04207 4.09774-1.89212.35405-3.70717.6962-6.14916 1.17443-2.12062.41529-3.89971.77499-3.89971.77499.0858-.0864 5.92097-5.96079 6.0068-6.04716zm77.777585 0c1.9921 2.00648 6.00682 6.04716 6.00682 6.04716-3.52372-.70368-10.04888-1.94942-10.04888-1.94942 1.42397-1.45686 2.62545-2.67686 4.04206-4.09774zm-100.692585 10.899457c2.76976-.57553 5.27401-1.09725 8.37157-1.72921 2.67694-.54615 4.70959-.95072 4.70959-.95072-1.09083 1.08897-7.68455 7.65339-8.77539 8.74235-2.77582 2.76394-4.65988 4.64093-4.65988 4.64093.129-3.59836.24703-7.16431.35411-10.70335zm15.57931-3.17096c2.49671-.47979 5.00785-.95747 7.8153-1.466317 2.50154-.4534 4.40653-.77795 4.40653-.77795-.31669 1.344497-2.00825 8.451797-2.32494 9.796297-.82679 3.48036-1.54386 6.51621-1.54386 6.51621-3.77321.10348-11.41501.30144-11.41501.30144 1.12273-5.15036 2.14339-9.91699 3.06198-14.36968zm14.79139-2.671827c3.3176-.52686 9.49806-1.3893 9.49806-1.3893-.51396 2.66952-1.64887 8.509417-1.64887 8.509417-2.83261-2.25803-5.4489-4.74559-7.84919-7.120117zm10.63776-1.53194c3.40711-.40392 9.847285-.96186 9.847285-.96186-.31559 2.90425-.61568 5.647407-1.04537 9.676927-.37015 3.47121-.6893 6.53328-.6893 6.53328-3.638975-1.50133-6.902225-3.53001-9.874465-5.79571.62148-3.38152 1.20876-6.52361 1.76185-9.452637zm10.906445-1.03309c3.17806-.18902 9.37229-.32063 9.37229-.32063-.003.74039-.0537 10.609257-.0566 11.349647-.0223 4.12179-.0432 7.81615-.0432 7.81615-3.81594-.0733-7.45822-.82183-10.89997-2.10406.59173-6.29399 1.13422-11.83244 1.62746-16.741107zm10.40464-.32063c3.10872.0255 9.37399.32068 9.37399.32068.2694 2.63589.61972 6.167507.98669 9.978877.34541 3.58735.64081 6.76122.64081 6.76122-3.44231 1.28257-7.08522 2.03169-10.90188 2.10502-.0365-7.3157-.0697-13.64452-.0996-19.165797zm10.43315.39192c3.19689.23968 9.84688.96185 9.84688.96185.29621 1.54393.69446 3.664367 1.08168 5.753887.37087 2.00134.68004 3.69789.68004 3.69789-2.97209 2.26567-6.23512 4.29423-9.87391 5.79557-.6295-6.0732-1.20773-11.4378-1.73469-16.209197zm10.98519 1.10432c3.04965.40307 9.49901 1.38943 9.49901 1.38943-2.40052 2.374747-5.0171 4.862617-7.85003 7.120827-.57899-3.02365-1.12865-5.853867-1.64898-8.510257zm12.06909 1.81707c2.2405.38815 4.55358.79785 7.46735 1.340607 2.58009.4806 4.75515.90381 4.75515.90381.56148 2.68924 1.09216 5.21595 1.84706 8.73932.6519 3.04262 1.21477 5.63015 1.21477 5.63015-3.82125-.0993-11.41553-.30146-11.41553-.30146-1.41856-6.0273-2.70817-11.42672-3.8688-16.312427zm14.71945 2.735207c2.49603.50161 4.761869.95841 7.986909 1.62265 2.7636602.56921 5.0942502 1.05727 5.0942502 1.05727.12089 3.55287.35411 10.70336.35411 10.70336-3.8319502-3.8269-8.5882702-8.56352-13.4352692-13.38328zm-81.642635-2.155227c2.69398 2.737327 5.66722 5.695027 8.91416 8.323147-.40941 2.20029-1.34823 7.16526-1.34823 7.16526-3.72867.0767-11.2589.21533-11.2589.21533 1.34689-5.78456 2.57789-10.98567 3.69297-15.703737zm65.839145.00043c.56949 2.388777 1.43196 6.034727 2.23174 9.443057.78556 3.34773 1.46108 6.26014 1.46108 6.26014-3.76056-.0681-11.25891-.21532-11.25891-.21532-.46899-2.57612-1.3482-7.16531-1.3482-7.16531 3.24703-2.62808 6.22023-5.58521 8.91429-8.322567zm-80.804165 2.989447c-.4378 2.23937-.9997 5.01539-1.6147 7.98666-.57223 2.76461-1.06552 5.09553-1.06552 5.09553-3.53269.12035-10.7046.35437-10.7046.35437 3.82754-3.83256 8.56425-8.58887 13.38482-13.43656zm95.771455.001c-.70846-.71244 9.452059 9.49636 8.743599 8.78392 2.7631502 2.77254 4.6398202 4.65122 4.6398202 4.65122-3.5880902-.11801-10.7035792-.35435-10.7035792-.35435-.97495-4.64298-1.86823-8.98652-2.67984-13.08079zm-24.92027 6.15219c.36833 1.96754 1.14289 6.32567 1.14289 6.32567-3.71843-.0377-11.15401-.12919-11.15401-.12919.004-.059-.024-.23402-.024-.23402 3.70158-1.54535 7.01856-3.62865 10.03514-5.96246zm-45.932005.00087c3.01678 2.33392 6.33404 4.41631 10.035815 5.96163-.00006.0969-.024.23401-.024.23401-3.700385.0493-11.154515.12919-11.154515.12919.39243-2.19432.77334-4.30088 1.14272-6.32483z" fill="#fff" transform="translate(132.07957 9.524996)"/>
</svg>
