<svg xmlns="http://www.w3.org/2000/svg" width="5in" height="5in" viewBox="0 0 127 127"><path fill="#fff" d="m-68.579576-9.5249949c-.01419 0-.02827.000502-.04247.0005111h-63.457524v63.4989838 63.5h63.457525c.01419.00001.02827.0005.04247.0005s.02827-.00049.04247-.0005h63.457535v-63.5-63.4989838h-63.457538c-.01419-.0000091-.02827-.0005111-.04247-.0005111zm-61.354124 1.2571173h10.42898v10.4289025zm11.68611 0h11.31619v11.3160985h-11.31619zm12.57331 0h11.316697v4.1985755c-4.008995 1.7843727-7.796817 3.975107-11.316697 6.514292zm12.575357 0h11.3167v.1233065c-3.91729.8293261-7.702369 2.0168482-11.3167 3.5324124zm37.723016 0h11.316192v3.65623c-3.61419-1.5155481-7.399056-2.7030479-11.316192-3.5324115zm12.573322 0h11.316701v10.7123555c-3.519878-2.539084-7.307748-4.7294922-11.316701-6.51378zm12.575358 0h11.316707v11.3160985h-11.316707zm12.573819 0h10.427969l-10.427969 10.4278795zm-51.554986.00768v11.3084185h-11.316701v-10.1674504c3.667283-.7128916 7.449479-1.102633 11.316701-1.1409742zm1.256614 0c3.867947.038289 7.650815.4283977 11.318749 1.1414843v10.1669342h-11.318749zm-62.87117.8815678 10.42694 10.4268557h-10.42694zm124.486753 0v10.4268507h-10.426929zm-75.446026.5182887v9.908557h-11.3167v-6.2958208c3.609066-1.5485646 7.393757-2.7653722 11.3167-3.6127403zm26.406316.000512c3.922789.8474024 7.707272 2.0641868 11.316192 3.6127353v6.2953057h-11.316192zm12.573322 4.1683844c3.526356 1.6067816 6.877251 3.5309996 10.014027 5.7396566h-10.014027zm-51.554998.0005111v5.7391455h-10.013007c3.13647-2.20844 6.487018-4.132459 10.013007-5.7391455zm-36.465367 6.9983095h11.31823v11.3166171h-11.31823zm13.46461 0h9.22916c-1.70599 1.360581-3.34277 2.804109-4.89906 4.330069zm11.68407 0h11.316687v5.7478411c-2.746463 1.616429-5.327459 3.483393-7.713127 5.568767h-3.60356zm12.575347 0h11.3167v.47532c-3.986243 1.068345-7.779358 2.608196-11.3167 4.556729zm37.723016 0h11.316192v5.032049c-3.53714-1.948459-7.330194-3.487844-11.316192-4.556217zm12.573322 0h11.316701v11.3166171h-3.602536c-2.385975-2.085622-4.967334-3.952718-7.714165-5.569279zm13.772113 0h9.22967l-4.330107 4.330069c-1.556323-1.525988-3.193538-2.969457-4.899563-4.330064zm11.377064 0h11.317211v11.3166171h-11.317211zm-51.554986.0057v11.3109601h-11.316701v-9.8701821c3.630945-.896456 7.419568-1.392387 11.316701-1.440797zm1.256614 0c3.897838.04834 7.687191.544112 11.318749 1.440798v9.8701821h-11.318749zm-38.97962.639559v9.7816681l-5.21373-5.2136831c1.65027-1.617419 3.39228-3.140969 5.21373-4.567985zm76.704173.000512c1.821246 1.426888 3.563116 2.950222 5.213218 4.567473l-5.213218 5.2131711zm11.316707.24252v9.2316471c-1.3609-1.706487-2.80475-3.343848-4.331137-4.9005541zm-99.33707.001 4.3301 4.330069c-1.52595 1.5562601-2.96954 3.1930511-4.3301 4.8990201zm36.465367.884638v9.5427281h-11.3167v-4.852453c3.525292-2.0052431 7.319833-3.5909371 11.3167-4.6902691zm26.406316 0c3.996553 1.099328 7.791162 2.68517 11.316192 4.6902681v4.85246h-11.316192zm-57.658473 4.3285331 5.21424 5.214195h-9.78226c1.42711-1.821517 2.95049-3.56386 4.56802-5.214195zm88.909612 0c1.617529 1.650335 3.140917 3.392678 4.568022 5.214195h-9.78226zm-18.677817 1.103589c2.027683 1.233707 3.959867 2.608253 5.783193 4.110572h-5.783193zm-51.554998.000511v4.110061h-5.782157c1.823029-1.502079 3.754819-2.876504 5.782157-4.110061zm-36.465367 5.366666h10.71345c-2.53918 3.519903-4.72998 7.307598-6.51433 11.316611h-4.19912zm12.57536 0h11.31619v3.604043c-2.0853 2.385556-3.95194 4.966281-5.5683 7.712568h-5.74789zm16.63786 0h7.252147v8.709257c-.299895.272562-.597108.548082-.888227.829892l-8.00784-8.007788c.53611-.522809 1.08472-1.033021 1.64392-1.531361zm8.510807 0h11.3167v1.0806c-4.15676 1.525993-7.97644 3.750733-11.3167 6.532711zm37.723016 0h11.316192v7.613821c-3.34008-2.782011-7.159589-5.006653-11.316192-6.53271zm12.573322 0h7.253162c.559205.49834 1.107835 1.008552 1.643941 1.531361l-8.007857 8.007788c-.291455-.282174-.58901-.558056-.889246-.830936zm12.575358 0h11.316707v11.316611h-5.74892c-1.616237-2.746077-3.48268-5.326651-5.567787-7.712057zm13.177575 0h10.713455v11.316611h-4.19911c-1.78435-4.009013-3.975144-7.796708-6.514345-11.316611zm-52.158742.0087v11.307879h-11.316701v-9.348814c3.559716-1.20966 7.362349-1.893379 11.316701-1.959099zm1.256614 0c3.955106.06563 7.758417.74962 11.318749 1.959609v9.34829h-11.318749zm-51.55294 1.291849v10.016004h-5.74175c1.60724-3.52716 3.53233-6.87864 5.74175-10.016004zm101.851312.0015c2.208993 3.136932 4.133754 6.487872 5.740739 10.014471h-5.740739zm-64.128815 1.117439v8.897032h-11.3167v-2.059893c3.302497-2.91083 7.127753-5.241898 11.3167-6.837139zm26.406316 0c4.18883 1.595318 8.013802 3.926805 11.316192 6.83765v2.059382h-11.316192zm-48.766993.001 8.00784 8.007788c-.281822.291183-.557323.58826-.829899.888221h-8.709311v-7.251558c.49842-.55941 1.00844-1.108149 1.53137-1.644435zm71.126669 0c.522552.535941 1.032216 1.084376 1.530347 1.643411v7.252598h-8.70831c-.272558-.299961-.548085-.597038-.829904-.888222zm-73.915169 3.114908v5.781101h-4.10908c1.2332-2.027007 2.60744-3.958292 4.10908-5.781101zm76.704173.001c1.501269 1.822517 2.875106 3.753445 4.108039 5.780079h-4.108039zm-100.595723 7.039243h3.65575c-1.51541 3.61412-2.7027 7.399053-3.53194 11.316096h-.12381zm5.01981 0h6.29842v11.316096h-9.91068c.8473-3.92274 2.06379-7.707232 3.61226-11.316096zm7.55555 0h5.03158c-1.94846 3.537211-3.48797 7.329995-4.55626 11.316096h-.47532zm6.46471 0h4.85148v11.316096h-9.54077c1.0991-3.996664 2.68442-7.790901 4.68929-11.316096zm6.10861 0h7.612843c-2.781363 3.340152-5.005493 7.159739-6.531223 11.316096h-1.08162zm9.256267 0h2.06042v11.316096h-8.898117c1.59528-4.188822 3.926858-8.013664 6.837697-11.316096zm4.208843 0h10.426937v2.379671c-1.652386.988107-3.186114 2.154671-4.572112 3.475108zm11.684065 0h3.972458c-1.378681.448492-2.70651 1.009324-3.972458 1.673087zm19.918581 0h3.973483v1.673597c-1.266247-.663994-2.594434-1.224985-3.973483-1.673597zm5.230607 0h10.425912l-5.854819 5.854794c-1.385722-1.320178-2.919071-2.486614-4.571093-3.474597zm12.573322 0h2.061437c2.91084 3.302432 5.242437 7.127274 6.837706 11.316096h-8.899143zm3.704863 0h7.611838v11.316112h-1.081121c-1.52563-4.156362-3.74944-7.975944-6.530717-11.316096zm8.870495 0h4.850457c2.004813 3.525196 3.590245 7.319432 4.689272 11.316096h-9.539729zm6.284097 0h5.03261v11.316112h-.476355c-1.068293-3.986101-2.60779-7.778885-4.556255-11.316096zm6.289722 0h6.297408c1.548456 3.608864 2.764955 7.393356 3.612251 11.316096h-9.909659zm7.661479 0h3.655732v11.316218h-.123806c-.829247-3.917036-2.016528-7.701969-3.531926-11.316089zm-59.216465.0061v11.30996h-11.316701v-8.217565c3.362794-1.87853 7.213683-2.98921 11.316701-3.092395zm1.256614 0c4.103651.103026 7.955587 1.21355 11.318749 3.092395v8.217565h-11.318749zm23.892065.882057v10.427879h-2.38123c-.98803-1.652293-2.15424-3.186123-3.47462-4.572077zm-49.039208.000513 5.855338 5.855288c-1.320377 1.385956-2.486589 2.919783-3.474625 4.572077h-2.380713zm11.3167 2.961924v6.576199l-3.68798-3.68795c1.131859-1.075475 2.366924-2.04293 3.68798-2.888249zm26.406316.000511c1.320713.845194 2.555379 1.812462 3.68696 2.887738l-3.68696 3.686927zm-30.983545 3.776979 3.687981 3.687952h-6.576252c.845342-1.321022 1.812727-2.556111 2.888271-3.687952zm35.559754 0c1.075504 1.131841 2.042993 2.366928 2.888273 3.687952h-6.576253zm-78.874592 4.945069h10.16957v11.316611h-11.31057c.0383-3.86719.42813-7.649391 1.141-11.316611zm12.87467 0h9.86822v11.316611h-11.30851c.0484-3.897082.54397-7.685684 1.44029-11.316611zm13.09264 0h9.349397v11.316612h-11.308507c.0656-3.954324.7494-7.756992 1.95911-11.316612zm10.608057 0h1.674124c-.663964 1.266362-1.225589 2.594791-1.674124 3.973961zm3.098561 0h8.218139v11.316612h-11.310049c.103099-4.102936 1.213469-7.953974 3.09191-11.316612zm10.364516 0h5.437318c-1.19467.563947-2.293072 1.298987-3.259217 2.178081zm16.675224 0h5.437318l-2.178102 2.178081c-.966143-.879094-2.064546-1.614133-3.259216-2.178081zm7.584715 0h8.217122c1.87829 3.362626 2.98832 7.213699 3.09139 11.316611h-11.308512zm9.641552 0h1.67464v3.975497c-.44863-1.379722-1.01043-2.708664-1.67464-3.975497zm2.93177 0h9.350419c1.209714 3.559619 1.893441 7.362286 1.959111 11.316611h-11.30953zm12.575358 0h9.86719c.896271 3.630926 1.391947 7.419528 1.440306 11.316611h-11.307496zm12.573819 0h10.168562c.712855 3.667219 1.102674 7.449421 1.140983 11.316611h-11.309545zm-51.554986.01535v10.412019l-7.364195-7.364137c1.970972-1.774455 4.536116-2.901453 7.364195-3.047882zm1.256614 0c2.828464.14621 5.393998 1.273213 7.365219 3.047882l-7.365219 7.36516zm11.318749.872872v5.443411c-.563896-1.196506-1.299207-2.296753-2.179123-3.264303zm-23.892064.000999 2.178099 2.178085c-.87941.966992-1.614334 2.066552-2.178099 3.26226zm3.062745 3.062721 7.364706 7.364648h-10.411589c.146218-2.828157 1.272444-5.393591 3.046883-7.364648zm17.765551 0c1.774455 1.971057 2.900645 4.536491 3.046882 7.364648h-10.411591zm-71.118491 8.621765h11.31057v11.316096h-10.16957c-.71279-3.667023-1.10265-7.449204-1.141-11.316096zm12.57538 0h11.30851v11.316096h-9.86822c-.89632-3.630863-1.39189-7.419116-1.44029-11.316096zm12.57382 0h11.308507v11.316096h-9.349397c-1.20974-3.55954-1.89338-7.361919-1.95911-11.316096zm12.573818 0h11.310049v11.316096h-8.218139c-1.87836-3.362459-2.988735-7.21328-3.09191-11.316096zm12.583039 0h10.412099l-7.364705 7.364649c-1.774595-1.970667-2.901036-4.536421-3.047394-7.364649zm13.447215 0h10.412101c-.146358 2.828227-1.272798 5.393982-3.047393 7.364648zm11.686111 0h11.308512c-.10315 4.102812-1.21317 7.953638-3.09139 11.316098h-8.217122zm12.573322 0h11.30953c-.06565 3.954177-.749367 7.756556-1.959111 11.316096h-9.350419zm12.575358 0h11.307496c-.04838 3.896979-.544045 7.685233-1.440306 11.316096h-9.86719zm12.573819 0h11.309545c-.03828 3.866891-.428198 7.649073-1.140983 11.316096h-10.168562zm-50.298372.888732 7.364709 7.364648c-1.971162 1.774051-4.536481 2.899795-7.364709 3.045829zm-1.256614.001v10.409457c-2.827831-.146257-5.39276-1.27199-7.363685-3.045829zm12.575363 4.094202v5.444948l-2.180147-2.18013c.880283-.967655 1.616034-2.068039 2.180147-3.264818zm-23.892064.002c.563993 1.195977 1.299345 2.295676 2.179122 3.262773l-2.179122 2.179104zm36.46538 2.355112v3.974989h-1.67413c.66407-1.266725 1.22559-2.595376 1.67413-3.974967zm-49.039208.0015c.448453 1.379044 1.009793 2.707181 1.673613 3.973454h-1.673613zm15.642199 1.795338c.966473.879111 2.065184 1.61431 3.260241 2.178086h-5.438338zm17.754298 0 2.178098 2.178086h-5.438339c1.195047-.563776 2.293768-1.298975 3.260241-2.178086zm-71.120524 3.437216h.12381c.82937 3.917239 2.01687 7.702301 3.53245 11.316606h-3.65626zm1.40805 0h9.91018v11.316606h-6.29791c-1.5486-3.608992-2.76483-7.393742-3.61227-11.316606zm11.16731 0h.47584c1.06851 3.986252 2.60853 7.779353 4.55727 11.316606h-5.03311zm1.77594 0h9.54025v11.316606h-4.84994c-2.00514-3.525204-3.59098-7.319831-4.69031-11.316606zm10.79738 0h1.08265c1.52609 4.156777 3.75072 7.976422 6.532751 11.316606h-7.615401zm2.42011 0h8.896577v11.316606h-2.057861c-2.911302-3.30244-5.243016-7.127609-6.838716-11.316606zm10.155237 0h2.381226c.987916 1.652037 2.153953 3.185331 3.474112 4.571054l-5.855338 5.855286zm3.852222 0h6.574205l-3.686445 3.686416c-1.075235-1.131329-2.042585-2.365968-2.88776-3.686416zm8.721606 0h11.316701v11.306374c-4.102857-.10313-7.953984-1.212885-11.316701-3.090858zm12.573315 0h11.318749v8.215001c-3.363211 1.878469-7.215038 2.988394-11.318749 3.091373zm13.465126 0h6.574209c-.84513 1.320448-1.812569 2.555088-2.887764 3.686416zm8.045199 0h2.38174v10.426856l-5.85585-5.855802c1.32016-1.385723 2.4862-2.919017 3.47411-4.571054zm3.63887 0h8.897608c-1.595704 4.188997-3.927422 8.014166-6.838726 11.316606h-2.058882zm10.235065 0h1.081636v11.316606h-7.614404c2.781955-3.340184 5.006775-7.159818 6.532768-11.316606zm2.340293 0h9.539224c-1.09926 3.996775-2.684722 7.791402-4.689787 11.316606h-4.849437zm10.839847 0h.47686v11.316665h-5.034145c1.948747-3.53725 3.488769-7.330353 4.557285-11.316606zm1.733972 0h9.909154c-.847437 3.922874-2.063654 7.707614-3.612261 11.316606h-6.296893zm11.193405 0h.123806v11.316606h-3.656247c1.515569-3.614305 2.703073-7.399367 3.532441-11.316606zm-75.32222.888213v6.57467c-1.320829-.845006-2.555768-1.81206-3.687469-2.887223zm26.406316.001 3.686449 3.686418c-1.131402 1.07494-2.365982 2.041843-3.686449 2.886718zm-30.978428 4.571056c1.385969 1.320449 2.919756 2.48656 4.572112 3.474602v2.381714h-10.428473zm35.549521 0 5.856359 5.856316h-10.427452v-2.382229c1.651984-.98791 3.18539-2.153901 4.571093-3.474087zm-5.828217 4.180675v1.675641h-3.9786c1.38087-.448818 2.710797-1.010888 3.9786-1.675641zm-23.892064.000504c1.267503.664522 2.597073 1.22643 3.977575 1.675137h-3.977575zm-50.297855 2.931744h4.19912c1.78426 4.009041 3.97423 7.796679 6.51331 11.316608h-10.71243zm5.57597 0h5.74226v10.017028c-2.20958-3.137681-4.13496-6.489471-5.74226-10.017028zm6.99939 0h5.74789c1.61638 2.746321 3.48295 5.327036 5.5683 7.712568v3.60404h-11.31619zm7.20763 0h4.10856v5.781106c-1.50157-1.822695-2.87542-3.754201-4.10856-5.781106zm5.36569 0h8.709822c.272675.300047.547969.59747.829898.88873l-8.00784 8.007798c-.5231-.536447-1.03329-1.085375-1.53188-1.644949zm12.575347 0h11.3167v8.898048c-4.188947-1.595212-8.014202-3.926255-11.3167-6.837136zm12.573828 0h11.316701v11.308928c-3.954352-.0658-7.756985-.74945-11.316701-1.95909zm12.573315 0h11.318749v9.349328c-3.560332 1.20997-7.363643 1.89398-11.318749 1.9596zm12.575873 0h11.316192v2.060396c-3.30239 2.910892-7.127362 5.242359-11.316192 6.837652zm15.181197 0h8.708826v7.252599c-.498302.55921-1.008108 1.107826-1.530862 1.643929l-8.007857-8.007798c.28193-.291261.557235-.588683.829893-.88873zm9.967483 0h4.108039c-1.232963 2.026694-2.606699 3.958057-4.108039 5.780591zm5.567787 0h5.74892v11.316608h-11.316707v-3.604555c2.085158-2.385371 3.95153-4.965934 5.567787-7.712053zm7.006032 0h5.741244c-1.607056 3.52699-3.532089 6.878247-5.741244 10.015488zm7.118101 0h4.19911v11.316668h-10.712435c2.53908-3.519928 4.729065-7.307566 6.513325-11.316607zm-84.709993 1.777973c.290999.281667.58795.556959.887717.829372v8.709263h-7.251627c-.55922-.49829-1.10785-1.00808-1.64393-1.53085zm53.331446 0 8.007857 8.007785c-.536086.52277-1.084736 1.03256-1.643941 1.53085h-7.252647v-8.708747c.300044-.272666.597468-.547969.888731-.829888zm-2.145861 1.92482v7.613815h-11.316192v-1.08157c4.156671-1.52587 7.976062-3.750343 11.316192-6.532185zm-49.039208.000515c3.340321 2.781821 7.159853 5.00636 11.3167 6.53219v1.08111h-11.3167zm-37.724027 8.8725h11.31823v11.316087h-11.31823zm13.22158 0h9.7797l-5.21271 5.21266c-1.61712-1.64991-3.14021-3.39162-4.56699-5.21266zm11.9271 0h3.60663c2.38475 2.0841 4.964856 3.9496 7.710057 5.56519v5.750897h-11.316687zm5.5376 0h5.779087v4.10699c-2.026117-1.23269-3.957027-2.60605-5.779087-4.10699zm7.037747 0h11.3167v9.539147c-3.996807-1.09911-7.791447-2.684807-11.3167-4.689757zm12.573828 0h11.316701v11.306877c-3.897183-.0484-7.685716-.54397-11.316701-1.44028zm12.573315 0h11.318749v9.866087c-3.63164.89658-7.420822 1.39247-11.318749 1.4408zm12.575873 0h11.316192v4.84939c-3.52504 2.00488-7.319622 3.590087-11.316192 4.689237zm12.573322 0h5.780123c-1.822357 1.50118-3.753672 2.87465-5.780123 4.1075zm7.711094 0h3.605607v11.316087h-11.316701v-5.749877c2.745638-1.61574 5.325977-3.48179 7.711094-5.56621zm5.754031 0h9.779694c-1.426782 1.82104-2.949887 3.56275-4.567002 5.21266zm11.684052 0h11.317211v11.316097h-11.317211zm-89.277992.88822v9.781667c-1.82145-1.42703-3.56347-2.95057-5.21373-4.567977zm76.704173.00051 5.213218 5.21318c-1.650102 1.617237-3.391972 3.140567-5.213218 4.567457zm11.316707.30648v9.231637l-4.331137-4.331077c1.526336-1.55668 2.970288-3.19411 4.331137-4.90056zm-99.33707.001c1.3606 1.70604 2.80411 3.3432 4.3301 4.89953l-4.3301 4.330057zm74.187875 5.08475v5.035107h-11.316192v-.4784c3.986098-1.0683 7.778971-2.60833 11.316192-4.556707zm-49.039208.00051c3.537361 1.948397 7.330439 3.488457 11.3167 4.556717v.47788h-11.3167zm-19.929317.70351c1.55666 1.526317 3.19414 2.970207 4.9006 4.331087h-9.23172zm88.897331 0 4.331137 4.331087h-9.23172c1.706429-1.36087 3.343926-2.80476 4.900583-4.331087zm-106.692041 5.588197h10.42796l-10.42796 10.42789zm12.57536 0h11.31619v11.31714h-11.31619zm13.87547 0h10.014537v5.74069c-3.526578-1.60695-6.877617-3.53179-10.014537-5.74069zm11.273197 0h11.3167v9.9096c-3.922943-.84738-7.707634-2.06369-11.3167-3.61224zm12.573828 0h11.316701v11.30945c-3.867222-.0383-7.649418-.42809-11.316701-1.14096zm12.573315 0h11.318749v10.16796c-3.667934.71308-7.450802 1.10319-11.318749 1.14149zm12.575873 0h11.316192v6.29684c-3.60892 1.54855-7.393403 2.76483-11.316192 3.61223zm12.573322 0h10.015573c-3.137241 2.20912-6.488621 4.13415-10.015573 5.74119zm12.575358 0h11.316707v11.31714h-11.316707zm13.46307 0h10.42796v10.42789zm-88.910113.60426c3.51988 2.5392 7.307687 4.72992 11.316687 6.51429v4.19859h-11.316687zm74.188386.00051v10.71236h-11.316701v-4.19859c4.008963-1.78428 7.796823-3.97469 11.316701-6.51377zm-88.018836.28345v10.42891h-10.42898zm101.851312.001 10.427969 10.42789h-10.427969zm-26.406307 6.77165v3.65624h-11.316192v-.12332c3.917146-.82935 7.701981-2.01738 11.316192-3.53292zm-49.039208.00051c3.614323 1.51554 7.399438 2.7031 11.3167 3.53241v.12332h-11.3167z" transform="translate(132.07957 9.524996)"/></svg>