<svg xmlns="http://www.w3.org/2000/svg" width="5in" height="5in" viewBox="0 0 127 127"><path fill="#fff" d="m-68.584065-9.5251085c.00005 0-.04245.001-.0425.001-21.148667.020187-63.453015-.000522-63.453015-.000522.0101 21.1867885 0 63.4949865 0 63.4949865.0202 21.18332 0 63.496004 0 63.496004 21.16371.01 63.462209-.00044 63.462209-.00044.01376.00044.02743.00087.04163.00087s.02873-.00043.04293-.00043c21.158351.0197 63.4442753 0 63.4442753 0 .010099-21.157721 0-63.504981 0-63.504981.020209-21.15239 0-63.4860095 0-63.4860095-21.1533063.010444-63.4540293.000522-63.4540293.000522-.01373-.0000194-.02677-.0009806-.0415-.001zm-61.276015 1.3417662c3.63321.1483292 10.49317.3761825 10.49317.3761825.21786 2.7170246.42203 5.7547507.65287 9.1980357.20888 3.1157154.38159 5.6045694.38159 5.6045694-3.83658-6.74781221-7.2572-10.8299374-11.52763-15.1787876zm11.72711.417175c3.75211.1378201 10.87394.3214194 10.87394.3214194-.50833 3.5487156-.89125 7.63692876-1.02032 12.1157299-.11641 4.0393397.0147 7.109907.0147 7.109907-1.53115-.419476-3.2631-.977308-5.32884-1.731206-1.87219-.6832634-3.53383-1.3458298-3.53383-1.3458298-.3804-5.5125049-.66733-11.1526124-1.00568-16.4700205zm12.06181.3515503c3.57512.1063015 10.610199.2182578 10.610199.2182578-1.176444 2.7291738-2.594574 7.89195601-2.594574 7.89195601-3.971135 3.16432309-6.884075 6.73210489-9.332895 10.33130319-.12053-5.9435645.25959-12.324835 1.31727-18.441517zm11.787295.2365788c3.505896.07177 10.644711.1119979 10.644711.1119979-.06016.100211-.16639.2408121-.16639.2408121-4.902774 1.6265741-9.253862 3.8153285-12.991044 6.5593222.628869-2.2904955 1.45293-4.6239916 2.512704-6.9121322zm36.553743.042341c3.800386-.019688 11.66375-.1463111 11.66375-.1463111-1.911872 2.1838067-4.799529 5.7382975-4.799529 5.7382975-2.246157-1.8779927-4.628819-3.945569-7.079536-5.3638734.07127-.075823.143119-.1518802.215294-.228113zm12.97606-.1662738c3.932608-.04388 11.907635-.2122724 11.907635-.2122724-2.041893 3.0140887-4.217315 6.0889861-6.011848 8.7653733-1.667845 2.4874557-2.69328 4.1999176-2.69328 4.1999176-3.214789-2.1011987-5.696291-3.9965927-8.494586-6.31436093 1.496343-1.96030257 3.212825-4.03753777 5.292079-6.43865757zm13.238352-.2395654c4.008358-.068097 11.95667-.2813054 11.95667-.2813054-1.090046 2.8627621-2.199656 5.5137797-3.361368 8.2089711-1.036231 2.4040638-1.757772 4.0570911-1.757772 4.0570911-3.056356.2338938-6.31343.4968085-9.893579.8347461-3.222547.3041835-5.688414.5768105-5.688414.5768105 2.542182-4.3187653 4.553075-6.9782681 8.744463-13.3963134zm13.280313-.3168321c3.685405-.087215 10.9150138-.3323269 10.9150138-.3323269-.4822332.4772769-2.2108838 2.1906154-4.1770848 3.8971282-2.104268 1.8263436-3.800946 3.0658877-4.509034 3.57937073-3.410543 2.46560237-6.555757 4.21585997-6.555757 4.21585997 1.222033-3.08339518 2.793792-6.982201 4.326862-11.360032zm-53.311958.8268452c-.758.8645682-2.784478 3.2054607-4.672083 6.32251832-1.847055 3.05009788-2.763768 5.53314578-3.054629 6.33378868-1.400518 3.8411179-1.664238 6.5891023-1.664238 6.5891023-3.221687.522957-8.75851 1.104891-8.75851 1.104891-.125262 2.083206-.0903 1.919125-.03236.632814.06386-1.417776.231628-3.567423.744961-6.1068263.519795-2.5713673 1.209876-4.634889 1.7545-6.0631836.483213-1.2672419.511751-1.43186523-.230723.6240923 1.412869-3.8954725 3.516414-7.2265148 3.516414-7.2265148 4.219514-1.3660441 8.551889-2.1265411 12.396612-2.2106857.0011.00999-.000004.000004-.000004.000004s.00006-.0000002.00006-.0000002zm1.231736-.00365c3.783324.06235 6.744652.7998683 9.404313 1.9984177-2.992566 3.4185267-5.293406 6.7389821-6.95775 10.1192147-1.49104 3.028233-2.049584 5.2196989-2.049584 5.2196989-3.555046.651388-9.987285 1.746484-9.987285 1.746484.843649-5.3521181 3.211325-11.92303337 9.590296-19.0838152 0 0 .00001-.0000001.00001-.0000001zm-60.430021-.2576787c-.0936-.095102 1.9753 1.9649465 3.89747 4.1807453 1.92217 2.21579883 3.65894 4.6230133 3.57956 4.5129675 2.46534 3.4069559 4.21494 6.5441455 4.21494 6.5441455-1.54667-.6060184-4.19012-1.6633317-6.62859-2.5908403-2.44608-.9304013-4.7312-1.7335232-4.7312-1.7335232-.0996-3.66317726-.20934-7.2906681-.33218-10.9134948zm124.3157775-.012337c-.1250065 3.5883196-.3761957 10.4900399-.3761957 10.4900399-2.7078584.2172137-5.7348038.4208503-9.1863608.652353-3.118979.2091957-5.614795.3824547-5.614795.3824547 6.746842-3.83571595 10.829383-7.2556954 15.1773515-11.5248476zm-78.9558435 2.9779414c-2.108799 3.63441387-3.577178 7.4903012-4.422943 11.492397-.762682 3.6089906-.810771 6.2256916-.810771 6.2256916-2.879941.224721-8.008914.06584-8.008914.06584.01095-1.504167.264262-5.3463049.457078-6.8310847.306609-2.369069.746789-4.3355258.746789-4.3355258 3.45037-2.7505056 7.467815-4.9753166 12.038761-6.6173141zm25.365364-.2838046c2.652108 1.324744 5.269704 3.2308209 7.708791 4.97562252-1.182397 1.62178618-2.290111 3.27669548-3.286453 5.00600798-.898782 1.5599897-1.440288 2.7274605-1.440288 2.7274605-4.185994.670223-11.684735 1.9895292-11.684735 1.9895292 1.321142-4.233659 3.773369-9.0036856 8.702685-14.6986202zm8.595789 5.60841587c2.658975 1.89474303 4.954542 3.45758533 7.847523 5.23615673-4.256601.5153361-12.052993 1.6452127-12.052993 1.6452127 1.048856-2.1217906 2.399713-4.3631483 4.20547-6.88136943zm-47.165472 2.25978653c-.355464 1.9683618-.62969 4.1008532-.779975 6.3921555-.137357 2.0942133-.12769 3.7416473-.12769 3.7416473-1.27656-.09905-2.74041-.278998-4.31469-.568813-1.44442-.265908-2.62628-.564349-2.62628-.564349 2.12744-3.1341976 4.62301-6.215591 7.848635-9.0006408zm-31.787865 1.6892333c2.9008 1.1162592 5.47925 2.1964288 8.21163 3.3707062 2.40442 1.0333323 4.05715 1.7476013 4.05715 1.7476013.2348 3.069777.49789 6.327757.8354 9.90326.30381 3.218639.57567 5.677771.57567 5.677771-.66502-.389039-1.87277-1.113402-3.67874-2.282052-1.57388-1.018467-3.40214-2.24856-3.91588-2.592104-2.90092-1.948113-5.80403-3.868949-5.80403-3.868949-.0828-3.982287-.17618-7.9893587-.2812-11.9562335zm14.14592 5.9160645c2.6292 1.117178 7.19005 2.69953 7.19005 2.69953-1.10393 1.758851-2.17244 3.575921-3.15371 5.25858.0311.06095-.99188-1.96223-2.01054-3.988103-1.01866-2.025874-2.05732-4.030402-2.0258-3.970007zm8.94974 3.217701c2.61783.733697 7.817165 1.385497 7.817165 1.385497.115237 3.290253.895402 8.689329.895402 8.689329-1.485547 2.176875-2.764177 4.520006-3.893387 6.869158-.84933-.110026-2.69552-.504846-2.69552-.504846-1.02014-4.830816-1.82248-10.329288-2.12366-16.439138zm8.680095 1.446322c2.465232.164729 7.927109-.152455 7.927109-.152455.0061.261577.0029.73138.0029.73138-2.866078 1.917409-5.212356 4.339267-7.203437 7.067694-.377005-2.374059-.643883-4.935543-.72653-7.646619zm29.426702-3.841078c3.556172-.703968 11.507953-2.1937685 11.507953-2.1937685-.80879 1.9246905-1.728699 5.2240845-1.728699 5.2240845-3.157731-.998901-6.556623-1.905424-9.923757-2.438578.04594-.196174.094-.393421.144514-.59174 0 0-.000011.000002-.000011.000002zm12.901739-2.4353868c2.378304-.4012774 5.118256-.8446976 8.314199-1.3005788 2.905897-.4145097 5.371618-.716414 5.371618-.716414-1.111605 1.999432-2.084718 4.0161056-2.868085 6.1533896-.705343 1.924437-1.04423 3.385492-1.04423 3.385492-1.537113.340822-4.343748 1.031809-4.343748 1.031809-2.378768-.964839-4.935876-1.905974-7.406201-2.71884.435306-1.84509 1.064311-3.782258 1.976447-5.8348578zm16.92484-2.3986586c2.354851-.2597661 4.924507-.5232736 7.951137-.7911713 2.721178-.2408618 4.952084-.4075719 4.952084-.4075719-2.677162 1.4413889-7.974852 4.1331788-7.974852 4.1331788-1.719818-1.0030153-3.316584-1.9356283-4.92837-2.9344306 0 0 .000001-.000005.000001-.000005zm16.027836-1.4244153c3.466913-.2339881 6.235221-.3973957 10.380448-.6388528 3.4454916-.2006982 6.0934432-.3674951 6.0934432-.3674951-.1085156 3.7318297-.3214401 10.8725126-.3214401 10.8725126-3.5344681-.505844-7.6194741-.889538-12.1060541-1.018853-4.044952-.116586-7.124377.01516-7.124377.01516.777568-2.776563 1.772424-5.5225471 3.07798-8.8624687zm-57.832262 8.6187767c-.05324.60384-.198996 2.311753-.112162 4.594203.08467 2.225684.356174 4.044742.43907 4.591001.4162 2.774137.948438 4.718323.948438 4.718323-2.661681.917087-7.589785 2.190418-7.589785 2.190418-.371671-1.216944-1.549507-6.228796-1.743985-7.475113-.429226-2.733453-.519821-5.194874-.519821-5.194874 2.571099-1.648098 5.427001-2.79136 8.578237-3.423984.009.0083-.000002.000028-.000002.000028s.00001-.000002.00001-.000002zm1.01249-.183947c3.16286-.515457 6.325653-.488048 9.420811-.136526-.397592 2.29354-.54892 4.633184-.471577 7.072917.06969 2.198223.293741 3.804908.293741 3.804908-2.946393 1.156679-8.122697 3.050767-8.122697 3.050767-.914282-3.808679-1.648766-8.604376-1.120268-13.792068 0 0-.00001.000002-.00001.000002zm-27.9798.996294c.18205 2.954251.48064 6.029452.94019 9.242328.41466 2.899038.83438 5.020261.83438 5.020261-1.74799-2.637244-5.03126-8.708808-5.03126-8.708808.55827-.98821 2.63123-4.548714 3.25669-5.553781zm66.854136-7.2333469c3.386798 1.9939694 4.720401 2.6978559 4.773646 2.7277879.05324.02993-1.085054-.610668-2.19332-1.2403587-1.108265-.6296907-2.180405-1.2539892-2.130179-1.2248118.05023.029177 1.166486.6789904 4.803739 2.7352975-1.769165.946549-3.668685 1.990301-5.599504 3.15651-1.771269 1.069841-3.095459 1.970457-3.095459 1.970457.734391-2.548457 1.817327-5.156915 3.441075-8.1248668 0 0 .000002-.0000151.000002-.0000151zm15.789902-1.3035003c-1.088011 2.6277162-2.700665 7.1917262-2.700665 7.1917262-1.759335-1.103944-3.57727-2.172858-5.260294-3.154147-.06173.03146 1.962525-.9920499 3.98951-2.0112087 2.026986-1.0191588 4.032628-2.0582952 3.971449-2.0263705zm-91.425088 5.5083872c1.42642 2.674216 4.13292 7.973868 4.13292 7.973868-1.00322 1.719849-1.93592 3.315691-2.93486 4.927667-.46806-4.165862-.85743-8.393682-1.19806-12.901535zm26.297173 6.225765c.158732 2.720005.560881 5.416934 1.16805 8.079081.560872 2.45911 1.126772 4.190366 1.126772 4.190366-1.393508.3021-3.030646.592233-4.78418.786721-1.616267.179266-2.939035.221526-2.939035.221526-.518367-1.796303-1.493658-6.168023-1.493658-6.168023 1.904482-2.726 4.15634-5.163528 6.92205-7.109662 0 0 .000001-.000009.000001-.000009zm20.957436-4.196065c3.375211.464141 6.782661 1.305134 9.949116 2.258809-.305369 1.643251-.553724 4.521242-.553724 4.521242-3.575411 1.230964-9.678636 3.58746-9.678636 3.58746-.322536-3.061759-.393588-6.608042.283244-10.367511zm-42.284959 7.536109c.91322 1.719556 1.96948 3.64376 3.13539 5.573089 1.07645 1.781287 1.99186 3.122825 1.99186 3.122825-1.40519-.397982-3.04768-.974439-4.92111-1.826911-1.71199-.779017-3.2047-1.614076-3.2047-1.614076 4.418-7.503186 7.62324-13.176048 9.74512-16.130148 2.12187-2.9540999 2.79921-3.6370712 2.19652-2.8894538-.68345.8477915-2.2826 2.8618598-4.31389 5.9974068-2.22331 3.431959-3.86725 6.440968-6.14004 10.441329-2.17682 3.831448-3.88151 6.628322-5.77188 9.077832-1.75319 2.271755-3.13164 3.505268-3.64636 3.957326-.48777.428392.0228.163161 1.817-1.781374 2.42978-2.633353 4.10564-5.074344 9.11209-13.927845zm76.903092-10.218185c.930186.525367 4.608016 2.667881 5.554115 3.256442-2.94083.181524-6.013374.479165-9.232778.939635-2.903526.415289-5.031544.836484-5.031544.836484-.09844.06526 2.021631-1.334909 4.258341-2.615674 2.236711-1.280765 4.559454-2.472746 4.451866-2.416887zm-23.517106 5.29811c1.852904.584072 3.72271 1.234879 5.515834 1.915667-2.125899.600996-6.011288 1.840464-6.011288 1.840464.09287-1.212428.250628-2.467267.495454-3.756131zm-39.6468 9.679076c.400282 1.923563 1.277773 5.204513 1.277773 5.204513-1.345004.03606-4.133569-.163124-4.133569-.163124.85507-1.723272 1.799321-3.424512 2.855796-5.041389zm-31.876646-7.9233c2.76342 1.881784 6.26411 4.344731 8.76702 6.019586 2.48976 1.666056 4.19936 2.68319 4.19936 2.68319-2.10158 3.215637-3.99669 5.696301-6.3148 8.495721-1.06268-.804974-2.33217-1.811658-3.86063-3.089686-1.37974-1.15367-2.57877-2.201454-2.57877-2.201454-.0607-3.928612-.13182-7.933218-.21218-11.907357zm14.7473 9.738253c1.99134 1.120673 4.02745 2.101116 6.15449 2.877194 1.92383.70193 3.38332 1.034428 3.38332 1.034428.34608 1.562146 1.03184 4.345527 1.03184 4.345527-.9649 2.378543-1.90566 4.93462-2.71853 7.404871-1.01716-.234424-2.2304-.574321-3.5679-1.059163-1.23005-.445891-2.26688-.917067-2.26688-.917067-.72662-4.248119-1.40754-8.748086-2.01634-13.68579zm13.58708 4.64771c1.765277.218018 5.258379.212756 5.258379.212756.593051 1.903143 1.266419 3.811008 2.050164 5.788826.704501 1.777825 1.277065 3.060669 1.277065 3.060669-.113092.272426-.225022.545566-.331819.821516.410219.28609-1.333928-.905634-2.946801-2.227218-1.612872-1.321584-3.093083-2.774294-2.738688-2.433006-1.87907-1.808482-3.32416-3.551299-3.32416-3.551299.24478-.560154.49741-1.118278.75586-1.672244zm6.145754.174727c2.554937-.126834 7.720546-1.099339 7.720546-1.099339.140611.398044.39168 1.134876.39168 1.134876-2.191439 2.213632-3.88504 4.883234-5.188734 7.739944-.996287-2.298478-2.016941-4.904401-2.923492-7.775481zm25.80295-7.34888c1.522268-.613036 3.576915-1.447913 5.698679-2.268486 2.016227-.779756 3.789128-1.417891 3.789128-1.417891-.05185 2.241092.301407 6.336441.301407 6.336441-3.038043-.910077-6.35735-1.512059-9.644915-1.629387-.05101-.336232-.09923-.676613-.144299-1.020677zm10.677143-4.107577c2.328278-.804193 7.556792-2.372363 7.556792-2.372363.568958.22669 1.137337.458476 1.700845.696424-1.929727 1.669091-3.776114 3.516142-5.536472 5.646819-1.582292 1.91515-2.592776 3.44811-2.592776 3.44811-.279875-.1006-.562476-.196097-.845514-.290525-.259948-2.207583-.399098-4.625351-.282875-7.128465zm13.97348-3.938713c2.688696-.563938 5.990164-1.152364 9.833345-1.587264 3.534162-.39993 6.607331-.53791 6.607331-.53791-.71913 2.680649-1.385292 7.817211-1.385292 7.817211-3.261054.114712-8.691726.896789-8.691726.896789-2.176892-1.485142-4.519539-2.763424-6.868618-3.892397.12711-.885979.293362-1.784271.50496-2.696429zm19.491776-2.231602c2.229276-.04277 9.43968.21534 11.501186.407257 3.920452.361883 6.944103.907977 6.944103.907977-.071752 3.572676-.2181679 10.60841-.2181679 10.60841-2.6943871-1.160521-7.8942331-2.593223-7.8942331-2.593223-3.164851-3.970113-6.733305-6.882176-10.332888-9.330421zm-53.891082 14.08971c.596162 2.153469 1.316146 4.310809 2.152961 6.516844.745488 1.965203 1.34146 3.34949 1.34146 3.34949-1.213768.53875-2.621857 1.121984-4.155654 1.686184-1.409873.518617-2.586828.890448-2.586828.890448-.628873-1.292722-1.415329-2.955391-2.214742-4.840965-.743719-1.754153-1.323482-3.330198-1.323482-3.330198 1.9035-1.819102 4.142421-3.263183 6.78626-4.271816.01266.0065.000005.00002.000005.00002s.00002-.000007.00002-.000007zm.842539-.301946c2.682999-.901063 5.482968-1.275249 8.264226-1.272753.307915 1.663135.69111 3.346785 1.140234 5.049701.415743 1.574162.771027 2.728121.771027 2.728121-2.410108 1.256781-6.791772 3.33708-6.791772 3.33708-1.111483-2.705581-2.405718-6.148379-3.383746-9.842139 0 0 .000031-.00001.000031-.00001zm-37.62748.0043c.51837 4.283293 1.64528 12.055559 1.64528 12.055559-.66819-.326853-3.47346-1.9187-4.1539-2.351166-1.45799-.929687-2.72933-1.854429-2.72933-1.854429 1.89568-2.660535 3.45849-4.955475 5.23795-7.849964zm89.444398-12.843326c3.135271 2.12722 6.218325 4.622384 9.004467 7.848001-1.95263-.352204-4.081251-.627172-6.380342-.778095-2.099738-.137837-3.75738-.127973-3.75738-.127973.196119-2.310562.562037-4.580185 1.133255-6.941933zm-60.103876 18.068998c.64054 1.679787 1.344216 3.350599 2.138723 5.085332.713068 1.556932 1.272519 2.677246 1.272519 2.677246-1.30327.406944-2.881215.84712-4.633838 1.243653-1.617377.365926-3.00044.59725-3.00044.59725-.252753-.549069-.812369-1.750752-.812369-1.750752 1.234999-2.892942 2.882501-5.604262 5.035405-7.852729zm17.538489-6.487649c3.281573.106417 6.592888.720386 9.607508 1.672617.08493.539461.240987 1.553319.240987 1.553319-3.050079 1.46632-8.121942 4.120295-8.121942 4.120295-.629493-2.178542-1.263853-4.699649-1.726553-7.346231zm-33.455631 7.538473c-.016-.01861 1.28544 1.496973 2.70562 2.892242 1.420178 1.395268 2.962128 2.667296 2.943184 2.651652 1.913997 1.5794 3.444844 2.585513 3.444844 2.585513-.100448.279636-.195824.561723-.290121.84453-1.220204.14868-2.716738.279186-4.346644.316226-1.508798.03429-2.781953-.0335-2.781953-.0335-.7971-2.30852-2.37127-7.555278-2.37127-7.555278.22677-.569335.45826-1.137534.69634-1.701381zm53.98944-15.168638c.559928.244739 1.117335.497344 1.671113.755736-.19903 1.803626-.212513 5.259217-.212513 5.259217-1.893464.590321-3.798313 1.262099-5.780738 2.047664-1.780558.705573-3.067744 1.280161-3.067744 1.280161-.272466-.113156-.545562-.224963-.821543-.331813-.341716.490065 1.569733-2.323525 3.821827-4.792718 2.252093-2.469192 4.839927-4.598386 4.389598-4.218247zm-55.25807 18.348237c.60685 2.147459 1.83934 6.00924 1.83934 6.00924-1.14722-.07875-3.75434-.495232-3.75434-.495232.58371-1.852346 1.23458-3.721466 1.915-5.514008zm58.352851-16.904925c1.722513.854842 3.423121 1.798509 5.039344 2.85454-1.897078.395162-5.202177 1.277843-5.202177 1.277843-.02416-1.352914.02358-2.732396.162833-4.132383zm-84.024901 9.944528c2.18418 1.933105 5.7377 4.797787 5.7377 4.797787-1.87799 2.24665-3.94515 4.629929-5.36334 7.08117-.0568-.04324-.22812-.21529-.22812-.21529-.0382-3.826008-.0876-7.740165-.14624-11.663679zm7.64534 6.242667c1.71214 1.26088 3.36657 2.352393 5.00939 3.295825 1.56046.896051 2.72749 1.43189 2.72749 1.43189.43507 2.717708.70314 4.476501 1.22466 7.471487.41649 2.3918.76486 4.213299.76486 4.213299 1.55719.482311 1.40862.418578.40614.123759-1.10927-.326222-2.74855-.874748-4.71329-1.807804-1.97672-.938748-3.61395-1.948766-4.75647-2.705302-1.02146-.676373-1.17046-.752532.41335.271632-3.12354-2.012407-6.05139-4.584711-6.05139-4.584711 1.32477-2.652717 3.23026-5.270528 4.97526-7.710075zm9.12808 5.355662c1.92839.831707 5.22321 1.728153 5.22321 1.728153-.99894 3.157952-1.9057 6.556857-2.43876 9.924439-.18017-.03322-.59105-.1443-.59105-.1443-.71502-3.552159-1.46503-7.359117-2.1934-11.508292zm6.62649 2.030029c1.6484.326617 4.51993.553442 4.51993.553442 1.23729 3.594659 3.586956 9.67902 3.586956 9.67902-.573205.0619-1.736146.175708-3.135366.220617-1.42458.04572-2.50798.002-3.08975-.02732-2.20904-.114839-4.13927-.475749-4.13927-.475749.46374-3.375974 1.30403-6.782946 2.2575-9.950015zm5.6375.600372c2.247372.07066 6.335127-.301287 6.335127-.301287-.909608 3.038019-1.511104 6.357456-1.62815 9.644997-.321008.05658-1.021079.144386-1.021079.144386-1.136068-2.796896-2.447746-6.039319-3.685898-9.488096zm7.609837-.464925c.543952-.06747 1.553984-.241049 1.553984-.241049 1.473926 3.066444 4.119854 8.122082 4.119854 8.122082-1.20547.352412-2.738812.765827-4.421508 1.143256-1.566787.351433-2.925119.583462-2.925119.583462.106409-3.281809.720537-6.593135 1.672789-9.607751zm3.123781-.529033c2.456322-.476122 6.971141-1.792918 6.971141-1.792918.313092.606871.876155 1.711066.876155 1.711066-.659447 1.027318-1.20541 2.131445-1.633331 3.283858-1.020471-.463102-5.280364-2.652869-6.213965-3.202006zm22.62658-8.715109c1.234286-.645573 2.688557-1.420211 4.384171-2.297897 1.551985-.803341 2.922463-1.481968 2.922463-1.481968-1.32102 2.320439-3.13889 6.248523-3.13889 6.248523-1.17279-.376763-2.396906-.63766-3.639242-.774308-.17755-.550338-.354349-1.116044-.528502-1.69435zm9.034949-4.616734c.566609-.261154 1.752017-.813119 1.752017-.813119 2.893037 1.234907 5.60509 2.881885 7.853899 5.034715-1.672376.63791-3.340774 1.340133-5.080339 2.136851-1.559836.714405-2.684222 1.275964-2.684222 1.275964-.722103-2.340461-1.371531-4.919849-1.841355-7.634411zm3.220285-1.464231c1.288363-.554291 2.856616-1.201481 4.659511-1.860427 1.65942-.606504 3.114478-1.063362 3.114478-1.063362.149041 2.546255 1.100011 7.720713 1.100011 7.720713-.377015.13364-1.135425.392032-1.135425.392032-2.213463-2.191242-4.882351-3.885107-7.738575-5.188956zm9.235153-3.36824c1.821374-.525864 6.165758-1.493902 6.165758-1.493902 2.725692 1.904256 5.163173 4.155595 7.109249 6.920825-2.716079.159253-5.409143.561016-8.067506 1.167266-2.462169.561484-4.198707 1.12919-4.198707 1.12919-.533304-2.514109-.901937-5.101894-1.008794-7.723379zm8.159949-1.843665c2.263431-.353233 7.648199-.727687 7.648199-.727687-.13342 2.462824.153084 7.927.153084 7.927-.231086.0063-.733047.003-.733047.003-1.917739-2.865708-4.339523-5.211557-7.068236-7.202318zm9.714813-.754191c1.529912.0108 5.336981.261476 6.847132.457644 2.365759.306325 4.323526.744438 4.323526.744438 2.750833 3.449489 4.975595 7.465927 6.617744 12.035809-3.619405-2.098733-7.469909-3.569261-11.48165-4.417313-3.614969-.76418-6.240153-.811988-6.240153-.811988-.199207-2.756023-.239486-5.400013-.0666-8.00859zm13.726105 1.829288c2.230431.619768 6.9132745 2.511303 6.9132745 2.511303-.033942 3.51909-.1118137 10.643138-.1118137 10.643138-.061237-.03296-.2418222-.166955-.2418222-.166955-1.6266647-4.901434-3.8154416-9.251291-6.5596476-12.987386-.000001-.000031-.000001-.000062.000009-.000089zm-61.295428 14.296672c1.276234 2.940654 3.325261 7.192865 3.325261 7.192865-1.086103.529855-2.357588 1.121633-3.75642 1.727445-1.28703.557393-2.383879.993545-2.383879.993545-.658436-1.230741-1.004413-1.866497-1.662849-3.097238-.58022-1.086742-1.072073-2.028581-1.072073-2.028581 1.370399-1.999378 3.215683-3.656838 5.549999-4.788055 0 0-.000039.000019-.000039.000019zm.721899-.32631c2.390082-1.004868 4.94155-1.343376 7.406527-1.150911.639105 1.856702 1.922032 5.18262 1.922032 5.18262-2.143659 1.167318-6.069788 3.167417-6.069788 3.167417-.97708-2.043052-2.147742-4.559454-3.258771-7.199126zm15.617345-7.23491c.491741 2.448122 1.793414 6.972376 1.793414 6.972376-.592826.306051-1.712176.876832-1.712176.876832-1.027293-.65945-2.131238-1.205635-3.283623-1.633581.443899-.978336 2.675981-5.320553 3.202385-6.215627zm-31.061008 13.024793c2.189442 1.258069 6.248606 3.139521 6.248606 3.139521-.376788 1.172993-.637329 2.39736-.773901 3.639915-.529884.178112-1.694606.528575-1.694606.528575-1.100405-2.088692-2.496158-4.704682-3.780099-7.308011zm8.67474.09865c.7887 1.480577 2.21792 4.124454 2.21792 4.124454-1.109544-.437631-3.498058-1.454793-3.498058-1.454793.345182-.929205.773014-1.824392 1.280138-2.669661zm15.110567-6.940413c.996126.133123 1.976688.352279 2.923306.653412-.536485 1.277254-1.421698 3.512124-1.421698 3.512124-.501962-1.299842-1.009617-2.696808-1.501607-4.165536m-16.651247 10.366381c1.229865.526588 3.512872 1.422252 3.512872 1.422252-1.317913.516182-4.166222 1.501813-4.166222 1.501813.133103-.996364.352165-1.977229.65335-2.924065zm20.330873-9.452416c.929224.345188 1.824478.773053 2.669746 1.280197-1.466958.781597-4.124358 2.218061-4.124358 2.218061.04478-.11359 1.406285-3.388237 1.454612-3.498258zm-64.692284 6.709338c3.41582 3.001223 6.74543 5.306226 10.12233 6.965494 3.02877 1.488207 5.21965 2.041565 5.21965 2.041565.22614 1.234306.857 4.908179 1.11492 6.388127.35633 2.044609.63149 3.597976.63149 3.597976-.53824-.08405-2.83091-.435506-5.63846-1.408324-2.87481-.996127-5.03502-2.205545-5.64119-2.543965-4.07741-2.282402-7.80636-5.637274-7.80636-5.637274.0623-3.782747.79937-6.744078 1.99762-9.403585 0-.000005 0-.000009 0-.000014zm18.76401 9.80767c2.33269.414207 4.68337.55573 7.07282.477002 2.200215-.07216 3.801792-.299975 3.801792-.299975 1.162129 2.960881 3.050177 8.122075 3.050177 8.122075-.357362.08665-2.034589.493656-4.062752.8075-2.088547.323187-3.642367.409202-4.059567.433391-2.97312.166586-5.66524-.119945-5.66524-.119945-.51545-3.162573-.48831-6.32511-.13724-9.420085 0 0 .00001.000037.00001.000037zm13.950964-.29247c1.621171-.29129 3.319882-.675521 5.052446-1.135341 1.573437-.417587 2.725773-.776109 2.725773-.776109 1.262987 2.42233 3.336538 6.791048 3.336538 6.791048-1.503307.621313-3.539905 1.420298-5.794582 2.171544-2.121431.706847-4.047423 1.212393-4.047423 1.212393-.90094-2.682827-1.275213-5.482609-1.272752-8.263535zm10.894064-2.91291c1.863566-.62715 5.182632-1.921989 5.182632-1.921989 1.173232 2.154706 3.166933 6.068991 3.166933 6.068991-1.132578.545258-2.652021 1.261274-4.280949 1.99119-1.537754.688985-2.917749 1.26744-2.917749 1.26744-1.004724-2.38992-1.343174-4.940975-1.150864-7.405627 0 0-.000003-.000005-.000003-.000005zm19.402088-8.799621c1.260332-.674424 1.841502-.990989 3.101834-1.665414 1.085301-.579469 2.02363-1.069549 2.02363-1.069549 1.999308 1.370458 3.656544 3.216165 4.787869 5.550527-2.927777 1.270792-7.191997 3.325062-7.191997 3.325062-.949451-1.959723-1.848794-3.971456-2.721334-6.140622 0-.000001-.000001-.000002-.000002-.000004zm8.266167-4.323889c1.300749-.632904 2.964471-1.419647 4.848611-2.218451 1.752715-.743081 3.324079-1.321198 3.324079-1.321198 1.819415 1.903424 3.263828 4.142416 4.272715 6.786348-2.146008.594393-4.3006 1.312914-6.511838 2.151698-1.968163.74656-3.356367 1.344337-3.356367 1.344337-.964135-2.191233-1.823551-4.405679-2.577206-6.742747 0 0 .000006.000013.000006.000013zm11.560426-4.686696c1.225429-.374416 6.228325-1.550447 7.483378-1.746285 2.730156-.428649 5.183432-.519325 5.183432-.519325 1.6482 2.570777 2.791522 5.426419 3.424532 8.577527-.601109-.05298-2.308592-.198088-4.588595-.110963-2.223783.08498-4.041291.356369-4.585341.438939-2.777176.416596-4.726228.950277-4.726228.950277-.871393-2.56177-1.616623-5.068367-2.191181-7.590178 0 0 .000003.000008.000003.000008zm16.819505-2.231961c-1.968513-.117814-1.774906-.08722-.501302-.02611 1.401128.06723 3.503321.237643 5.983414.73873 2.510217.507174 4.53099 1.175458 5.941546 1.707628 1.255144.473537 1.448218.520109-.494487-.181653 3.892509 1.412219 7.2141704 3.509569 7.2141704 3.509569 1.3662481 4.218832 2.1270099 8.550863 2.2111712 12.395565-.8615828-.755227-3.2017506-2.7804-6.3172566-4.666569-3.048768-1.845765-5.530753-2.761917-6.328661-3.051832-3.846866-1.4029-6.602637-1.666773-6.602637-1.666773-.485471-3.077915-.872174-5.977926-1.10596-8.758566 0 0 .000002.000013.000002.000013zm-44.036172 15.098236c.968799 1.96557 2.689973 5.41391 2.689973 5.41391-1.836339-.613572-5.709174-1.956535-5.709174-1.956535.562508-1.426318 1.592696-2.662745 3.019181-3.457365 0 0 .00002-.00001.00002-.00001zm.650471-.31912c1.501645-.642237 3.12619-.710945 4.603034-.299479-.707711 2.055259-1.934597 5.71876-1.934597 5.71876-.844652-1.691761-1.765537-3.545423-2.668437-5.419281zm-3.90132 4.465368c2.01312.7021 5.718324 1.934808 5.718324 1.934808-.908079.45667-2.131957 1.065771-3.315629 1.646377-1.135644.556811-2.10263 1.021385-2.10263 1.021385-.642217-1.501588-.71142-3.125927-.300105-4.602653 0 0 .00004.000083.00004.000083zm9.193626-4.534245c1.426366.562637 2.662485 1.593274 3.457111 3.019914-1.955119.963701-5.413488 2.689764-5.413488 2.689764.599147-1.793431 1.261055-3.756363 1.956373-5.709685.000002.000003.000003.000005.000004.000007zm-63.557809 9.365493c.72907.6412 3.12882 2.740348 6.32361 4.675677 3.12622 1.893785 5.67189 2.815036 6.33505 3.057565 3.8416 1.397788 6.58904 1.656872 6.58904 1.656872.52541 3.237181 1.10531 8.759139 1.10531 8.759139-2.92426-.167405-6.7243-.708116-10.91441-2.229494-3.89616-1.414659-7.22788-3.523162-7.22788-3.523162-1.36583-4.219403-2.12656-8.552041-2.21072-12.396617zm21.0793 9.604903c3.04714.278269 6.1126.140992 9.183701-.322259 2.772909-.418277 4.715358-.953845 4.715358-.953845.921278 2.674959 2.190681 7.590489 2.190681 7.590489-1.966408.608562-4.537785 1.2902-7.472173 1.749357-2.733097.427663-5.194167.514906-5.194167.514906-1.64793-2.571305-2.79071-5.427246-3.4234-8.578633zm15.204507-1.619036c2.164529-.590983 4.347294-1.322745 6.518676-2.14858 1.96459-.747193 3.34752-1.346205 3.34752-1.346205.541243 1.219377 1.124435 2.628258 1.687994 4.160397.518019 1.408551.888923 2.582432.888923 2.582432-1.279581.630388-2.964609 1.426782-4.839566 2.219926-1.75468.742268-3.331568 1.318828-3.331568 1.318828-1.819265-1.903642-3.263311-4.142765-4.271991-6.786831 0 0 .000012.000033.000012.000033zm10.796549-3.891544c2.946458-1.263854 7.192452-3.325122 7.192452-3.325122.5323 1.091093 1.124282 2.363286 1.729359 3.760635.556867 1.285808.991865 2.37977.991865 2.37977-.778664.423692-2.003622 1.086202-3.095587 1.66747-1.087339.578811-2.030247 1.067689-2.030247 1.067689-1.999277-1.370432-3.656591-3.216016-4.787843-5.550445 0 0 .000001.000003.000001.000003zm7.903296-3.67196c1.969426-.957444 5.4136-2.689805 5.4136-2.689805-.569409 1.728048-1.956293 5.709656-1.956293 5.709656-1.426329-.562401-2.66264-1.593181-3.457312-3.019861 0 0 .000005.00001.000005.00001zm6.932031-3.448925c.438679-.21765 2.883156-1.429822 3.321703-1.644658 1.133899-.557564 2.097008-1.023229 2.097008-1.023229.642173 1.501632.711382 3.126172.299876 4.602736-1.93704-.675438-3.945915-1.344212-5.718487-1.934649 0 0-.0001-.0002-.0001-.0002zm6.131003-3.010252c.405033-.192373 3.882974-1.808324 4.287598-1.989187 1.535724-.689621 2.910671-1.269406 2.910671-1.269406 1.004835 2.389707 1.343517 4.940456 1.151347 7.40494-1.842644.634421-5.182517 1.922164-5.182517 1.922164-1.176206-2.173154-2.182002-4.068142-3.167095-6.068504 0 0-.000004-.000007-.000004-.000007zm8.128127-3.645385c1.540941-.629331 3.557905-1.419473 5.804457-2.169724 2.119442-.707775 4.039579-1.215508 4.039579-1.215508.901159 2.682509 1.275556 5.48189 1.273165 8.262702-1.661695.307896-3.343849.690792-5.045223 1.139595-1.57699.416518-2.735012.773138-2.735012.773138-1.25167-2.416842-2.330718-4.56095-3.336953-6.790173 0 0-.000013-.00003-.000013-.00003zm11.143704-3.713594c2.130403-.507633 4.959972-1.05736 8.134024-1.236774 2.970263-.16792 5.654679.113615 5.654679.113615.51579 3.162143.488774 6.324196.137976 9.419053-2.283096-.39487-4.61873-.547144-7.063379-.469593-2.20097.06982-3.812349.294686-3.812349.294686-1.134427-2.915946-2.135665-5.498601-3.050947-8.120973 0 0-.000004-.000014-.000004-.000014zm15.604065-.88864c2.985788.474107 6.894674 1.502607 11.294042 3.964234 4.074337 2.279733 7.7927631 5.620413 7.7927631 5.620413-.06226 3.782362-.7993638 6.743972-1.9973231 9.403759-3.404339-2.979098-6.722469-5.281916-10.110354-6.950137-3.033387-1.493661-5.231868-2.053384-5.231868-2.053384-.640597-3.562245-1.239796-6.862398-1.747264-9.984906 0 0 .000004.000021.000004.000021zm-41.229723 11.925067c1.851652.618666 5.70973 1.956516 5.70973 1.956516-.562725 1.426166-1.593366 2.66197-3.020047 3.456447-.900813-1.841171-1.858423-3.751551-2.689683-5.412963zm-.628443.314689c.459133.913464 1.068041 2.136424 1.648175 3.319067.55667 1.134037 1.019346 2.098312 1.019346 2.098312-1.501354.642091-3.125253.711367-4.60175.300259.675307-1.936805 1.343824-3.945157 1.934129-5.717588 0 0 .0001-.00005.0001-.00005zm-61.098916 14.138006c.10041.07954.24181.167041.24181.167041 1.62664 4.902799 3.81534 9.254043 6.55933 12.991423-1.23902-.335712-2.72659-.800813-4.31686-1.413426-1.45372-.560008-2.59624-1.099891-2.59624-1.099891.0531-3.534071.0901-7.060578.11196-10.64516zm2.7398 1.747147c3.63026 2.116591 7.49597 3.586397 11.49395 4.428464 3.60944.760234 6.22598.804263 6.22598.804263.22585 2.894023.0663 8.009998.0663 8.009998-1.92961-.0061-4.26077-.116517-6.83337-.451237-2.36964-.308319-4.33648-.752482-4.33648-.752482-2.7505-3.450553-4.97434-7.468206-6.61636-12.039006zm19.69974 5.288046c.2633.0085.73215-.0029.73215-.0029 1.91765 2.866403 4.33976 5.212921 7.068481 7.204121-1.271551.205738-2.864861.416486-4.656361.561261-1.63477.132108-2.99145.165908-2.99145.165908.15648-2.587879.0855-5.208429-.15282-7.928383v.000002zm2.68424-.07089c2.66112-.147497 5.359885-.541351 8.077109-1.163357 2.454848-.561943 4.188079-1.131926 4.188079-1.131926.303538 1.400166.593434 3.03833.78762 4.790151.17901 1.614863.221187 2.934338.221187 2.934338-1.79518.531666-6.164379 1.493379-6.164379 1.493379-2.725816-1.904631-5.163496-4.15672-7.109616-6.922585zm13.63332-2.736413c.402035-.12734 1.136926-.392499 1.136926-.392499 2.21374 2.1917 4.883213 3.885576 7.739965 5.189414-1.264912.552658-2.860349 1.210384-4.652821 1.863656-1.66252.605909-3.12413 1.061221-3.12413 1.061221-.142595-2.634438-.542237-5.224578-1.09994-7.721792zm2.490727-.889671c1.715928-.646045 3.409143-1.362786 5.086046-2.134043 1.556347-.714777 2.67553-1.27742 2.67553-1.27742.408887 1.309457.849109 2.888672 1.245191 4.639631.365582 1.616074.596367 2.995645.596367 2.995645-.546169.267035-1.748877.811688-1.748877.811688-2.893321-1.234969-5.605278-2.882423-7.854257-5.035501zm8.71048-3.884435c.61132-.300398 1.712063-.876784 1.712063-.876784 1.02713.659415 2.130805 1.205367 3.283011 1.63328-.799608 1.782614-3.201671 6.215181-3.201671 6.215181-.488801-2.476031-1.113293-4.826033-1.793403-6.971677zm2.719899-1.404929c1.484229-.776139 4.122923-2.217324 4.122923-2.217324-.408696 1.058767-1.453887 3.496855-1.453887 3.496855-.92893-.344976-1.823993-.772652-2.669036-1.279531zm5.362195-2.889335c2.15944-1.161412 6.06873-3.166933 6.06873-3.166933.548156 1.137675 1.26409 2.657813 1.993192 4.284682.688348 1.535966 1.265064 2.911898 1.265064 2.911898-2.389729 1.004745-4.940539 1.343696-7.405109 1.151708-.630501-1.851971-1.285525-3.596668-1.921826-5.181378 0 0-.000051.000023-.000051.000023zm6.72432-3.486771c1.113632-.535194 2.347254-1.110159 3.763681-1.72541 1.285431-.558358 2.378101-.996342 2.378101-.996342.426834.784489 1.089206 2.008933 1.669701 3.099313.577907 1.085594 1.064907 2.02466 1.064907 2.02466-1.370738 1.999483-3.216917 3.65672-5.551746 4.788109-1.136523-2.633386-2.335179-5.156038-3.324655-7.190326 0 0 .000011-.000004.000011-.000004zm7.401651-3.218401c1.317945-.501906 4.165362-1.501642 4.165362-1.501642-.133117.995955-.352357 1.976596-.653477 2.923023.155286.06647-3.672126-1.482841-3.511885-1.421381zm5.171809-1.832594c.547864-.169587 1.695561-.528954 1.695561-.528954.565085 1.064485 1.515036 2.855084 2.304119 4.383251.801748 1.552694 1.476883 2.924009 1.476883 2.924009-2.167596-1.24497-6.250378-3.139106-6.250378-3.139106.376714-1.172826.637296-2.396815.773815-3.6392zm2.625256-.80334c1.229463-.351229 2.737727-.758199 4.430716-1.13988 1.564211-.352651 2.916472-.587658 2.916472-.587658-.106461 3.281934-.720347 6.593547-1.672778 9.608404-.524315.0829-1.553069.241093-1.553069.241093-1.398154-2.923651-2.926899-5.824727-4.121341-8.121959zm8.577925-1.928688c.346221-.04455 1.021253-.144549 1.021253-.144549.61071 1.489849 1.469928 3.607606 2.276197 5.698459.77762 2.016575 1.411492 3.789357 1.411492 3.789357-2.223714-.05095-6.33756.302445-6.33756.302445.909843-3.038225 1.511714-6.357894 1.628618-9.645712zm2.239476-.288892c1.710944-.176021 3.858468-.308941 6.235656-.187304 2.205934.112872 4.128995.467856 4.128995.467856-.463603 3.376028-1.303691 6.783588-2.257092 9.950831-1.624129-.301187-4.518939-.552414-4.518939-.552414-1.203133-3.518955-2.474955-6.813611-3.58862-9.678969zm11.950078.607791c.209788.05793.593083.144663.593083.144663.729563 3.562856 2.194708 11.508723 2.194708 11.508723-1.905221-.800003-5.226764-1.728162-5.226764-1.728162.998895-3.158003 1.905981-6.557654 2.438981-9.92517.01045.01206-.000008-.000054-.000008-.000054zm2.188441.595892c2.348482.737036 5.263937 1.943131 8.662233 4.130885 3.120318 2.008801 6.038413 4.567567 6.038413 4.567567-1.325013 2.653681-3.229189 5.271901-4.97438 7.712419-1.654774-1.205972-3.296498-2.302376-4.998129-3.282512-1.551866-.893872-2.737393-1.443133-2.737393-1.443133-.66314-4.205461-1.340212-8.056007-1.990744-11.685226zm16.9971591 10.772626c.094327.09884.2280749.215227.2280749.215227.056909 3.846116.1464075 11.665603.1464075 11.665603-2.1504808-1.88216-5.7378085-4.797929-5.7378085-4.797929 1.877799-2.247205 3.9451356-4.631214 5.3633262-7.082883 0 0-.0000001-.000018-.0000001-.000018zm-64.3911311.49946c.520725 1.329563 1.501814 4.165513 1.501814 4.165513-.996157-.132959-1.976852-.351888-2.923521-.652918-.06806.159006 1.484639-3.676682 1.421707-3.512595zm14.395155-6.898688c1.127612.44464 3.497085 1.45391 3.497085 1.45391-.345073.928783-.772817 1.823526-1.279762 2.668392-.758027-1.435841-1.539585-2.873942-2.217323-4.122302zm-16.202179 11.29711c1.173036.376887 2.397347.637419 3.639951.774.182875.544566.528981 1.695492.528981 1.695492-1.056099.560566-2.850682 1.512463-4.378509 2.301266-1.554417.802535-2.929929 1.479624-2.929929 1.479624 4.140226-7.207279 4.714236-10.050821 4.56226-9.665334-.203384.515884-1.361536 3.490205-2.923399 6.608606-1.648937 3.29225-3.096834 5.459318-3.489217 6.048138-.215173.322895 1.515981-1.374418 4.989862-9.241792zm20.581226-9.449342c1.791804.812835 6.216901 3.202266 6.216901 3.202266-2.433094.488909-6.97267 1.793641-6.97267 1.793641-.293346-.597123-.877339-1.71284-.877339-1.71284.65931-1.027144 1.205285-2.130829 1.633108-3.283067zm-76.429827 20.794927c1.49862.657017 3.16095 1.271428 4.94224 1.807465 1.63839.493032 2.95077.788027 2.95077.788027 3.16404 3.971346 6.73077 6.884632 10.33006 9.333771-3.29338.07075-7.22107-.0059-11.48638-.401755-3.92348-.364179-6.95484-.91695-6.95484-.91695.0888-3.567263.16137-7.075976.21815-10.610558zm10.45172 3.129514c2.03974.377375 4.21397.648008 6.4644.790733 2.07269.131452 3.67462.117267 3.67462.117267-.17924 2.311575-1.13329 6.944684-1.13329 6.944684-3.1358-2.128382-6.21939-4.624964-9.00573-7.852684zm12.21025.8753c3.28909-.100811 8.689019-.895857 8.689019-.895857 2.176953 1.485684 4.519637 2.764312 6.869032 3.893546-.112108.865065-.504447 2.696267-.504447 2.696267-2.667091.567444-5.986909 1.15866-9.822204 1.590962-3.53624.39859-6.61613.533314-6.61613.533314.73472-2.680183 1.17598-5.223411 1.38473-7.818232zm10.689737-1.27313c1.922556-.38589 5.202279-1.277714 5.202279-1.277714.03648 1.359187-.162477 4.133488-.162477 4.133488-1.722818-.855044-3.423422-1.799375-5.039802-2.855774zm6.673714-1.716338c1.890467-.581144 3.824467-1.264451 5.789277-2.045261 1.777772-.706484 3.060095-1.282884 3.060095-1.282884.272572.113182.5455.225351.821588.332226-1.165863 1.68215-2.694338 3.652083-4.65946 5.692259-1.808502 1.877557-3.550563 3.31901-3.550563 3.31901-.560553-.244992-1.118544-.497837-1.672881-.756523.20946-1.793937.266012-3.552365.211944-5.258827zm12.144563-4.841435c3.068945-1.459215 8.121907-4.120541 8.121907-4.120541.354708 1.213052.76821 2.747367 1.145259 4.428192.351088 1.565082.582471 2.918927.582471 2.918927-3.28195-.10619-6.593477-.71968-9.608333-1.672036-.07407-.525992-.154884-1.044684-.241304-1.554542zm8.924486-4.537036c2.426933-1.24784 6.790653-3.33677 6.790653-3.33677.62453 1.511574 1.423715 3.548348 2.174632 5.801812.706343 2.119872 1.210818 4.040917 1.210818 4.040917-2.682784.901016-5.482452 1.275491-8.263453 1.273207-.514345-2.817452-1.223448-5.49727-1.912618-7.779179 0 0-.000032.000013-.000032.000013zm7.522496-3.662957c1.240044-.540586 2.614958-1.110651 4.163918-1.682766 1.40804-.52006 2.580344-.89486 2.580344-.89486.634412 1.287485 1.430952 2.973111 2.223434 4.846342.741573 1.752889 1.316435 3.324737 1.316435 3.324737-1.903895 1.819714-4.143296 3.264464-6.787933 4.273443-1.021188-3.711856-2.355238-7.160148-3.496168-9.86691 0 0-.00003.000014-.00003.000014zm7.52948-2.825359c1.32735-.404547 2.878454-.837795 4.642503-1.239227 1.615057-.367524 2.992659-.602483 2.992659-.602483.275596.563979.81289 1.751028.81289 1.751028-1.234897 2.893087-2.882104 5.604948-5.035029 7.85368-1.097534-2.895233-2.31426-5.535197-3.413023-7.762998zm10.525531-2.26334c1.243555-.141514 2.717581-.270515 4.356316-.310197 1.506131-.03647 2.773408.02612 2.773408.02612.82198 2.328786 2.372985 7.555709 2.372985 7.555709-.226715.569186-.45804 1.137277-.696018 1.700982.0213.02473-1.281183-1.491749-2.702557-2.887756s-2.96467-2.668615-2.939487-2.64782c-1.917551-1.582257-3.454553-2.592043-3.454553-2.592043.100501-.279744.195576-.562083.289906-.844997zm8.235549-.216391c1.172706.09881 3.754281.494368 3.754281.494368-.583523 1.852201-1.233845 3.721443-1.914092 5.51385-.594431-2.130186-1.216966-4.132746-1.840189-6.008218zm5.145906.79008c1.009659.243343 2.204954.572671 3.578834 1.068173 1.238321.446611 2.258269.907467 2.258269.907467.404726 2.332529.862532 5.174217 1.308394 8.318168.411908 2.904594.709132 5.367652.709132 5.367652-1.981007-1.100924-3.463326-1.756785-3.48711-1.767598-.294345-.133816.06113.02626.416374.192692.710484.332872 1.459399.389067-3.077066-1.289918-1.927008-.706319-3.392176-1.046013-3.392176-1.046013-.324983-1.534131-1.032712-4.3459-1.032712-4.3459.964842-2.378576 1.905281-4.934386 2.718061-7.404723zm7.206229 2.617899c1.163812.580665 2.528812 1.321295 4.164587 2.362015 1.467825.933865 2.718825 1.842619 2.718825 1.842619-1.895555 2.661134-3.457894 4.955405-5.237266 7.850381-.510331-4.29065-1.062063-8.259775-1.646146-12.055015zm8.74269 5.581533c1.103884.84846 2.322336 1.813536 3.8726417 3.107241 1.37591 1.148175 2.5662077 2.183711 2.5662077 2.183711.078552 3.978297.2122194 11.90953.2122194 11.90953-2.9998568-2.032126-6.0747528-4.207166-8.7559478-6.00475-2.491022-1.670085-4.208335-2.698182-4.208335-2.698182 2.100741-3.214949 3.996238-5.69833 6.313215-8.49748 0 0-.000001-.00007-.000001-.00007zm-65.443712 6.682766c.279465.100412.561425.195681.844064.289937.149733 1.227901.280017 2.725543.317049 4.353464.03427 1.507094-.03315 2.776002-.03315 2.776002-2.309182.814902-7.554844 2.371961-7.554844 2.371961-.569191-.226733-1.137297-.458075-1.700978-.696106.485351-.417907 2.326526-1.999975 4.351149-4.263786 2.032878-2.273042 3.403615-4.285268 3.77671-4.831472zm35.501798-13.748635c-.403148-.28101 1.340133.90984 2.952269 2.230444s3.091732 2.77223 2.743511 2.4369c1.876835 1.806272 3.316831 3.542435 3.316831 3.542435-.244774.560193-.497512 1.117766-.755982 1.671745-1.788835-.196976-5.259936-.211775-5.259936-.211775-.578335-1.880499-1.260251-3.811872-2.042833-5.781016-.707592-1.780468-1.286041-3.067134-1.286041-3.067134.113169-.272568.225318-.545506.332181-.821599zm-.815088 1.932615c.556662 1.273819 1.214467 2.870098 1.866744 4.659787.605003 1.659963 1.058541 3.115482 1.058541 3.115482-2.531445.148396-7.721683 1.100364-7.721683 1.100364-.12021-.380417-.392283-1.135793-.392283-1.135793 2.191488-2.213689 3.885034-4.883094 5.188697-7.739781 0 0-.000016-.000059-.000016-.000059zm-32.670352 12.477429c3.038328.909913 6.357798 1.511736 9.645783 1.628617.0595.339954.144499 1.020676.144499 1.020676-1.480968.606984-3.600537 1.466836-5.692061 2.273269-2.018377.778225-3.795872 1.413685-3.795872 1.413685.0601-2.2176-.07299-4.360292-.302349-6.336247zm-52.823317 12.79795c3.56862.52243 7.67084.901234 12.11694 1.027015 4.0402.114301 7.11232-.02056 7.11232-.02056-.42123 1.537706-.9802 3.27195-1.73328 5.335158-.68277 1.870607-1.34362 3.527787-1.34362 3.527787-3.2524.22939-6.42563.41728-10.3706.64427-3.43766.19779-6.10305.36038-6.10305.36038.12163-3.698648.22906-7.300306.32129-10.874048zm22.30472.862423c6.58576-.388075 5.61298-.468846 4.61948-.368391s-1.96655.386964 4.619147-.566351c2.899062-.416452 5.02094-.839976 5.02094-.839976-2.567371 1.714265-8.706687 5.030994-8.706687 5.030994-.96092-.542802-4.57562-2.648146-5.55288-3.256276zm17.02126-2.336822c1.559432-.330313 4.34842-1.032888 4.34842-1.032888 2.377929.964323 4.933546 1.904179 7.403184 2.716463-.228939.994405-.566961 2.215914-1.060613 3.577914-.44917 1.239274-.915237 2.26049-.915237 2.26049-2.321581.402748-5.161876.860433-8.309021 1.30671-2.907391.41227-5.37704.71021-5.37704.71021 1.974208-3.530794 3.172121-6.570155 3.910307-9.538899zm6.534426-1.620188c2.143714-.589997 6.006777-1.839154 6.006777-1.839154-.07997 1.165843-.49428 3.752944-.49428 3.752944-1.851746-.583449-3.720565-1.23362-5.512497-1.91379zm7.218444-2.247546c3.593703-1.219481 9.679186-3.587853 9.679186-3.587853.06233.57645.176233 1.739972.22125 3.139456.04583 1.424754.0022 2.5089-.02728 3.093725-.114751 2.20657-.474222 4.130526-.474222 4.130526-3.376121-.463446-6.78411-1.303948-9.951318-2.257289.299103-1.560108.470204-3.071623.552379-4.518565zm10.646782-3.964102c2.887696-1.112743 8.121893-3.050731 8.121893-3.050731.087.3596.494268 2.036439.808702 4.067291.323656 2.090422.409805 3.645474.434076 4.064053.16634 2.970479-.119081 5.655183-.119081 5.655183-3.16257.515787-6.325113.488953-9.420326.138129.693606-3.960997.561218-7.690872.174725-10.873922 0 0 .000011-.000003.000011-.000003zm8.979407-3.346235c2.680525-.899678 7.59225-2.19155 7.59225-2.19155.612198 1.977407 1.29328 4.549844 1.751884 7.481036.427135 2.730008.514415 5.183148.514415 5.183148-2.571435 1.648615-5.427703 2.792244-8.579778 3.425322.469308-5.239511-.320689-10.070471-1.278811-13.897942 0 0 .00004-.000014.00004-.000014zm8.434313-2.376819c1.419219-.294369 3.026262-.580024 4.792732-.779073 1.613921-.181855 2.931638-.230031 2.931638-.230031.539356 1.820706 1.494044 6.163902 1.494044 6.163902-1.904224 2.725646-4.15603 5.162742-6.921301 7.108829-.264477-4.625147-1.224758-8.803196-2.297113-12.263627zm8.605651-1.035063c1.365906-.01243 4.132943.162304 4.132943.162304-.854742 1.722424-1.798912 3.422709-2.854855 5.038772-.375534-1.835431-.81095-3.571731-1.278088-5.201076zm5.547677.33368c.871493.13674 2.697532.504608 2.697532.504608.570353 2.679791 1.161319 6.002097 1.593123 9.833885.398161 3.533246.532633 6.605112.532633 6.605112-1.437236-.385342-3.140155-.736266-4.870388-1.005019-1.620459-.251703-2.94765-.379553-2.94765-.379553-.100301-3.260288-.897517-8.692319-.897517-8.692319 1.485006-2.176146 2.763319-4.518349 3.892267-6.866714zm4.34599.932854c1.425084.417345 3.048217.986528 4.928476 1.83888 1.709305.774857 3.196237 1.600378 3.196237 1.600378-2.473585 4.202123-3.316374 5.814744-3.284397 5.758564.03198-.05618.926078-1.644773 1.797172-3.178145s1.733782-2.995398 1.764616-3.046992c.03083-.05159-.723894 1.208009-3.27496 5.720551-.05334-.100415-1.2205-2.314047-2.46682-4.446005-1.246321-2.131958-2.598437-4.155591-2.660324-4.247231zm9.894173 4.444857c2.183906 1.292577 4.278602 2.659586 7.603543 4.889179 2.8978536 1.943215 5.7926413 3.853612 5.7926413 3.853612.099473 4.050648.2810627 11.95795.2810627 11.95795-2.853289-1.08648-5.499135-2.19351-8.201023-3.358017-2.407264-1.037517-4.064838-1.76098-4.064838-1.76098-.411328-5.495651-.856815-10.520356-1.411386-15.581744zm-71.996948 9.898886c-.399894 1.412661-.977562 3.056695-1.82898 4.927806-.778249 1.710294-1.610555 3.198339-1.610555 3.198339-2.973343-1.750337-4.16933-2.386801-4.27744-2.447692-.10811-.06089.804075.452888 1.696488.959958s1.761902 1.010288 1.65857.950585c-.103332-.0597-1.139749-.656204-4.332628-2.461487.0994-.05281 2.313883-1.220318 4.44665-2.467005 2.132767-1.246688 4.157154-2.599232 4.247895-2.660504zm61.643058-13.374214c1.768856 2.667648 5.032212 8.707716 5.032212 8.707716-.549406.972746-2.640457 4.564314-3.255966 5.553643-.314315-5.20611-.958026-9.965995-1.776246-14.261359zm9.359007 4.386199c.263714 2.303162.537607 4.9877.797979 7.956258.238598 2.720318.400902 4.949763.400902 4.949763-1.406857-2.637879-4.134149-7.97628-4.134149-7.97628 1.003453-1.720662 1.93608-3.317021 2.935268-4.929741zm-87.53049 11.225158c1.75871 1.103884 3.57638 2.173115 5.25895 3.154288-2.59744 1.335964-7.95803 4.036374-7.95803 4.036374 1.1097-2.646198 1.98836-4.926574 2.69908-7.190662zm69.699765-9.666074c.20834 1.286563.418838 2.8825.563203 4.670006.131776 1.631624.165447 2.981106.165447 2.981106-1.371309-.07418-3.127022-.06368-4.88057-.0011-1.662955.05931-3.047378.154425-3.047378.154425.0084-.233653-.0031-.736107-.0031-.736107 2.865773-1.91762 5.21158-4.339925 7.202395-7.068288 0 0 .000008-.000002.000008-.000002zm-38.482049 8.462019c3.158139.998517 6.558232 1.905662 9.925879 2.43824-.03929.206433-.144921.594298-.144921.594298-3.543949.725602-11.508912 2.194262-11.508912 2.194262.777786-1.827927 1.332129-3.565834 1.727954-5.2268zm-24.975716 4.93136c1.72059 1.003573 3.317184 1.936307 4.929917 2.935547-2.290567.26223-4.972397.53599-7.945307.79674-2.7236.23888-4.96026.40167-4.96026.40167.11283-.0602 7.86192-4.07477 7.97565-4.133957zm77.780197-9.039691c1.344436 2.637956 4.03755 7.960532 4.03755 7.960532-2.610467-1.080615-7.191886-2.700109-7.191886-2.700109 1.103882-1.759165 2.173135-3.577495 3.154336-5.260423zm-105.391937 15.637498c2.92189-.22186 5.54704-.3978 9.19575-.645 3.11551-.21108 5.60599-.38822 5.60599-.38822-.81808.46702-2.98669 1.70868-5.37289 3.33826-2.44799 1.67178-4.20438 3.12189-4.9608 3.75686-3.00025 2.51197-4.84405 4.43003-4.84405 4.43003.13497-3.56924.26165-7.08167.376-10.49193zm17.87265-1.25656c2.99597-.21929 6.3925-.49494 9.89937-.82825 3.219692-.30602 5.681691-.58267 5.681691-.58267-.390555.66776-1.115305 1.87626-2.284121 3.68266-1.01884 1.5746-2.24895 3.403-2.59477 3.92018-1.94621 2.89827-3.86152 5.79309-3.86152 5.79309-4.02955.0991-11.95798.28125-11.95798.28125 1.81597-4.74457 3.75916-9.10299 5.11733-12.26626zm18.895283-1.78937c4.271122-.49866 12.053885-1.64551 12.053885-1.64551-.590956 1.20853-1.360517 2.61041-2.384801 4.21227-.928832 1.45259-1.81843 2.6698-1.81843 2.6698-2.661381-1.89533-4.95565-3.45726-7.850654-5.23656zm13.4639-1.865141c2.529441-.392447 4.654501-.722913 7.46799-1.216047 2.393309-.419487 4.217485-.77431 4.217485-.77431-.725393 2.343778-1.93418 5.265538-4.122443 8.661288-2.011047 3.12076-4.574749 6.03895-4.574749 6.03895-2.653898-1.3248-5.27258-3.22924-7.713372-4.97423 2.093863-2.85868 3.597113-5.36966 4.725089-7.735651zm12.881125-2.205018c1.802588-.317777 4.582724-.786992 6.385313-1.104769 2.04558-.359778 3.600792-.642399 3.600792-.642399-.08417.539876-.435546 2.834743-1.409129 5.644867-.996934 2.87752-2.207697 5.03962-2.547208 5.64754-2.28137 4.07423-5.626499 7.79243-5.626499 7.79243-3.78273-.0623-6.744603-.79909-9.404851-1.99711 5.211791-5.94516 7.708828-10.94394 9.00156-15.340556 0 0 .000022-.000003.000022-.000003zm11.018514-1.912518c3.233368-.494716 8.761025-1.106185 8.761025-1.106185-.16775 2.940298-.711283 6.741802-2.231491 10.927392-1.413577 3.89201-3.514942 7.21328-3.514942 7.21328-4.219602 1.36659-8.552623 2.12789-12.398062 2.21203 6.303413-7.18054 8.601163-13.8459 9.38348-19.246518 0 0-.00001.000001-.00001.000001zm9.683784-1.178387c2.763417-.183631 8.009506-.06678 8.009506-.06678-.0059 1.945608-.117615 4.279035-.451848 6.846344-.307929 2.3652-.749763 4.32242-.749763 4.32242-3.449522 2.75075-7.465891 4.97502-12.035613 6.61721 3.668274-6.31116 4.962066-12.550568 5.227718-17.719196zm8.877905-.0012c2.311117.212864 6.943344 1.132886 6.943344 1.132886-2.12759 3.135416-4.623256 6.218758-7.8495 9.004928.643713-3.52481.90223-6.951073.906156-10.137814zm8.768641 1.609573c1.57055.449153 3.240395.984957 5.335697 1.745286 1.870387.678712 3.527056 1.332252 3.527056 1.332252.23023 3.263333.418534 6.444173.645147 10.381503.197646 3.434.35985 6.09216.35985 6.09216-3.712359-.10788-10.87242-.32166-10.87242-.32166.925562-6.3937 1.212654-13.02035 1.00467-19.229541zm10.787048 3.835838c1.577297.631843 4.181311 1.673213 6.637285 2.604313 2.4433595.92632 4.7217216 1.72214 4.7217216 1.72214.1127903 3.67429.3319972 10.91588.3319972 10.91588-4.2977488-4.36567-7.7622168-8.45687-11.6910038-15.242333zm-77.505839 2.499783c3.216157 2.10152 5.697694 3.99637 8.498014 6.31418-.8148 1.0758-1.824857 2.34872-3.09828 3.87159-1.150472 1.37583-2.190567 2.56612-2.190567 2.56612-3.957209.0782-11.909568.21235-11.909568.21235 4.07582-6.00201 6.266288-8.92126 8.700401-12.96424zm65.841666-5.579391c.07141 3.309591-.0062 7.240161-.401721 11.500501-.363842 3.91931-.914886 6.94255-.914886 6.94255-3.553556-.0713-10.608246-.21829-10.608246-.21829.649665-1.48273 1.263604-3.14013 1.801796-4.92797.49455-1.64286.791679-2.96496.791679-2.96496 3.970338-3.16457 6.882915-6.73233 9.331378-10.331831zm-84.827787 7.527241c-.61172 1.561-1.66596 4.19624-2.59461 6.63748-.92977 2.44417-1.73076 4.72285-1.73076 4.72285-3.6534.11229-10.91695.33225-10.91695.33225 4.36601-4.29839 8.45663-7.76329 15.24232-11.69258zm95.772933-3.49495c-.256099-.45053 1.426795 2.57735 3.338334 5.37855 1.911538 2.80119 4.079396 5.35112 3.757164 4.96573 2.5113624 2.99681 4.4289898 4.83538 4.4289898 4.83538-3.5678928-.12433-10.4909928-.37648-10.4909928-.37648-.373083-4.78346-.680349-9.81956-1.033495-14.80318zm-21.53358 7.25979c-.340581 1.25789-.807447 2.74751-1.417882 4.33168-.558276 1.44882-1.093739 2.58225-1.093739 2.58225-3.499882-.0338-10.64287-.11188-10.64287-.11188.05209-.0608.166326-.24087.166326-.24087 4.901921-1.62687 9.251912-3.81682 12.988182-6.56118zm-45.933604 1.28199c2.247509 1.87761 4.632151 3.94512 7.084092 5.36308-.07801.0938-.214298.22717-.214298.22717-3.82545.0568-11.665804.14649-11.665804.14649 1.853196-2.10586 3.419747-3.97383 4.796033-5.73674z" transform="translate(132.07957 9.524996)"/></svg>