<svg height="5in" viewBox="0 0 127 127" width="5in" xmlns="http://www.w3.org/2000/svg">
	<path d="m-68.584065-9.5251085c.00005 0-.04245.001-.0425.001-21.156552.020174-63.453015-.000522-63.453015-.000522.0101 21.1942465 0 63.4949865 0 63.4949865.0202 21.190819 0 63.496004 0 63.496004 21.16174.01 63.471402-.00044 63.471402-.00044.01332.00044.02656.00087.04076.00087s.02916-.00043.04336-.00043c21.148034.0197 63.4355223 0 63.4355223 0 .010098-21.155979 0-63.513961 0-63.513961.020218-21.141806 0-63.4770295 0-63.4770295-21.1611363.010448-63.4550293.000522-63.4550293.000522-.01325-.0000201-.02625-.0009799-.0405-.001zm-61.282145 1.3454451c3.6542.1566036 10.28521.3985676 10.28521.3985676-.1127 2.7863464-.24238 6.1286743-.30537 10.104271-.0573 3.6148332-.0314 6.6398988-.0314 6.6398988-2.7465-8.47760392-5.65669-12.6975717-9.94846-17.1427374zm11.47535.4424078c3.63608.1479321 10.34878.3430242 10.34878.3430242-1.7673 3.7499045-3.093 8.3961393-3.87028 13.9718796-.69781 5.0057398-.72868 8.9740868-.72868 8.9740868-1.0877-.586941-2.27622-1.360658-3.78747-2.457446-1.35682-.984708-2.62054-1.952176-2.62054-1.952176-.047-6.9349222.22785-13.2421481.65816-18.8793687 0 0 .00003.0000001.00003.0000001zm11.46824.3748049c3.35678.1116883 9.977911.2232692 9.977911.2232692-1.488288 1.5433778-2.911488 3.4588263-4.120991 5.4473574-1.13183 1.86082435-1.84369 3.4002605-1.84369 3.4002605-4.33571 3.7981052-7.02859 8.3292476-9.05228 12.8962026.34533-7.562262 1.72029-15.6082198 5.03905-21.9670897zm11.087567.2409717c3.266721.06986 10.131089.096416 10.131089.096416-.137459.1037588-.349319.2495178-.349319.2495178-6.055164 1.7174429-11.261567 4.0601839-15.466377 7.33709941 1.40615-2.68432841 3.244615-5.28074241 5.684589-7.68303291.0033.01046.000018 0 .000018-.0000003zm35.978331-.042943c3.885609-.028523 12.165368-.1649946 12.165368-.1649946-3.486889 2.0960229-8.736518 5.3323162-8.736518 5.3323162-1.451381-1.6311654-2.504929-3.5689554-3.839722-4.9441875.136035-.074129.27307-.1485145.410851-.2231341.0019.00974.000021 0 .000021 0zm13.546465-.1859965c4.142103-.047515 12.568913-.2112613 12.568913-.2112613-3.443382 2.9002687-7.078591 5.4713774-10.110991 7.69307948-2.790192 2.04425392-4.468213 3.40385462-4.468213 3.40385462-3.307664-1.468531-5.679888-3.015787-7.559297-4.9464756 2.955497-1.9430355 5.537174-3.4700706 9.569588-5.9391972zm13.972213-.2373311c4.263515-.065489 12.51215-.2628019 12.51215-.2628019-1.547255 2.7551636-3.186324 5.1194646-4.893535 7.32334902-1.526199 1.97020398-2.601588 3.21353688-2.601588 3.21353688-3.725586.079977-7.871408.2372824-12.352272.5341052-4.064818.2692634-7.161515.5780691-7.161515.5780691 4.130114-3.41596025 7.580421-5.2627013 14.49676-11.3862583zm13.881655-.2957131c3.853212-.081238 11.1297917-.310905 11.1297917-.310905-.4886811.4755555-2.2268988 2.1771289-4.3404277 3.76408-2.253632 1.6921472-4.222803 2.7386088-5.038234 3.1646204-3.948542 2.05638416-7.952339 3.2860741-7.952339 3.2860741 1.786647-2.42436661 4.058004-5.6430406 6.201209-9.9038695zm-55.429529.8607029c-1.501689.865537-5.569593 3.2376069-9.196165 6.56493901-3.53646 3.24465589-5.261321 6.12028389-5.78419 6.99967339-2.591789 4.3517574-3.042215 7.5858054-3.042215 7.5858054-2.930217 1.088058-7.278198 2.45993-7.278198 2.45993-.286683 2.563206-.220318 2.361177-.07786.778527.154828-1.720032.518814-4.419836 1.520005-7.4815385 1.02768-3.1427033 2.354502-5.5339497 3.445681-7.206556.957302-1.4673944 1.009684-1.6707305-.45756.7249139 2.772377-4.5184532 7.094411-8.0766022 7.094411-8.0766022 4.894089-1.4766382 9.927247-2.2541243 13.776034-2.3490957-.0077.010055-.000007.0000041-.000007.0000041.0011.010039.00006-.0000004.00006-.0000004zm1.22822-.0073c3.729829.051678 6.021345.7820698 7.838876 1.9230044-5.7782 3.3738505-9.968337 6.5865407-13.002352 10.1302349-2.673843 3.1230048-3.596072 5.4641565-3.596072 5.4641565-3.637118 1.154253-9.574135 3.304937-9.574135 3.304937.74847-3.0591 2.202463-6.5336948 4.988409-10.0593801 2.844466-3.59974336 6.94631-7.1250098 13.345264-10.7629525.0011.010011.00001-.0000002.00001-.0000002zm-58.091602-.2566282c-.0929-.096037 1.97781 1.9633636 3.76449 4.3438473 1.78668 2.38048377 3.23102 5.1697703 3.16471 5.0421694 2.05631 3.94445 3.28571 7.9378223 3.28571 7.9378223-1.31555-.9598088-3.23445-2.3469488-5.51614-3.7480019-2.16046-1.3266041-4.388-2.4479445-4.388-2.4479445-.0924-3.7878876-.19413-7.4825376-.31077-11.1278926zm124.3157106-.024672c-.1329902 3.6116831-.398793 10.2811992-.398793 10.2811992-2.7703312-.1116949-6.1141996-.241293-10.0919706-.3041388-3.618533-.057171-6.65227-.031068-6.65227-.031068 8.477316-2.74621509 12.698543-5.6556662 17.1430336-9.9459924zm-82.9107496 3.1766892c-4.373867 3.92321807-7.215866 8.3789568-8.896428 13.2647834-1.510305 4.3908634-1.665318 7.6511294-1.665318 7.6511294-2.285615.611964-5.957065.772642-5.957065.772642.14325-2.543837.65529-6.203854 1.24951-8.6455363.71838-2.9551175 1.69467-5.3146865 1.69467-5.3146865 3.652585-3.39816488 8.185227-5.9060219 13.574628-7.7283277 0 0 .000003-.0000043.000003-.0000043zm25.122231-.5694427c1.756346 1.2488365 3.332977 2.9801246 5.188166 4.4415272-2.12782 1.4741428-4.081535 2.9747647-5.805596 4.5661915-1.551824 1.4324458-2.452821 2.5188633-2.452821 2.5188633-2.665055.5578281-5.536871 1.2404781-8.355784 1.9947121-2.607057.6975495-4.537883 1.2893014-4.537883 1.2893014 2.282111-4.5119739 6.536617-9.23929492 15.963918-14.8105955zm5.877835 4.96669242c2.04941 1.51282158 4.370323 2.76659928 7.357052 3.97421618-2.877353.3350498-6.170815.7973468-9.381554 1.3219373-2.999199.4900278-5.276944.9310403-5.276944.9310403 1.765092-1.9497949 4.079662-3.957332 7.301446-6.22719378zm-45.784487 4.52195558c-.82354 2.3967589-1.46973 5.0502937-1.89032 7.9598515-.38425 2.658172-.46615 4.772462-.46615 4.772462-.91416-.06254-1.94137-.239957-3.04516-.593845-1.01-.323821-1.83422-.72419-1.83422-.72419 1.7088-4.010722 3.92742-7.9683619 7.23585-11.4142785zm-26.27682.4282977c2.7637 1.5634093 5.11412 3.1943521 7.32553 4.9033118 1.97045 1.522749 3.21372 2.588946 3.21372 2.588946.08 3.741274.23783 7.889546.53423 12.363708.26894 4.059683.57684 7.147821.57684 7.147821-.56994-.685913-1.43627-1.759585-2.93732-3.74735-1.27315-1.685967-2.803-3.738779-3.23951-4.312569-2.46284-3.246797-5.21079-6.432598-5.21079-6.432598-.0787-4.188335-.16565-8.4111284-.2627-12.5112698zm11.95582 8.6734868c1.99972 1.68413 5.16583 3.928556 5.16583 3.928556-.85447 2.220856-1.6247 4.492574-2.31335 6.544986.0231.08103-.73377-2.614407-1.44858-5.285847-.7148-2.67144-1.42565-5.265736-1.4039-5.187695zm6.39727 4.64898c1.85036 1.014336 5.4916 1.64158 5.4916 1.64158-.0169 4.266266.97444 11.05488.97444 11.05488-.86459 2.912418-1.48889 5.973946-1.98189 8.949157-.66408-.08978-2.11279-.550302-2.11279-.550302-1.39177-5.952196-2.38027-13.233146-2.37136-21.095315zm6.10828 1.666067c1.6971.04631 5.86773-.968765 5.86773-.968765-.006.322073-.0226.902642-.0226.902642-2.24879 2.755022-3.86476 6.092089-5.07504 9.778853-.49032-2.965454-.79234-6.249833-.77007-9.712733 0 0-.00003.000003-.00003.000003zm25.002868-8.424472c2.041733-.704818 4.633808-1.52516 7.579334-2.3466007 2.706474-.7547745 5.025474-1.3124147 5.025474-1.3124147-1.359816 1.8270204-2.685654 4.8813964-2.685654 4.8813964-3.353095-.318914-6.980713-.609665-10.154864-.603178.07434-.20529.152776-.41171.235721-.619207.0083.0085-.000011.000004-.000011.000004zm14.228076-4.0311298c2.773246-.6136726 6.081717-1.2651621 10.01194-1.8745012 3.585607-.5559114 6.692255-.9094857 6.692255-.9094857-1.800542 1.5978683-3.326591 3.2068827-4.478614 4.9161706-1.036857 1.5384321-1.45502 2.7073821-1.45502 2.7073821-1.902667.471869-5.288298 1.486624-5.288298 1.486624-2.769553-.346451-5.913093-.690757-8.537618-.951399.596981-1.69755 1.559575-3.493046 3.055355-5.3747908zm20.788778-3.2196569c2.93458-.2794207 6.286565-.5407847 10.071098-.7316273 3.442972-.1736193 6.221272-.2310392 6.221272-.2310392-3.48068 1.022347-10.543304 2.9938831-10.543304 2.9938831-2.064954-.6935698-3.959458-1.3371062-5.749068-2.0312128.01039.00721.000002-.0000038.000002-.0000038zm20.161758-1.021257c3.874001-.022771 7.961984.044469 12.291403.2493696 3.8902426.1841151 6.5950011.4073112 6.5950011.4073112-.1176446 3.6241257-.3431882 10.3456009-.3431882 10.3456009-3.7366179-1.759336-8.3753309-3.086475-13.9621529-3.865231-5.012976-.6987674-8.993217-.7291985-8.993217-.7291985 1.100153-1.9959859 2.482162-3.8325639 4.412154-6.4078498zm-66.534679 12.7478647c-.09717.697672-.361299 2.684757-.212441 5.288213.145682 2.547973.623795 4.537143.772102 5.143975.741804 3.053397 1.705394 5.04932 1.705394 5.04932-2.187425 1.90365-5.944246 4.756937-5.944246 4.756937-.598494-1.328925-2.428863-7.063961-2.716016-8.542474-.633776-3.251821-.699172-6.265734-.699172-6.265734 1.983659-2.413273 4.342162-4.196872 7.094375-5.430266.007.008-.000004.000032-.000004.000032.0077.0098.000008-.000003.000008-.000003zm.887951-.373524c2.777718-1.094718 5.70888-1.581666 8.67597-1.772273-.621182 2.417822-.773806 4.888547-.479427 7.379054.2662 2.252073.799871 3.830789.799871 3.830789-2.661739 2.093822-6.927617 5.819067-6.927617 5.819067-1.677987-3.917127-3.009351-9.261949-2.068788-15.256641.0077.0097-.000009.000004-.000009.000004zm-21.261172 3.638852c.0521 3.806271.32282 7.841839.86607 11.958743.49216 3.729751 1.06227 6.393065 1.06227 6.393065-1.601-3.349228-4.2375-11.39441-4.2375-11.39441.49925-1.601402 1.6821-5.24915 2.30916-6.957398zm64.211557-14.3230826c3.800327 1.3527308 5.514092 1.8056782 5.578424 1.8257014.06432.020022-1.312477-.4075104-2.61327-.8273154-1.300792-.4198051-2.514416-.8404413-2.457527-.8207507.05689.01969 1.235495.4486522 5.652594 1.8290414-2.355539.7377585-4.888654 1.5913951-7.406127 2.6076345-2.313439.9338754-3.989288 1.7728294-3.989288 1.7728294.998356-2.0028263 2.633251-4.0500284 5.235189-6.387129.0104.00712.000005-.0000116.000005-.0000116zm19.955649-1.0913835c-1.647346 1.99954-3.931123 5.1672169-3.931123 5.1672169-2.221627-.8542899-4.494513-1.6246451-6.547385-2.3131842-.08207.023394 2.615082-.7341238 5.288301-1.449448 2.673221-.7153243 5.269271-1.4266161 5.190207-1.4045847zm-90.487296 10.9089241c1.01086 3.474819 2.99303 10.540761 2.99303 10.540761-.69382 2.065004-1.3375 3.958376-2.03173 5.748358-.50354-5.225441-.83102-10.707197-.9613-16.289119zm18.93355 7.521434c.163344 3.330973.741839 6.593568 1.669836 9.669131.859385 2.84814 1.762549 4.731166 1.762549 4.731166-1.068806.7225-2.3285 1.475646-3.675775 2.076461-1.24444.554962-2.26672.823606-2.26672.823606-.77217-2.102511-2.13988-7.439706-2.13988-7.439706 1.08487-3.67215 2.55883-7.042577 4.64999-9.860647.008.01087 0-.000011 0-.000011zm18.362596-8.482853c3.216988-.135839 6.857602.02729 10.266838.257186-.392577 1.539899-.488257 4.182487-.488257 4.182487-3.91809 2.04957-9.615568 6.145819-9.615568 6.145819-.837905-3.004124-1.203919-6.649208-.163013-10.585492zm-33.659066 13.625212c.71495 2.298173 1.57047 4.84527 2.58919 7.370735.93871 2.32712 1.79038 4.025106 1.79038 4.025106-1.10463-.542314-2.39393-1.375091-3.86706-2.691522-1.34458-1.201556-2.51979-2.542656-2.51979-2.542656 2.99734-8.419745 5.23065-16.081426 7.02483-19.86372 1.79417-3.782294 2.50004-4.6403572 1.94318-3.689727-.6595 1.125863-2.06044 3.602632-3.65653 7.666926-1.73082 4.407378-2.7769 8.161258-4.31285 12.920595-1.44059 4.463851-2.6326 7.443261-4.08511 9.616398-1.3451 2.012455-2.54879 2.694915-2.98231 2.928116-.42006.225967.058.289842 1.52707-1.143651.96655-.943179 1.81809-2.10677 2.77395-4.120008 1.03153-2.172633 2.06374-5.002736 3.77505-10.476592zm74.255774-20.1009473c1.141309.35566 5.754655 1.8670007 6.958038 2.308432-3.789315.052457-7.82154.3217593-11.947313.8662023-3.735846.492988-6.407728 1.065216-6.407728 1.065216-.124949.05975 2.572399-1.222719 5.507821-2.2989836 2.935424-1.0762652 6.032183-1.9836765 5.889182-1.9408667zm-29.058586 6.8244793c2.035769.149601 4.234122.339179 6.339564.551241-2.486824.904772-6.793744 2.878812-6.793744 2.878812.01479-1.098821.151929-2.245889.45418-3.430053zm-34.920468 19.318121c.55149 2.396368 1.82731 6.289473 1.82731 6.289473-1.05892.255381-3.21334.289007-3.21334.289007.3647-2.200253.81237-4.42349 1.38603-6.57848zm-25.03994-14.59294c2.89803 3.450822 5.40794 7.002134 7.69437 10.118175 2.04595 2.788302 3.40284 4.454996 3.40284 4.454996-1.46864 3.308773-3.0158 5.681175-4.94647 7.562204-1.00132-1.515943-2.05987-3.201526-3.51485-5.58456-1.2759-2.089707-2.42473-3.982545-2.42473-3.982545-.0631-4.109621-.13464-8.402796-.21116-12.56827zm12.52267 16.260063c1.59466 1.81277 3.21243 3.344571 4.91709 4.489177 1.53749 1.032356 2.70414 1.442514 2.70414 1.442514.47911 1.933682 1.48635 5.290596 1.48635 5.290596-.3467 2.770279-.69071 5.911182-.95143 8.536847-.93693-.323635-2.0546-.819203-3.28847-1.580853-1.13336-.699611-2.08516-1.473896-2.08516-1.473896-1.10645-4.965384-2.05688-10.504922-2.78252-16.704385zm10.84701 6.714241c1.39766.140353 4.14709-.373222 4.14709-.373222.87895 2.196195 1.91358 4.346128 3.139608 6.448096 1.105544 1.895399 2.030891 3.179634 2.030891 3.179634-.01181.334411-.02245.669095-.02773 1.003693.454999.215882-1.484782-.659049-3.233329-1.863069-1.74854-1.20402-3.30163-2.732803-2.92843-2.378648-1.98009-1.878015-3.41895-3.926311-3.41895-3.926311.0905-.694032.18783-1.392569.29085-2.090173zm4.84121-.57316c1.939455-.596184 5.985572-3.104491 5.985572-3.104491.220143.426472.631674 1.210976.631674 1.210976-1.224514 3.201485-1.847822 6.777949-2.073587 10.343626-1.602292-2.351309-3.177199-5.135872-4.543659-8.450111zm20.739833-15.700579c1.431726-1.146422 3.246898-2.533162 5.416953-3.959315 2.007491-1.319316 3.889915-2.355131 3.889915-2.355131.188887 2.030545 1.459461 5.651098 1.459461 5.651098-3.522698.16985-7.153524.690027-10.411877 1.650192-.123811-.323383-.242216-.652422-.354452-.986844zm10.575247-6.997882c2.50545-1.303594 8.541944-3.692991 8.541944-3.692991.686394.07534 1.377865.154219 2.069953.238799-2.237753 1.679845-4.228909 3.622375-5.859837 5.931049-1.468863 2.079259-2.181709 3.793826-2.181709 3.793826-.335595.0013-.670882.0079-1.006034.01549-.830502-1.90312-1.445047-4.024256-1.564317-6.286177zm16.337703-5.951755c3.341557-.778744 7.559651-1.545154 12.536319-1.991296 4.587426-.411248 8.562173-.383167 8.562173-.383167-.995256 1.892961-1.641727 5.491909-1.641727 5.491909-4.229475-.01585-11.058689.977075-11.058689.977075-2.912495-.864024-5.973556-1.48797-8.948593-1.980662.108761-.693313.288478-1.397703.550517-2.113859zm25.026805-2.284368c1.541801.07114 4.330103.298833 7.344689.733024 3.066375.44165 5.524733.975824 6.883006 1.345111 4.612635 1.251517 7.7474044 2.95601 7.7474044 2.95601-.075608 3.370891-.2231857 9.974426-.2231857 9.974426-1.5272279-1.471267-3.4386117-2.893618-5.4347597-4.108061-1.866464-1.135544-3.417134-1.853159-3.417134-1.853159-3.799492-4.333452-8.332166-7.024739-12.90002-9.047351zm-60.182778 22.487071c1.082807 2.195871 2.413024 4.296037 3.988844 6.327043 1.405107 1.810937 2.549046 3.000446 2.549046 3.000446-.923468 1.075523-2.026595 2.314443-3.213613 3.540152-1.100437 1.136309-2.033356 2.000334-2.033356 2.000334-1.103807-1.154452-2.442168-2.658236-3.793242-4.504888-1.251738-1.710844-2.20105-3.347298-2.20105-3.347298 1.088567-2.676773 2.612383-5.030618 4.703345-7.015796.01293.0031.00001.000021.00001.000021.01146.0078.000016-.000014.000016-.000014zm.675334-.611204c2.176841-1.878242 4.70131-3.20516 7.428719-4.155099.705543 1.592496 1.571029 3.156351 2.583403 4.694827.936219 1.421649 1.730895 2.422509 1.730895 2.422509-1.943333 2.264814-5.317017 6.320386-5.317017 6.320386-2.185752-2.389843-4.588825-5.481621-6.426026-9.282602.01151.0077.000026-.000021.000026-.000021zm-29.584084 3.894651c.33664 2.892915.7995 6.188939 1.3234 9.395277.4895 2.995804.92925 5.266623.92925 5.266623-.61038-.548928-3.15748-3.277158-3.77139-4.032823-1.31486-1.621682-2.45653-3.268222-2.45653-3.268222 1.51327-2.050982 2.76726-4.372421 3.97527-7.360855zm87.496189-25.17406c4.012424 1.708086 7.972716 3.925771 11.420536 7.233462-2.378483-.816251-5.025774-1.46351-7.945998-1.885777-2.6654-.38542-4.793016-.467503-4.793016-.467503.134538-1.649893.557488-3.230497 1.318478-4.880182zm-63.657186 29.862008c1.040667 1.729565 2.217383 3.394119 3.559621 5.01974 1.208726 1.463931 2.177851 2.4509 2.177851 2.4509-1.031378.941001-2.308965 2.015297-3.747799 3.035307-1.33277.94481-2.498639 1.601354-2.498639 1.601354-.421254-.52817-1.325845-1.705847-1.325845-1.705847.127189-3.562442.673618-7.165335 1.834811-10.401454zm14.150313-13.060845c3.262541-1.014295 6.902719-1.56253 10.429827-1.721287.235115.462507.693273 1.33243.693273 1.33243-2.913187 2.436774-7.133444 7.080038-7.133444 7.080038-1.440953-1.912399-2.88194-4.164475-3.989656-6.691181zm-26.856596 17.365359c-.0161-.02162 1.29644 1.742929 2.78852 3.222489s3.16545 2.660263 3.1449 2.645753c2.077311 1.465659 3.788258 2.174307 3.788258 2.174307.0013.335299.0079.670034.01551 1.004913-1.051199.465029-2.34753.934175-3.796698 1.238273-1.33948.281085-2.48842.325849-2.48842.325849-1.29199-2.484488-3.69075-8.540882-3.69075-8.540882.0754-.68702.15402-1.378029.23868-2.070697 0-.000001 0-.000003 0-.000005zm48.371381-29.834058c.693671.09049 1.391428.187905 2.088716.290874-.114316 1.422577.373696 4.148456.373696 4.148456-2.184511.874907-4.332358 1.907427-6.439 3.136248-1.898389 1.107346-3.186871 2.036046-3.186871 2.036046-.334476-.01184-.669027-.02239-1.003676-.02769-.25779.543646 1.138844-2.589368 3.387203-5.217327 2.248358-2.627959 5.304138-4.747363 4.779932-4.366604zm-48.793891 33.673379c.9135 2.512157 2.87666 6.791965 2.87666 6.791965-1.04619-.0039-3.42771-.453906-3.42771-.453906.14935-2.035171.33917-4.233419.55105-6.338059zm52.6885-33.097922c2.199338.364547 4.421695.811722 6.575931 1.384962-2.364051.544725-6.286656 1.827902-6.286656 1.827902-.237283-1.047736-.346769-2.119589-.289275-3.212864zm-74.96548 16.980516c2.0964 3.508595 5.33157 8.732772 5.33157 8.732772-1.63109 1.45237-3.56843 2.507376-4.94353 3.843167-.0554-.09126-.22314-.410797-.22314-.410797-.0466-3.926232-.10314-8.059856-.1649-12.165155.01.01726 0 .000013 0 .000013zm7.06535 11.337293c1.55895 2.263668 3.05484 4.179462 4.56932 5.816677 1.4326 1.548611 2.51792 2.442888 2.51792 2.442888.58602 2.800289 1.19537 5.489684 1.98164 8.413157.69914 2.599481 1.30224 4.481315 1.30224 4.481315 1.62524.81855 1.47113.706334.42419.208685-1.15009-.546672-2.87779-1.493287-4.88854-3.149608-2.03735-1.678234-3.66874-3.510505-4.81356-4.91528-1.01775-1.24884-1.16996-1.385274.41247.499847-3.1047-3.691398-5.94668-8.60679-5.94668-8.60679 1.24882-1.757267 2.9795-3.334917 4.441-5.190891zm8.38022 9.301589c1.83335 1.387041 4.87971 2.684608 4.87971 2.684608-.31888 3.353666-.60981 6.98186-.60312 10.156924-.18688-.05932-.61839-.235382-.61839-.235382-1.27309-3.65603-2.5235-7.788563-3.6582-12.60615zm6.18929 3.090293c1.54971.416635 4.1805.487836 4.1805.487836 1.0899 2.084433 2.39714 4.255121 3.7859 6.31605 1.290806 1.91557 2.358673 3.301174 2.358673 3.301174-.568201.160157-1.706281.457816-3.125443.639213-1.43532.183457-2.55898.172291-3.15382.154439-2.28157-.0719-4.3013-.629405-4.3013-.629405-.13651-3.218603.0259-6.858759.25549-10.269312zm5.20103.431071c2.04267-.169223 5.648978-1.459073 5.648978-1.459073.170194 3.522826.690857 7.154021 1.651338 10.412783-.306889.126332-.987073.35466-.987073.35466-2.073003-2.575057-4.266093-5.613881-6.313243-9.30837zm6.754459-1.960025c.470658-.216439 1.332813-.693489 1.332813-.693489 2.448915 2.928844 7.07883 7.13458 7.07883 7.13458-1.055869.80112-2.405404 1.738816-3.957818 2.618693-1.440868.816658-2.732766 1.371359-2.732766 1.371359-1.014358-3.263194-1.562399-6.903843-1.721059-10.431143zm2.662556-1.481232c2.041493-1.270862 5.709391-4.437408 5.709391-4.437408.537773.527255 1.531322 1.469913 1.531322 1.469913-.183525 1.359276-.227659 2.747025-.13983 4.121928-1.176382-.06906-6.045941-.851698-7.100883-1.154433zm17.917075-18.306845c.985576-1.142927 2.217845-2.540092 3.681313-4.025263 1.35477-1.374861 2.625399-2.502015 2.625399-2.502015-.695069 2.600411-1.067018 7.148543-1.067018 7.148543-1.369753.145012-2.732229.421896-4.044543.827614-.400256-.466183-.80003-.949486-1.195151-1.448879zm7.933623-7.913106c.544882-.435099 1.706858-1.327233 1.706858-1.327233 3.562418.126984 7.16599.672596 10.402707 1.833532-1.721499 1.036332-3.384816 2.211076-5.014742 3.556959-1.466695 1.2111-2.457153 2.183968-2.457153 2.183968-1.686954-1.862739-3.324293-3.961649-4.63767-6.247226zm3.181983-2.376218c1.316034-.892726 2.95392-1.910577 4.942236-2.92792 1.827223-.934915 3.505612-1.616989 3.505612-1.616989.620167 1.926322 3.105931 5.986308 3.105931 5.986308-.403805.208978-1.211482.632372-1.211482.632372-3.201434-1.224227-6.77726-1.847824-10.342297-2.073771zm10.142458-5.207723c2.131818-.78345 7.436981-2.140838 7.436981-2.140838 3.671926 1.084393 7.04259 2.55752 9.861011 4.647793-3.326386.164507-6.584431.742731-9.655964 1.669489-2.852014.860504-4.740829 1.766687-4.740829 1.766687-1.292954-1.935808-2.331454-3.914327-2.901199-5.943131zm9.920351-2.608939c1.535232-.251531 3.721629-.482451 5.918237-.62088 2.077512-.130924 3.7972-.151434 3.7972-.151434-.0079 1.695011.969818 5.867708.969818 5.867708-.284433-.0048-.904791-.0224-.904791-.0224-2.755792-2.248018-6.093185-3.863316-9.780464-5.072999zm12.359126-.692083c2.560762.143363 6.208799.653007 8.666722 1.251282 2.951122.717582 5.300539 1.689255 5.300539 1.689255 3.399103 3.650835 5.907533 8.181383 7.730382 13.568512-3.908322-4.353377-8.355289-7.199373-13.253928-8.884554-4.398574-1.513156-7.669741-1.667738-7.669741-1.667738-.55392-2.139362-.844495-4.081362-.773974-5.956757zm16.999263 4.338276c1.421706.747496 3.17334 1.888718 4.873114 3.231054 1.5912027 1.256597 2.8126317 2.449952 2.8126317 2.449952-.030813 3.330911-.096114 10.128267-.096114 10.128267-.063591-.08052-.2506032-.350515-.2506032-.350515-1.7178718-6.052383-4.0612475-11.256095-7.3390375-15.458678-.000001-.000026-.000002-.000052.00001-.000071.0118.01217-.000001-.000009-.000001-.000009zm-66.932653 22.1812c2.441165 2.514858 6.484588 5.853128 6.484588 5.853128-.8105 1.051326-1.793271 2.286835-2.869184 3.555667-.997965 1.176909-1.867895 2.125445-1.867895 2.125445-1.029286-.799525-2.04512-1.606032-3.042316-2.437476-1.046801-.874265-1.91822-1.659999-1.91822-1.659999.431491-2.685239 1.460598-5.238778 3.213056-7.436802.01371.0061-.000029.000037-.000029.000037zm.554132-.656022c1.872836-2.094318 4.227673-3.551883 6.794946-4.453135 1.400092 1.550831 4.210477 4.240099 4.210477 4.240099-1.639296 2.160328-4.58056 6.081239-4.58056 6.081239-1.96112-1.604126-4.248559-3.588664-6.424863-5.868203zm13.138357-13.624339c1.284453 2.027752 4.438665 5.711001 4.438665 5.711001-.514931.525599-1.470693 1.532652-1.470693 1.532652-1.359249-.183522-2.746887-.227928-4.121713-.140122.06604-1.127903.863639-6.091998 1.153741-7.103531zm-25.184117 25.855186c2.453105.667317 7.14787 1.068252 7.14787 1.068252.145065 1.370051.42239 2.7327.828281 4.045323-.447572.394294-1.448925 1.195328-1.448925 1.195328-2.039293-1.748765-4.326136-3.832923-6.527226-6.308903zm8.143322-3.113527c1.391518 1.224206 3.996438 3.303447 3.996438 3.303447-1.288334.05397-4.051633.0226-4.051633.0226-.07601-1.108006-.05873-2.224375.05519-3.326049zm11.683546-13.886238c1.065005-.309273 2.160949-.527926 3.264315-.653512-.02418 1.460658.06542 4.065595.06542 4.065595-1.096791-1.04106-2.226269-2.182792-3.329734-3.412083-.000001 0-.000001 0-.000001 0zm-11.657414 18.104109c1.409851.03364 4.066215-.06493 4.066215-.06493-1.063074 1.131086-3.412324 3.330185-3.412324 3.330185-.309397-1.065317-.528267-2.161587-.653891-3.265254zm15.813535-18.838949c1.107989-.07603 2.224421-.05875 3.326101.05518-1.21276 1.379043-3.302952 3.996939-3.302952 3.996939-.0056-.131894-.02753-3.925079-.02315-4.052123zm-58.044132 13.151151c3.37328 5.788206 6.59081 9.981479 10.13309 13.010442 3.12323 2.670638 5.46284 3.587242 5.46284 3.587242.40074 1.262913 1.58862 4.875464 2.08392 6.268084.68374 1.922439 1.22094 3.306134 1.22094 3.306134-.58416-.142261-3.30127-.783485-6.44993-2.556621-3.2832-1.848898-5.56795-4.094075-6.24957-4.765429-4.35995-4.299641-8.12349-11.010435-8.12349-11.010435.0516-3.729412.78157-6.021516 1.9222-7.839403.01.01802 0-.000014 0-.000014zm19.21387 17.912667c2.46262.641674 4.93992.775574 7.37936.484016 2.253344-.268984 3.825364-.805719 3.825364-.805719 2.103699 2.675298 5.818024 6.928426 5.818024 6.928426-.384828.165817-2.087661.9026-4.307033 1.479676-2.25582.586553-4.031526.74671-4.486445.78918-3.3556.308115-6.45601-.198754-6.45601-.198754-1.09478-2.777945-1.58212-5.709422-1.77327-8.676862.012.01078.00001.000037.00001.000037zm14.199235-1.429542c1.559056-.680796 3.131173-1.544152 4.698865-2.579538 1.420076-.937891 2.417822-1.735214 2.417822-1.735214 2.275986 1.953519 6.319381 5.317284 6.319381 5.317284-1.321841 1.21428-3.114799 2.723974-5.288292 4.154823-2.031455 1.337341-3.99288 2.271973-3.99288 2.271973-1.878096-2.177148-3.205049-4.701864-4.154896-7.429328zm9.787186-6.543812c1.563037-1.391228 4.239719-4.210377 4.239719-4.210377 2.171246 1.647944 6.080277 4.580398 6.080277 4.580398-.887278 1.090594-2.072641 2.496214-3.417892 3.941256-1.263798 1.357435-2.449328 2.483538-2.449328 2.483538-2.094155-1.872989-3.551512-4.22774-4.452771-6.794811.01435.006-.000005-.000004-.000005-.000004zm15.098057-17.939489c.800531-1.030937 1.60836-2.048313 2.440908-3.047096.873075-1.045474 1.655817-1.913792 1.655817-1.913792 2.685212.431556 5.238862 1.461144 7.43728 3.213627-2.503581 2.430957-5.852078 6.484736-5.852078 6.484736-1.90096-1.473722-3.801969-3.026526-5.681923-4.737472.01479.0051-.000004-.000003-.000004-.000003zm6.795754-7.755251c1.161285-1.11082 2.666655-2.449945 4.511831-3.800009 1.709521-1.250805 3.341138-2.197563 3.341138-2.197563 2.677308 1.08832 5.031852 2.612034 7.017712 4.703001-2.187889 1.079594-4.286637 2.407548-6.322256 3.987044-1.813765 1.407329-3.006558 2.554805-3.006558 2.554805-1.95216-1.687079-3.808201-3.396891-5.541878-5.247288.01473.0052.000011.00001.000011.00001zm11.457037-7.863065c1.338172-.603023 7.063379-2.431001 8.552412-2.720231 3.248194-.633099 6.252427-.699058 6.252427-.699058 2.413802 1.982942 4.197985 4.340813 5.432329 7.092653-.694899-.09653-2.681063-.359444-5.282213-.209944-2.546003.146334-4.533591.624314-5.138075.772069-3.05711.742715-5.058103 1.709075-5.058103 1.709075-1.780616-2.062781-3.39557-3.995217-4.758782-5.94457.01446.0059.000005.000006.000005.000006zm19.902886-3.216223c-2.422351-.269857-2.184028-.210223-.616782-.06268 1.701169.160155 4.33946.527447 7.330519 1.50485 3.06753 1.002393 5.413189 2.287683 7.06647 3.352654 1.455381.937493 1.689015 1.026453-.574764-.360343 4.51548 2.771223 8.063597 7.08027 8.063597 7.08027 1.4771976 4.892548 2.2550832 9.924734 2.3501501 13.773427-.8627462-1.496165-3.2339431-5.56088-6.5601291-9.184823-3.243562-3.533923-6.118237-5.257767-6.994601-5.778886-4.3587-2.596214-7.602224-3.046639-7.602224-3.046639-.995779-2.721925-1.850103-5.08907-2.46224-7.277841.0134.0087.000004.00001.000004.00001v-.000002zm-43.731488 26.246743c1.908449 1.512445 5.352886 4.103975 5.352886 4.103975-2.142569.303896-6.659426.854966-6.659426.854966-.137225-1.708687.279604-3.463224 1.306525-4.958921.01474.0052.000015-.00002.000015-.00002zm.490133-.638917c1.178674-1.379673 2.766325-2.238416 4.451933-2.550114.279738 2.384172.882878 6.664905.882878 6.664905-1.687503-1.267858-3.536428-2.666852-5.334811-4.114791zm-1.690731 6.403482c2.339095-.264901 6.664439-.882196 6.664439-.882196-.68292.91446-1.596726 2.126102-2.500622 3.291674-.864543 1.114438-1.613263 2.041915-1.613263 2.041915-1.37967-1.178714-2.238828-2.766006-2.550634-4.451457.01484.0053.00008.000064.00008.000064zm6.948172-9.060763c1.708778-.137101 3.463264.280334 4.959138 1.307427-1.504292 1.898432-4.103512 5.352557-4.103512 5.352557-.296556-2.089718-.61307-4.386026-.855633-6.659989.01492.005.000007.000005.000007.000005zm-60.385021 12.95235c.72841 1.265684 3.15648 5.483401 6.56584 9.199774 3.32236 3.621527 6.28174 5.357786 7.00096 5.786641 4.35203 2.588966 7.58448 3.034942 7.58448 3.034942 1.09288 2.943502 2.46101 7.280013 2.46101 7.280013-3.53248-.388505-8.3522-1.457698-13.18524-4.424066-4.5192-2.773758-8.07802-7.10087-8.07802-7.10087-1.47635-4.894081-2.25405-9.927654-2.34903-13.776454.0101.01874 0 .00002 0 .00002zm23.27584 18.409899c3.52622.498864 7.065333.263619 10.430511-.556577 3.051257-.743688 5.043922-1.709913 5.043922-1.709913 1.912199 2.198211 4.757918 5.945946 4.757918 5.945946-2.15735.979491-5.036175 2.039215-8.537085 2.720512-3.251567.632776-6.265326.695829-6.265326.695829-2.41316-1.984085-4.19634-4.343027-5.42993-7.095784.013.0094-.00001-.000013-.00001-.000013zm16.818609-2.8898c2.217179-1.084908 4.325258-2.427528 6.329948-3.985908 1.80945-1.406614 2.996076-2.552965 2.996076-2.552965 1.080848.928132 2.319602 2.031612 3.544293 3.21772 1.135207 1.099561 1.997154 2.030147 1.997154 2.030147-1.145066 1.105483-2.657992 2.451219-4.500993 3.797878-1.711817 1.250808-3.350065 2.197797-3.350065 2.197797-2.677124-1.08883-5.03108-2.61314-7.016437-4.704696.01439.0063.000024.000027.000024.000027zm10.129895-7.299669c2.526292-2.432241 5.852169-6.484564 5.852169-6.484564 1.056482.814497 2.292134 1.797546 3.559829 2.872609 1.175873.997074 2.12202 1.864776 2.12202 1.864776-.648607.84725-1.501878 1.933356-2.433491 3.046239-.875436 1.045783-1.663475 1.91493-1.663475 1.91493-2.685261-.431608-5.238869-1.461203-7.437055-3.213993.01482.0054.000003.000003.000003.000003zm6.402558-7.170028c1.521792-1.899169 4.103533-5.352548 4.103533-5.352548.294019 2.012227.855794 6.659895.855794 6.659895-1.708689.137327-3.463445-.280187-4.959336-1.307354.01497.0051.000009.000007.000009.000007zm5.242529-6.870632c.329916-.436831 2.173718-2.862926 2.507607-3.293013.862444-1.114338 1.606761-2.041055 1.606761-2.041055 1.379713 1.178722 2.239075 2.766148 2.550683 4.451515-2.264501.256729-4.587448.586068-6.664851.882703.01495.005-.0002-.00015-.0002-.00015zm4.667108-6.015995c.31616-.384449 3.093268-3.585943 3.425844-3.942507 1.26152-1.357153 2.441336-2.482526 2.441336-2.482526 2.094398 1.872532 3.552145 4.22666 4.453738 6.793367-1.538867 1.389689-4.240043 4.21103-4.240043 4.21103-2.183238-1.665062-4.116478-3.072318-6.080868-4.579359.01495.0051-.000007-.000005-.000007-.000005zm6.670849-7.176441c1.354108-1.233739 3.139061-2.732578 5.300172-4.157067 2.029221-1.337523 3.983837-2.272807 3.983837-2.272807 1.878567 2.176395 3.205893 4.700295 4.156148 7.427305-1.591144.705499-3.153728 1.570494-4.690892 2.582168-1.424301.938052-2.428695 1.735771-2.428695 1.735771-2.262926-1.951831-4.309128-3.598956-6.320543-5.315347.01476.0055-.000027-.000023-.000027-.000023zm10.616328-7.037464c2.213732-.9448 5.222828-1.936906 8.809372-2.267422 3.3525-.30897 6.444153.19249 6.444153.19249 1.095494 2.776895 1.583239 5.707378 1.774935 8.674289-2.406949-.616579-4.874026-.771171-7.369871-.475996-2.255172.26671-3.838613.80233-3.838613.80233-1.988614-2.541932-4.05342-4.888836-5.819967-6.925679.01425.0066-.000009-.000012-.000009-.000012zm17.343235-1.657559c3.387015.830406 8.0032 2.687208 12.718484 7.337445 4.357432 4.297298 8.1100357 10.984206 8.1100357 10.984206-.051521 3.728862-.7814658 6.021431-1.9217711 7.839948-3.3599736-5.752016-6.5707096-9.947196-10.1222686-12.987893-3.128682-2.678646-5.477572-3.602554-5.477572-3.602554-1.145181-3.642663-2.284032-6.77617-3.306916-9.571171.01273.01016.000008.000019.000008.000019zm-39.186862 22.666065c2.160453-.306474 6.660328-.855536 6.660328-.855536.136994 1.708632-.280568 3.462785-1.307806 4.958495-1.800232-1.434935-3.673089-2.843036-5.352522-4.102959zm-.4711.628798c.919778.687185 2.130557 1.6 3.295359 2.503217 1.113578.863016 2.037963 1.609937 2.037963 1.609937-1.178528 1.379451-2.765362 2.238506-4.450519 2.550412-.256758-2.264039-.586139-4.586339-.882878-6.663466.01502.005.000075-.0001.000075-.0001zm-61.511289 16.232787c.10399.156358.25055.350719.25055.350719 1.71748 6.055179 4.06015 11.261897 7.33704 15.467065-1.45244-.757152-3.14853-1.787817-4.89781-3.177831-1.59481-1.267271-2.78615-2.508017-2.78615-2.508017.0509-3.337478.0824-6.677843.0964-10.131949.0104.01757 0 .000013 0 .000013zm2.89138 3.641582c3.92134 4.381098 8.3827 7.223644 13.26657 8.900819 4.39128 1.508019 7.65071 1.65959 7.65071 1.65959.615 2.296425.77395 5.958946.77395 5.958946-2.44822-.132023-5.4574-.468201-8.64812-1.245021-2.95588-.71965-5.31595-1.699253-5.31595-1.699253-3.39801-3.652924-5.90493-8.185961-7.72714-13.575068 0 0-.00002-.000013-.00002-.000013zm23.36432 10.730226c.32614.01756.90354.02258.90354.02258 2.755431 2.249374 6.092961 3.865705 9.780277 5.076132-1.596378.26695-3.601717.527257-5.891247.666784-2.08578.12711-3.82266.10432-3.82266.10432.0294-1.857907-.33069-3.774964-.96991-5.869811.0136.0081 0 .000001 0 .000001zm3.30466-.01974c3.26018-.154174 6.527105-.717218 9.66703-1.666877 2.842681-.859756 4.726883-1.766625 4.726883-1.766625.726142 1.074194 1.479131 2.334725 2.079381 3.680994.554458 1.243551.822619 2.263475.822619 2.263475-2.098803.782521-7.434809 2.139809-7.434809 2.139809-3.672128-1.085035-7.042876-2.559247-9.861104-4.650776zm15.881706-4.138365c.435265-.210434 1.213-.633058 1.213-.633058 3.201831 1.224864 6.7784 1.84845 10.344313 2.07423-1.298112.889528-2.947219 1.914126-4.933427 2.928796-1.830844.9353-3.51734 1.617547-3.51734 1.617547-.648953-2.061061-1.758773-4.057351-3.106546-5.987515zm2.628489-1.442216c1.776906-1.060918 3.444908-2.250358 5.021639-3.556341 1.462568-1.210191 2.446965-2.181909 2.446965-2.181909.945742 1.036514 2.020401 2.315168 3.039597 3.752937.94413 1.331851 1.599275 2.494926 1.599275 2.494926-.519988.432579-1.703775 1.324859-1.703775 1.324859-3.563022-.126926-7.166777-.673106-10.403701-1.834472zm8.305505-6.557118c.536854-.527739 1.470552-1.532504 1.470552-1.532504 1.359115.183587 2.746442.227895 4.121181.140117-.05924 1.098682-.278556 2.769976-.567818 4.354726-.277088 1.518057-.584759 2.747998-.584759 2.747998-1.309124-2.083793-2.859775-4.00067-4.439156-5.710337zm2.31375-2.46486c1.232319-1.380367 3.301785-3.995512 3.301785-3.995512.06072 1.225311.02348 4.05037.02348 4.05037-1.107678.07612-2.223894.05894-3.325269-.05486zm4.257655-5.235288c1.658041-2.161958 4.579892-6.080371 4.579892-6.080371 1.096143.891115 2.501828 2.077154 3.945439 3.420801 1.356175 1.262285 2.479173 2.444354 2.479173 2.444354-1.872774 2.094267-4.227095 3.552225-6.794041 4.453925-1.396355-1.557078-2.838835-2.978903-4.210422-4.238756.01473.0052-.000041.000047-.000041.000047zm5.074608-6.721219c.83335-1.067873 1.790465-2.272493 2.877492-3.557243.995993-1.177171 1.86106-2.125732 1.86106-2.125732.853008.652955 1.939051 1.506089 3.050439 2.436276 1.044226.874025 1.910079 1.658782 1.910079 1.658782-.431673 2.685538-1.461742 5.239383-3.214811 7.438028-2.201345-2.275827-4.511631-4.254155-6.484267-5.850101.01468.0053.000008-.00001.000008-.00001zm5.742171-6.763174c1.059726-1.105886 3.411971-3.330081 3.411971-3.330081.309306 1.064861.528006 2.160951.653601 3.264143.179324.0042-4.251432.07562-4.065572.06594zm4.259628-4.074566c.467138-.391203 1.449924-1.196301 1.449924-1.196301 1.12837.96135 2.567873 2.23329 4.031485 3.677986 1.373789 1.356035 2.498215 2.628602 2.498215 2.628602-2.428246-.659338-7.151197-1.065865-7.151197-1.065865-.145172-1.369813-.422423-2.732059-.828427-4.044422zm2.256934-1.819786c1.07466-.804594 2.414003-1.735211 3.968982-2.618803 1.438019-.817135 2.723069-1.373526 2.723069-1.373526 1.014835 3.263079 1.563657 6.903688 1.722616 10.431314-.449439.228995-1.332277.693584-1.332277.693584-2.374254-2.848092-4.87216-5.193491-7.08239-7.132569zm7.868086-4.475585c.335617-.119681.987413-.355065.987413-.355065 1.149832 1.41902 2.549621 3.254012 3.967619 5.415183 1.317592 2.008153 2.349773 3.890822 2.349773 3.890822-2.014566.188446-5.65237 1.462139-5.65237 1.462139-.170436-3.523023-.691279-7.154433-1.652435-10.413079zm2.178514-.721577c1.685967-.466044 3.837614-.864841 6.292947-.789269 2.27828.07012 4.290251.620782 4.290251.620782.136976 3.218316-.02483 6.858832-.254027 10.269521-1.522271-.386887-4.180651-.485789-4.180651-.485789-1.984838-3.808545-4.117255-6.947403-6.14852-9.615245zm12.24176.349046c.220697.08804.620674.235916.620674.235916.711719 2.023974 1.545222 4.662991 2.357163 7.584138.751935 2.705264 1.30411 5.021182 1.30411 5.021182-1.809762-1.345726-4.884354-2.684149-4.884354-2.684149.318564-3.353439.60942-6.982629.602423-10.157032.01249.01349-.000016-.000055-.000016-.000055zm2.288699.989106c2.440234 1.237078 5.496957 3.352884 8.880009 7.3742 3.101917 3.687144 5.9343858 8.580906 5.9343858 8.580906-1.2490088 1.758308-2.9784478 3.337442-4.4400718 5.194563-1.502986-2.168423-2.994474-4.102233-4.559463-5.797237-1.425422-1.543841-2.528114-2.458653-2.528114-2.458653-1.01704-4.896676-2.138457-9.126006-3.286746-12.893779zm17.0515828 19.908132c.092178.179503.2230923.410684.2230923.410684.06481 3.96115.1652449 12.168418.1652449 12.168418-2.0638129-3.432834-5.331658-8.733411-5.331658-8.733411 1.630866-1.453275 3.568294-2.509188 4.943321-3.845673.00978.01855-.0000002-.000018-.0000002-.000018zm-59.0681288 4.472611c1.141009 1.072336 3.330493 3.411809 3.330493 3.411809-1.065082.309502-2.161161.528472-3.264632.654204-.0043.183599-.07578-4.256316-.06586-4.066013zm11.018686-13.778055c1.309458-.05511 4.051025-.02364 4.051025-.02364.07601 1.107507.05869 2.223373-.05519 3.324556-1.364924-1.208956-2.730004-2.313533-3.995836-3.300919zm-10.988853 18.866202c1.37019-.145027 2.732825-.422393 4.045543-.828367.405037.459958 1.19638 1.449712 1.19638 1.449712-.956204 1.121981-2.228234 2.561595-3.674329 4.026329-1.357583 1.375087-2.634144 2.502668-2.634144 2.502668 2.217813-8.162517 1.068818-11.544206 1.083846-11.097621.02055.610562.162607 4.03327-.364379 7.616488-.552625 3.757543-1.609253 6.200425-1.885845 6.845691-.15215.354955.336399-.421538.797324-1.778431.504932-1.486446 1.226619-4.262539 1.435604-8.736469zm16.057679-18.842611c2.065884.120601 7.10555 1.1524 7.10555 1.1524-2.014853 1.276734-5.711634 4.439685-5.711634 4.439685-.515502-.524382-1.533635-1.471077-1.533635-1.471077.183414-1.359051.227668-2.74635.139719-4.121008zm-79.042861 29.337357c1.5801 1.534422 3.37613 2.93787 5.41692 4.169308 1.86747 1.12685 3.43172 1.797145 3.43172 1.797145 3.7978 4.336082 8.32771 7.029428 12.89502 9.053547-4.15424-.18689-9.25392-.72685-14.20821-2.072782-4.6162-1.254127-7.7586-2.968585-7.7586-2.968585.0936-3.364413.16779-6.643813.22315-9.978633zm11.92125 7.184719c2.48724.861901 5.18937 1.50154 8.05144 1.908317 2.63149.374005 4.68718.449201 4.68718.449201-.11199 1.642631-1.31763 4.882771-1.31763 4.882771-4.01295-1.709546-7.97354-3.929306-11.42099-7.240289zm15.39416 2.432829c4.266211.02721 11.054108-.975324 11.054108-.975324 2.912624.86474 5.973897 1.48913 8.949585 1.982054-.09132.676478-.549268 2.113686-.549268 2.113686-3.321842.780211-7.547537 1.548256-12.52145 1.993111-4.589795.410499-8.572825.379747-8.572825.379747 1.00513-1.873613 1.52237-3.641598 1.63985-5.493274zm13.541761-1.485524c2.397123-.54094 6.286348-1.827515 6.286348-1.827515.258248 1.069805.290562 3.213751.290562 3.213751-2.199828-.364718-4.422463-.812553-6.57691-1.386236zm8.005504-2.477554c2.192554-.87098 4.352854-1.911242 6.449189-3.13641 1.894812-1.107393 3.177339-2.036128 3.177339-2.036128.334587.01183.669171.02274 1.003932.02803-.87902 1.868581-2.194828 4.014563-4.238609 6.168403-1.878071 1.979189-3.925413 3.415359-3.925413 3.415359-.694528-.09058-1.393067-.188084-2.091143-.2912.128075-1.425075-.02545-2.810888-.375295-4.148056zm12.854443-7.640661c2.936001-2.437081 7.133404-7.080498 7.133404-7.080498.806435 1.062472 1.744529 2.413198 2.623653 3.963997.815981 1.439406 1.369234 2.727133 1.369234 2.727133-3.263464 1.014982-6.904184 1.563943-10.432052 1.722757-.219848-.453974-.452147-.898702-.694239-1.333389zm7.78529-7.829812c1.963582-2.263045 5.316463-6.320047 5.316463-6.320047 1.220814 1.32891 2.731017 3.122668 4.16127 5.294921 1.336583 2.03009 2.269359 3.986542 2.269359 3.986542-2.177009 1.878446-4.701548 3.205875-7.429112 4.156205-1.195576-2.715432-2.767397-5.111771-4.317953-7.117647.01372.0058-.000027.000026-.000027.000026zm5.879961-6.976245c.947957-1.089181 2.024584-2.29931 3.223141-3.54035 1.098243-1.137162 2.025868-2.002709 2.025868-2.002709 1.112439 1.15178 2.458734 2.665963 3.804262 4.507171 1.249751 1.710144 2.194088 3.343159 2.194088 3.343159-1.08871 2.677814-2.612868 5.032844-4.704764 7.018987-1.886017-3.835794-4.327501-6.935519-6.542572-9.326286.01355.0062-.000023.000028-.000023.000028zm5.872374-6.117368c1.051038-.944721 2.314001-2.007328 3.758094-3.034103 1.330239-.945818 2.490224-1.60496 2.490224-1.60496.446702.536987 1.326973 1.705684 1.326973 1.705684-.126751 3.56257-.672526 7.166068-1.833617 10.40274-1.807962-3.014072-3.830016-5.469698-5.741674-7.469361zm8.708789-5.88462c1.070404-.461192 2.355891-.926551 3.808146-1.234116 1.336703-.283092 2.479497-.333262 2.479497-.333262 1.31994 2.504066 3.694473 8.540063 3.694473 8.540063-.07529.686887-.153777 1.377675-.238329 2.070213.0215.02872-1.292508-1.736785-2.786265-3.216882s-3.169045-2.660904-3.141721-2.641617c-2.08162-1.468258-3.799842-2.179047-3.799842-2.179047-.0014-.335476-.0083-.670308-.01596-1.005354 0 0 .000001.000002.000001.000002zm7.287287-1.587614c1.065185.02407 3.428634.452138 3.428634.452138-.149083 2.035203-.338188 4.232938-.549821 6.337653-.901921-2.495713-1.873358-4.746635-2.878813-6.789791zm4.70908.83948c.926317.330867 2.038655.815789 3.300368 1.592008 1.141076.702001 2.077022 1.461357 2.077022 1.461357.620545 2.761504 1.277822 6.110015 1.881766 10.018317.553734 3.583431.903688 6.685783.903688 6.685783-1.583255-1.783108-2.765966-2.793822-2.784966-2.810611-.235131-.207761.04888.03997.332632.299931.56749.519937 1.170285.502757-2.459798-1.962468-1.540658-1.038244-2.713-1.457223-2.713-1.457223-.464097-1.917754-1.488184-5.290662-1.488184-5.290662.346478-2.770555.689984-5.910512.950472-8.536432zm6.63155 4.11843c1.05941.964155 2.311383 2.237066 3.782327 4.048852 1.324181 1.631014 2.447294 3.250604 2.447294 3.250604-1.513078 2.051555-2.766917 4.372717-3.974692 7.361543-.615632-5.343839-1.379067-10.209799-2.254929-14.660999zm7.902244 9.76107c1.03617 1.582333 2.054118 3.202876 3.526227 5.611171 1.2724609 2.081681 2.4129073 3.956163 2.4129073 3.956163.080797 4.208369.2112531 12.572666.2112531 12.572666-2.8923161-3.434331-5.4531774-7.053787-7.6845684-10.098833-2.047364-2.793915-3.410864-4.476151-3.410864-4.476151 1.468166-3.308667 3.015077-5.6833 4.945048-7.564937.0091.01633-.000003-.000079-.000003-.000079zm-55.960805 16.178944c.335128-.0013.669695-.0079 1.004408-.01557.468344 1.057896.937366 2.355493 1.241311 3.803064.280948 1.338125.32596 2.483382.32596 2.483382-2.483256 1.308354-8.539772 3.692365-8.539772 3.692365-.686953-.07533-1.377791-.153863-2.070356-.238498.557833-.417256 2.713463-2.022096 4.720592-4.441524 2.023842-2.439577 3.03751-4.669063 3.317857-5.283217zm29.440591-27.265288c-.447272-.211885 1.491973.662069 3.240154 1.864878 1.748182 1.202809 3.30107 2.73017 2.934291 2.382196 1.978184 1.875732 3.412405 3.91605 3.412405 3.91605-.09043.694002-.187896 1.392057-.290858 2.089605-1.410815-.112521-4.149462.375564-4.149462.375564-.866882-2.180686-1.905145-4.339003-3.133097-6.43987-1.109233-1.897764-2.041365-3.184552-2.041365-3.184552.0118-.33456.02267-.669128.02793-1.003871zm-.09478 2.380079c.895922 1.306861 1.920877 2.957726 2.933998 4.940726.933999 1.828121 1.613696 3.507563 1.613696 3.507563-1.914413.616821-5.98782 3.107284-5.98782 3.107284-.199002-.411994-.632824-1.211727-.632824-1.211727 1.224459-3.201803 1.847545-6.77816 2.072983-10.343784.01186.0087-.000033-.000062-.000033-.000062zm-26.9662 24.821333c3.523412-.170218 7.154983-.690868 10.414212-1.651973.133415.325062.35495.986714.35495.986714-1.412196 1.143909-3.246481 2.543381-5.409489 3.962388-2.009934 1.318581-3.897704 2.35329-3.897704 2.35329-.178934-2.023204-.73272-3.925287-1.461969-5.650419zm-63.167469 10.647847c3.7716 1.788726 8.43637 3.106576 13.97331 3.876388 5.0069.696121 8.97744.724278 8.97744.724278-.58917 1.092208-1.3648 2.282952-2.46028 3.792372-.98402 1.35586-1.94896 2.6162-1.94896 2.6162-3.83961.0297-7.96785-.0382-12.27953-.24461-3.88217-.18587-6.60485-.41554-6.60485-.41554.13029-3.56604.24529-6.974814.34287-10.349086zm26.91494 4.63005c3.933492-.04815 6.414676-.242307 6.674286-.26523.647391-.05716-.100798-.02997-.68805.01241-.594446.0429-1.332674.124491-.692575.08948.275467-.01507 2.73106-.176854 6.660257-.699166 3.729912-.49353 6.394131-1.066658 6.394131-1.066658-3.260068 1.568044-11.391277 4.238062-11.391277 4.238062-1.17912-.36753-5.713752-1.852657-6.956772-2.308898zm21.796622-2.699224c1.948713-.471331 5.29392-1.488156 5.29392-1.488156 2.770422.346351 5.909559.689348 8.535556.949571-.315829.916093-.807499 2.041333-1.583007 3.297969-.704882 1.142194-1.470347 2.079688-1.470347 2.079688-2.749265.61753-6.094832 1.2746-10.007472 1.87914-3.586794.55419-6.697438.90492-6.697438.90492 3.190733-2.82073 4.981613-5.247259 5.928788-7.623132zm7.879477-2.367291c2.550296-.914377 6.788724-2.876805 6.788724-2.876805-.0036 1.063063-.451979 3.426817-.451979 3.426817-2.03507-.149152-4.232313-.338256-6.336745-.550012zm8.095744-3.53851c2.079549-1.078729 4.26054-2.392463 6.316234-3.780553 1.91538-1.293345 3.300364-2.366214 3.300364-2.366214.161261.571411.459237 1.710211.640962 3.129771.183784 1.435647.172928 2.560154.154999 3.158238-.07177 2.279268-.626868 4.292675-.626868 4.292675-3.21869.13711-6.860448-.02505-10.271313-.254251.379932-1.454233.516678-2.854421.485616-4.179665 0 0 .000006-.000001.000006-.000001zm10.498204-6.82703c2.612654-2.03086 6.927669-5.819456 6.927669-5.819456.166538.386813.904155 2.090051 1.4823 4.312076.5875 2.257984.747941 4.035338.790566 4.491821.307842 3.352925-.196903 6.445165-.196903 6.445165-2.777714 1.095527-5.709119 1.583525-8.676872 1.775247 1.082473-4.194402.616031-8.06524-.326771-11.204847.01153.0072.000011-.000006.000011-.000006zm7.619529-6.418076c2.207966-1.889218 5.947139-4.759902 5.947139-4.759902.985423 2.169153 2.044389 5.050511 2.72496 8.547731.632115 3.248189.695622 6.252514.695622 6.252514-1.983668 2.414384-4.342393 4.198965-7.09551 5.433497.853969-6.102764-.544941-11.51853-2.272243-15.473812.01116.008.000032-.000028.000032-.000028zm6.595543-5.203259c1.088728-.718242 2.331216-1.461972 3.685104-2.069712 1.242127-.557567 2.259551-.832724 2.259551-.832724.794048 2.128616 2.14127 7.434198 2.14127 7.434198-1.084369 3.67188-2.558 7.042172-4.648503 9.860557-.276842-5.696102-1.73381-10.593991-3.437422-14.392319zm6.626458-3.075662c1.078254-.228939 3.213639-.290632 3.213639-.290632-.364405 2.199242-.812 4.421469-1.385171 6.575471-.517696-2.268448-1.140734-4.364255-1.828468-6.284839zm4.319535-.175739c.683998.121354 2.114928.549548 2.114928.549548.784347 3.337477 1.551862 7.567381 1.99619 12.536771.410056 4.586097.379632 8.559021.379632 8.559021-1.011677-.531437-2.185419-.981024-3.408461-1.279636-1.138235-.277908-2.084658-.360433-2.084658-.360433.02613-4.229847-.978249-11.058771-.978249-11.058771.863991-2.911629 1.487937-5.972153 1.980618-8.9465zm3.410001 1.108248c1.118857.565351 2.399164 1.39255 3.874534 2.707186 1.342438 1.196187 2.513006 2.524326 2.513006 2.524326-1.677925 4.715862-2.220809 6.843878-2.199249 6.775299.02156-.06858.620411-2.009741 1.201103-3.809676.580692-1.799936 1.165896-3.429116 1.186942-3.486419.02104-.0573-.482641 1.201313-2.195064 6.681763-.04167-.133852-.951484-3.092198-2.013858-5.894398-1.062375-2.802201-2.310125-5.381749-2.367414-5.498081zm7.783692 6.854533c2.091465 2.538258 3.024377 3.918992 6.184952 8.08118 2.4604338 3.240181 5.2004136 6.412174 5.2004136 6.412174.095596 4.315588.2624663 12.515344.2624663 12.515344-2.745205-1.54194-5.1066159-3.177422-7.3158389-4.88845-1.97294-1.528019-3.219645-2.606183-3.219645-2.606183-.136172-6.67819-.508806-13.244176-1.112348-19.514065zm-65.073195 20.644138c-.544712 1.110661-1.379462 2.401352-2.694228 3.87285-1.20037 1.34345-2.536968 2.51507-2.536968 2.51507-3.337079-1.18742-4.85167-1.59792-4.981526-1.63857-.129856-.0406.96754.30189 2.015135.63996 1.047596.33808 2.03962.67614 1.921552.636-.118068-.0401-1.23976-.43261-5.117608-1.64467.132491-.0412 3.091795-.951098 5.894927-2.013551 2.803132-1.062455 5.383529-2.31038 5.498716-2.367089zm57.056917-26.297808c1.620995 3.388179 4.240137 11.393114 4.240137 11.393114-.371919 1.193606-1.846417 5.699371-2.308061 6.957774-.08805-6.707537-.845204-12.984825-1.932076-18.350888zm7.289973 6.563998c.285373 2.920846.549136 6.318111.737008 10.078651.171929 3.441416.226039 6.217446.226039 6.217446-.99712-3.428-2.994728-10.544942-2.994728-10.544942.693808-2.06602 1.337391-3.960375 2.031681-5.751155zm-85.60311 22.044567c2.22091.854511 4.49336 1.625233 6.545924 2.313843-3.523284 1.01287-10.473544 2.85281-10.473544 2.85281 1.65692-1.98998 2.91016-3.5532 3.92762-5.166653zm72.743475-20.654692c.270467 1.615119.530284 3.624331.669421 5.908824.1268 2.081914.104284 3.809716.104284 3.809716-.995971-.0044-2.243322.154534-3.564044.422441-1.238318.251146-2.305207.548164-2.305207.548164.01619-.289565.02238-.908488.02238-.908488 2.248256-2.755726 3.86345-6.09365 5.073172-9.780603.0082.01163.000006-.000003.000006-.000003s-.000008-.000051-.000008-.000051zm-34.157236 16.925508c3.353867.318218 6.984309.609011 10.159197.601531-.06913.214416-.236328.62186-.236328.62186-2.01495.708329-4.652608 1.541534-7.576972 2.354264-2.707897.75257-5.029488 1.306004-5.029488 1.306004 1.275354-1.700874 2.129175-3.333251 2.683591-4.883659zm-30.846613 6.443387c2.065994.69403 3.960722 1.33776 5.751669 2.03214-2.904931.28366-6.29845.54751-10.064495.73564-3.44552.17212-6.23036.2263-6.23036.2263.0733-.0213 2.63072-.73717 5.23529-1.47029 2.604557-.73312 5.23205-1.50132 5.307896-1.52379zm75.431518-17.81397c1.01926 3.575318 2.854155 10.47774 2.854155 10.47774-1.987207-1.636713-5.167472-3.929874-5.167472-3.929874.854304-2.2216 1.624826-4.494868 2.313317-6.547866zm-108.768164 21.39625c2.72499.1214 6.18682.25262 10.10156.31256 3.61453.0554 6.64207.0261 6.64207.0261-.99866.32493-3.75499 1.22511-6.5212 2.51228-2.87665 1.33856-4.75773 2.62238-5.58649 3.20648-3.22854 2.2694-5.03431 4.22652-5.03431 4.22652.14038-3.52621.27704-7.01369.39837-10.28392zm20.48784.28733c3.71028-.0717 7.90721-.23228 12.358108-.52888 4.061425-.27065 7.154331-.5824 7.154331-.5824-.688183.57204-1.762804 1.4393-3.750664 2.94069-1.686568 1.27382-3.739397 2.80384-4.316988 3.24332-3.243687 2.46089-6.420237 5.20078-6.420237 5.20078-4.2936.0952-12.51531.26263-12.51531.26263 2.61032-4.63143 5.45537-8.08828 7.49076-10.53614zm23.661612-1.54924c2.869564-.32666 6.192186-.79347 9.387055-1.31749 2.997857-.49171 5.272965-.93614 5.272965-.93614-.993577 1.10548-2.303479 2.37801-4.09297 3.82438-1.621541 1.31063-3.203616 2.40321-3.203616 2.40321-2.052394-1.51273-4.374305-2.76625-7.363434-3.97396zm16.30876-2.58686c2.76934-.57008 5.503423-1.190005 8.407228-1.973651 2.601918-.702176 4.487707-1.312225 4.487707-1.312225-1.225494 2.435786-3.34236 5.495276-7.364698 8.877646-3.689407 3.10243-8.588086 5.93488-8.588086 5.93488-1.758959-1.24877-3.338821-2.97837-5.196719-4.43975 3.76882-2.60451 6.352139-4.87782 8.254568-7.0869zm14.126238-3.666932c2.16673-.673863 4.26754-1.358944 6.263356-2.073095 1.923992-.687591 3.310249-1.233568 3.310249-1.233568-.142468.586057-.783405 3.306092-2.55786 6.457975-1.850322 3.28664-4.098 5.57349-4.771493 6.25705-4.298418 4.35727-10.989212 8.10956-10.989212 8.10956-3.729298-.0516-6.022544-.78116-7.841817-1.92148 10.015338-5.84509 14.346881-10.85184 16.586755-15.596436.0078.0088.000022-.000006.000022-.000006zm10.490819-3.642302c2.936646-1.056974 7.280986-2.462892 7.280986-2.462892-.389634 3.553285-1.463547 8.373691-4.427886 13.202126-2.771812 4.51484-7.084045 8.0626-7.084045 8.0626-4.893481 1.47757-9.927069 2.25599-13.776573 2.35105 6.344135-3.65573 10.392188-7.24447 13.175727-10.90573 2.728868-3.58935 4.129417-7.136355 4.8318-10.247156.0072.01-.000009.000002-.000009.000002zm8.000584-2.65684c2.19671-.548801 5.958259-.774635 5.958259-.774635-.132612 2.469298-.471111 5.480569-1.246731 8.665157-.718588 2.950402-1.69302 5.299202-1.69302 5.299202-3.650878 3.39891-8.181407 5.90689-13.568239 7.72973 7.488785-6.71633 9.903379-14.597876 10.549731-20.919457zm6.579743-.737796c1.638522.154777 4.881716 1.31744 4.881716 1.31744-1.708441 4.012691-3.926741 7.973341-7.235301 11.42112 1.469258-4.262521 2.143902-8.684668 2.353585-12.73856zm6.157794 1.96428c1.114231.62643 2.259876 1.369714 3.792032 2.475955 1.355897.978977 2.616182 1.935103 2.616182 1.935103.03007 3.856112-.03834 7.987552-.244384 12.292982-.185575 3.87781-.414451 6.5935-.414451 6.5935-3.605642-.11697-10.345365-.34341-10.345365-.34341 3.133298-6.6322 4.373913-15.05668 4.595986-22.95413zm7.89185 5.515446c1.314488.977495 3.252028 2.374424 5.522934 3.765264 2.1582295 1.32184 4.3789565 2.4351 4.3789565 2.4351.1050155 3.79832.3103816 11.13166.3103816 11.13166-4.3315251-4.47525-7.3298941-8.75326-10.2122721-17.332024zm-72.22174 6.512864c3.309869 1.46853 5.683945 3.0154 7.566704 4.94571-1.531491 1.01184-3.227483 2.07637-5.600093 3.52502-2.083924 1.27239-3.962892 2.41281-3.962892 2.41281-4.186182.0804-12.572819.21136-12.572819.21136 6.804089-5.72278 10.577651-7.85199 14.5691-11.0949zm63.64982-11.078256c-.187153 4.176319-.729323 9.277436-2.074089 14.226586-1.252901 4.61111-2.962152 7.74557-2.962152 7.74557-3.35285-.0751-9.974179-.2233-9.974179-.2233 1.51734-1.56397 2.919676-3.35332 4.156156-5.40172 1.130323-1.87254 1.805389-3.44849 1.805389-3.44849 4.333985-3.79906 7.025924-8.330799 9.048875-12.898646zm-87.30848 12.591316c-.96605 1.32382-2.35284 3.24248-3.75349 5.52337-1.32577 2.15892-2.44409 4.37994-2.44409 4.37994-3.77669.10455-11.13255.31062-11.13255.31062 4.47536-4.33227 8.75194-7.33133 17.33013-10.21393zm95.265465-6.947785c-.182637-.563962.986608 3.247265 2.51208 6.528575 1.525472 3.28129 3.498611 6.00829 3.206536 5.5922 2.2689658 3.22495 4.2255477 5.02563 4.2255477 5.02563-3.5916827-.1323-10.2818637-.39909-10.2818637-.39909.216539-5.08943.382107-10.55116.3377-16.747315zm-18.39316 8.400715c-.767999 1.47486-1.802651 3.17246-3.187794 4.91508-1.263409 1.58946-2.493852 2.77138-2.493852 2.77138-3.312682-.0307-10.127953-.0962-10.127953-.0962.09871-.0632.349157-.24961.349157-.24961 6.053384-1.71815 11.257493-4.06257 15.460457-7.34069.0045.0115-.000015 0-.000015 0zm-45.096522 2.56559c1.45413 1.63063 2.511046 3.56815 3.848296 4.94292-.157719.0916-.408938.2222-.408938.2222-3.939735.0647-12.168908.16533-12.168908.16533 3.546258-2.12562 6.067807-3.61512 8.729575-5.33045.0056.009-.000025 0-.000025 0z" fill="#fff" transform="translate(132.07957 9.524996)"/>
</svg>
