<svg height="5in" viewBox="0 0 127 127" width="5in" xmlns="http://www.w3.org/2000/svg">
	<path d="m-68.581823-9.5252504c-.01394 0-.02853.000511-.04247.000511-21.154054.010097-63.455277 0-63.455277 0 .0101 21.1950024 0 63.4972494 0 63.4972494.0101 21.18792 0 63.49826 0 63.49826 21.15436.0101 63.460271 0 63.460271 0-.000265 0 .04118.00051.04145.00051-.000005 0 .04297-.00051.04298-.00051 21.157391.0101 63.4508043 0 63.4508043 0 .010098-21.148155 0-63.50275 0-63.50275.010105-21.15084 0-63.4927594 0-63.4927594-21.1614503.010104-63.4563183 0-63.4563183 0-.0137-.0000092-.02723-.0005018-.04144-.000511zm-61.362707 1.2633562c3.49291.020104 10.13043.021847 10.13043.021847-.78333 3.4941433-1.78146 12.52374-1.78146 12.52374-2.21593-5.34916-4.7073-8.7896857-8.34897-12.545591zm11.33097.023591c3.61274.015566 10.70433.00809 10.70433.00809-1.595 2.2696453-3.02015 5.0657162-4.19004 8.61120854-1.06031 3.21341006-1.58364 6.06395516-1.58364 6.06395516-1.25885-.047072-2.7177-.1620529-4.35062-.3770643-1.49649-.1970499-2.79024-.4367389-2.79024-.4367389.45142-5.17715848 1.15337-9.9195473 2.21021-13.8694574v.0000051zm11.88774.00828c3.53219.010876 10.676641-.00421 10.676641-.00421-1.815163 1.4858709-4.752381 4.7991543-4.752381 4.7991543-5.05073 2.2946749-8.84077 5.221694-11.92576 9.0086042 1.2343-5.31281437 3.12422-10.0079774 6.00148-13.8035127 0 0 .00002-.000033.00002-.000033zm11.87082-.00531c3.539982.00739 10.846891-.012507 10.846891-.012507-.07776.052936-.209831.127539-.209831.127539-5.210427.8688287-10.443558 2.1430261-15.013372 4.009508 1.286523-1.4680394 2.736595-2.8405614 4.376296-4.1245144 0 0 .000016-.0000257.000016-.0000256zm37.23484-.051364c3.850702.0047 11.779778-.012739 11.779778-.012739-1.711451 1.1877109-4.662873 3.2655041-4.662873 3.2655041-2.479778-1.2244871-4.735439-2.3411483-7.331147-3.1326048.000666-.0003742.213554-.1197603.21422-.1201345 0 0 .000022-.0000256.000022-.0000258zm13.101401-.013769c3.963817.00663 11.962528-.00465 11.962528-.00465-1.62723 1.8561794-3.356956 3.7729281-4.813571 5.4943937-1.352429 1.5983368-2.181547 2.71100254-2.181547 2.71100254-4.37105-1.78538394-6.758703-2.87202514-10.069123-4.50010884 1.574955-1.1787725 3.202999-2.3445105 5.101689-3.7006044 0 0 .000024-.0000342.000024-.0000342zm13.296077-.00462c4.032519.010058 11.938242.00751 11.938242.00751-1.124709 3.7741102-2.507065 9.04008106-2.507065 9.04008106-5.156899-.33086883-16.201076-.46836987-16.201076-.46836987 1.751016-2.56316389 3.710751-4.83919589 6.7699-8.57922719 0 0-.000001.0000029-.000001.0000029zm13.252755.00923c3.701756.014809 10.7292657.021468 10.7292657.021468-2.0083104 1.9587247-4.2853157 3.9611504-7.3512027 5.8100835-2.762647 1.66605924-5.369775 2.70177754-5.369775 2.70177754.499398-2.52791374 1.136624-5.15921164 1.991712-8.53332904zm-53.693318.037344c-4.012142 2.1469301-7.732017 4.5173288-10.905282 7.3091405-2.860791 2.5168989-4.408851 4.6449161-4.408851 4.6449161-3.66012.5114038-9.576218 1.3738814-9.576218 1.3738814 1.414833-2.4817821 3.401743-5.19108162 6.332894-7.8827965 2.677316-2.4586144 5.50177-4.2363724 5.50177-4.2363724 4.6009-.7684918 9.174534-1.1648285 13.055691-1.2087711.000584.010015-.000004.000002-.000004.000002zm1.255607-.00195c3.831844.032582 6.84857.4175528 9.521985 1.0837968-3.19939 1.8334572-6.268581 3.76122-8.989068 5.8722839-2.458099 1.90745314-3.896451 3.420049-3.896451 3.420049-2.403644.2473283-5.083545.5522586-7.722604.8748741-2.447123.2991522-4.292165.5435426-4.292165.5435426 3.371043-4.2129179 8.200459-7.9737792 15.378303-11.7945464zm-60.421612.8923544c1.96158 2.0228123 3.95742 4.2913689 5.80926 7.3590974 1.66604 2.7599467 2.7021 5.3599969 2.7021 5.3599969-1.38463-.2658263-3.01746-.6273527-5.02314-1.114036-1.82418-.442641-3.50966-.8770221-3.50966-.8770221-.00027.18833.0218-10.9132528.0214-10.7280363 0 0 .00001.0000001.00001.0000001zm124.4823149-.021565c.0005043 3.4946431-.021906 10.1280906-.021906 10.1280906-3.4710501-.7777708-12.5211029-1.78048839-12.5211029-1.78048839 5.34768-2.21575161 8.787869-4.70681931 12.5430089-8.34760391zm-79.9685409.6224541c-2.936886 2.0063387-5.64841 4.3458121-7.961385 7.1834128-2.090985 2.5652583-3.225635 4.7894852-3.225635 4.7894852-2.877374.4232107-7.763484.9675466-7.763484.9675466.64056-1.7113944 1.47976-3.5998115 2.6118-5.52995566 1.03441-1.76367024 2.05366-3.07554624 2.05366-3.07554624 4.305578-2.0175331 9.252083-3.3982755 14.285044-4.3349427zm26.329652-.1701741c2.751635.769645 5.244236 1.8592496 7.940579 3.0310152-2.359251 1.7644592-5.737762 4.76624184-5.737762 4.76624184-2.789872.16160306-6.080685.39617376-9.258604.65430846-2.978583.2419431-5.250774.455211-5.250774.455211 2.958273-2.94277757 6.864596-5.7385438 12.306561-8.9067765zm8.904142 3.4488778c3.154406 1.3666752 5.418275 2.2908802 9.343954 3.78849316-4.968885.0686509-14.316184.46601541-14.316184.46601541 1.376649-1.34787644 3.006054-2.73227727 4.97223-4.25450857zm-50.996448 1.7868037c-1.68133 2.47046557-3.9835 7.946935-3.9835 7.946935-2.09313.1939909-6.08681.2437726-6.08681.2437726 2.68198-3.3435588 5.9199-6.02587004 10.07031-8.1907076zm-28.77424 6.3782814c3.77485 1.1470808 9.04146 2.5075059 9.04146 2.5075059-.33287 5.185323-.46871 16.2019-.46871 16.2019-1.36427-.923487-2.85661-2.071635-4.92888-3.764835-1.85085-1.512283-3.65139-3.006518-3.65139-3.006518-.00003.280169.008-12.2166218.008-11.9380384 0 0-.00009-.0000145-.00009-.0000145zm10.47276 2.8198459c2.05916.437405 5.64434.8050728 5.64434.8050728-1.32976 1.9945982-2.4703 4.0995172-3.49554 6.2367282-.67948-2.451994-1.37226-4.8063244-2.1488-7.041801zm7.07051.8839778c2.16497.095698 6.63145-.258329 6.63145-.258329-.87333 2.9061202-1.82118 8.9827502-1.82118 8.9827502-1.80534 2.909376-3.20636 6.179636-4.36436 9.69625-.5949.02819-1.81372-.103515-1.81372-.103515-.071-6.21884.31289-12.574558 1.36781-18.3171549zm7.40105-.3424853c1.30021-.1412581 2.81014-.3532469 4.56065-.6350237 1.597297-.2571143 2.983095-.5033198 2.983095-.5033198-.100763.2278125-.296908.6473177-.296908.6473177-3.579587 2.0176282-6.553717 4.7304783-8.997027 8.2740983.38343-2.659179.95399-5.275618 1.75019-7.7830725zm32.564804-4.9718849c2.432863-.2734425 5.647834-.5863519 8.957755-.8678404 3.115458-.2649506 5.715471-.4489476 5.715471-.4489476-1.150207 1.2125896-2.746045 3.4092577-2.746045 3.4092577-4.15605-.7007343-8.499746-1.3433762-12.296714-1.6791586.120695-.137674.243861-.2754416.369533-.4133111zm16.429912-1.4283416c5.311767-.3163555 16.527114-.5796704 16.527114-.5796704-.885083 1.2946251-1.6602 2.6207265-2.217007 4.0066459-.503895 1.2542197-.676196 2.213684-.676196 2.213684-1.965547.055748-5.907231.2748922-5.907231.2748922-3.529351-.8211862-7.330921-1.5454165-10.675834-2.1287915.731235-1.2205867 1.701452-2.4730728 2.949154-3.7867602zm20.192843-.5870551c4.601978.02726 13.491128.4501748 13.491128.4501748-2.213349.7993309-7.152072 2.2447761-7.152072 2.2447761-2.117014-.9712901-4.311857-1.870478-6.339058-2.6949479.0099.00784.000002-.000003.000002-.000003zm16.478695.6802068c2.890464.2558281 6.049061.6204558 9.116551 1.1692855 2.8126933.5032418 4.7546614 1.0406998 4.7546614 1.0406998.00563 3.6239964-.00812 10.704038-.00812 10.704038-2.2606793-1.588368-5.0517254-3.014154-8.6021684-4.186328-3.216569-1.0619452-6.074999-1.5867232-6.074999-1.5867232.100408-2.2752126.358665-4.5692691.814075-7.140972 0 0-.000003-.0000001-.000003-.0000001zm-67.774413 3.3885194c-1.646474 2.4141277-2.957991 5.1282209-3.767663 8.1725279-.734005 2.759807-.821905 4.958204-.821905 4.958204-1.88956.912285-3.584731 1.784185-5.51959 2.805227-1.684053.888689-2.888653 1.528156-2.888653 1.528156.0375-2.600099.3062-5.603114 1.054488-8.759063.68676-2.896449 1.642759-5.1334521 1.642759-5.1334521 3.15271-1.7848413 6.644737-2.9239815 10.300579-3.5716217.0051.010266-.000015.0000219-.000015.0000219zm1.181066-.191487c3.656403-.5391335 7.308127-.5921159 10.920472-.4004871-1.30032 1.6540769-2.403068 3.4668714-3.163621 5.4507923-.68982 1.7994137-.883496 3.2154127-.883496 3.2154127-2.506972.813824-5.016266 1.729018-7.598659 2.800976-2.316887.961746-3.955841 1.740555-3.955841 1.740555.330484-4.264717 1.743286-8.6491583 4.681145-12.8072489zm-27.365577 4.4080521c-.79346 5.0677248-1.12234 15.7879748-1.12234 15.7879748-.8914-3.055823-2.49497-9.080423-2.49497-9.080423 1.05126-2.306255 2.22842-4.571883 3.61731-6.7075518zm75.447845-7.8999112c2.185608.8327158 4.562926 1.7483871 6.844286 2.7417696-3.015793.8564485-9.197425 2.6071357-9.197425 2.6071357.384416-1.6795593 1.139627-3.4033463 2.353139-5.3489053zm16.648859.7385721c-.40842 2.0623371-.805272 5.6461058-.805272 5.6461058-1.995014-1.3301185-4.100395-2.4710087-6.238119-3.4964871 2.452561-.6797578 4.807431-1.3727952 7.043391-2.1496187zm-98.949974 6.4455594c.79781 2.2424665 2.24451 7.1520855 2.24451 7.1520855-.97119 2.116786-1.87063 4.311446-2.69499 6.338445.0212-4.578622.15877-9.162797.45048-13.4905305zm21.657946.7151454c-.938766 2.4967901-1.668116 5.3213391-2.072946 8.4897961-.36772 2.877972-.34906 5.181133-.34906 5.181133-1.29822.686551-2.77277 1.435413-4.17528 2.044407-1.30828.56808-2.29443.886503-2.29443.886503-.0258-2.602599.34632-7.832294.34632-7.832294 2.28675-3.712603 5.09899-6.597797 8.545394-8.7695367.0055.011449.000002-.0000084.000002-.0000084zm24.750071-4.7314117c3.89599.2654176 8.385404.837625 12.668671 1.4903816-.583837 1.0792504-1.238078 3.0850039-1.238078 3.0850039-3.157473.5301691-6.483824 1.1996173-9.91135 2.0610933-3.101235.779466-5.345128 1.484753-5.345128 1.484753.469238-2.650193 1.674935-5.3754383 3.825885-8.1212318zm-43.731347 12.6955388c.85285 3.040108 2.60706 9.199358 2.60706 9.199358-.93228-.204084-2.01016-.565135-3.24316-1.170111-1.12619-.552568-2.10601-1.183454-2.10601-1.183454.8329-2.186135 1.74844-4.563839 2.74211-6.845793zm87.724653-12.5623668c2.306239 1.0512166 4.571718 2.2285938 6.707395 3.6173902-5.03652-.7882845-15.788591-1.1215598-15.788591-1.1215598 3.068564-.8953994 6.064383-1.6757011 9.081196-2.4958304zm-29.719755 1.6088101c2.590785.4128296 5.374444.9000872 8.06527 1.4497878-3.079483.2775791-9.026522 1.0832132-9.026522 1.0832132.208337-.8307797.525205-1.6737831.961252-2.533001zm-48.357768 13.1117877c-.17391 2.241023-.2161 6.688556-.2161 6.688556-1.00561.317321-2.94732.598129-2.94732.598129.88522-2.594509 1.91852-5.038934 3.16342-7.286685zm-22.12978-1.511732c1.83174 1.617354 3.79789 3.390998 5.49479 4.823887 1.59842 1.349734 2.711 2.17154 2.711 2.17154-1.78559 4.371955-2.87193 6.758294-4.50021 10.06938-1.11755-1.48159-3.70091-5.102438-3.70091-5.102438 0 .007-.004-11.95534-.004-11.962272 0 0-.00022-.000097-.00022-.000097zm9.36279 7.829794c1.28758.897124 2.62761 1.679347 4.00626 2.229057 1.254.500009 2.21306.663919 2.21306.663919.0564 1.999742.27462 5.909904.27462 5.909904-.82112 3.529026-1.54511 7.329438-2.12846 10.674095-1.17083-.688022-3.78636-2.949418-3.78636-2.949418-.32181-5.297404-.53172-10.899376-.57916-16.527567 0 0 .00004.00001.00004.00001zm8.91382 3.109196c1.22048-.03238 3.68989-.693229 3.68989-.693229.10152 2.547595.42049 5.688352.85514 8.714827.40989 2.854132.84638 5.067623.84638 5.067623-.0802.486622-.15715.975271-.22752 1.466411-1.27878-1.83163-2.67948-4.492615-3.9099-7.229381-1.16489-2.591006-1.97622-4.783897-1.97622-4.783897.22747-.854664.46808-1.703219.72223-2.542354zm4.34755-.917183c1.12473-.395526 2.38465-.960567 3.88774-1.745272 1.36131-.710681 2.54906-1.398857 2.54906-1.398857.0221.531133.0715 1.556858.0715 1.556858-2.47139 3.781179-4.08405 8.426733-5.10517 13.603057-.75459-3.867704-1.24332-7.924862-1.40317-12.015783 0 0 .00004-.000003.00004-.000003zm29.616337-14.197879c2.538048-.833874 5.567349-1.721299 9.150097-2.55671 3.269591-.762391 6.090765-1.2530268 6.090765-1.2530268-.25875 1.6068218.256681 4.6202868.256681 4.6202868-5.245912-.418332-10.780749-.392717-15.564931.08238.0134-.296676.03585-.594367.06745-.892942 0 0-.000065.000012-.000065.000012zm17.124841-4.1322121c3.669948-.5941352 11.425172-1.3667515 11.425172-1.3667515.865732.1927331 1.73168.3949436 2.592332.609083-2.502973.9194884-5.26532 2.0582946-7.947248 3.4976166-2.457752 1.319014-4.156643 2.557774-4.156643 2.557774-.496321-.06086-.994284-.115298-1.492794-.167046-.554418-1.686271-.723581-3.385807-.420819-5.1306761zm20.189745-1.7587138c3.482537-.037065 7.495326.059678 11.637789.4542748 3.810006.3629269 6.678957.9128239 6.678957.9128239-.06503 2.1711362.258188 6.6316982.258188 6.6316982-2.876097-.864059-8.984304-1.820791-8.984304-1.820791-2.908846-1.804909-6.178224-3.205717-9.694193-4.3635518-.0116-.602965.02168-1.2060833.103561-1.814454 0 0 .000002-.0000001.000002-.0000001zm21.121327 1.9482344c2.955421.6898285 6.153474 1.6799145 9.177138 3.1693385 2.7723599 1.365634 4.6275749 2.831176 4.6275749 2.831176.010441 3.554458.00426 10.675871.00426 10.675871-1.4648575-1.788972-4.8000449-4.752082-4.8000449-4.752082-2.294794-5.050111-5.221996-8.839605-9.008923-11.9243033 0 0-.000001-.0000002-.000001-.0000002zm-72.483877 9.8948345c-.03193 2.465753.259483 5.165361 1.03659 8.019302.706936 2.596241 1.624464 4.549542 1.624464 4.549542-1.793062 1.602227-3.299231 3.034999-5.18357 4.827875-1.608456 1.530386-2.797391 2.630989-2.797391 2.630989-.821378-2.217272-1.600894-4.800791-2.167546-7.727729-.5171-2.671032-.68662-4.87199-.68662-4.87199 2.130446-3.171371 4.816693-5.605817 8.174073-7.428013.0084.0096 0 .000024 0 .000024zm1.080302-.554131c3.430164-1.661679 7.314254-2.644794 11.411135-3.217997.02199 1.488933.247733 3.107079.795875 4.846273.497841 1.579596 1.128679 2.798189 1.128679 2.798189-2.349649 1.390612-4.67914 2.959552-7.075012 4.807118-2.149854 1.657853-3.668177 3.001785-3.668177 3.001785-1.731272-3.827981-2.684469-7.980521-2.5925-12.235368zm-30.666815 7.957334c.0689 4.99909.4658 14.320022.4658 14.320022-1.27975-1.294444-4.25542-4.973847-4.25542-4.973847 1.36733-3.15587 2.29128-5.418481 3.78962-9.346175zm101.154083-16.720248c3.344466 2.682116 6.027696 5.920076 8.193038 10.071061-2.445246-1.663769-7.949335-3.983518-7.949335-3.983518-.179975-2.097691-.270546-4.090414-.243703-6.087543zm-80.470603 17.893459c.24603 2.386222.68493 4.99537 1.41112 7.758791.660466 2.513333 1.377705 4.418168 1.377705 4.418168-1.299735 1.183759-2.773735 2.443654-4.277795 3.500406-1.39015.976718-2.48499 1.526853-2.48499 1.526853-.26235-.985366-.76172-3.036014-.76172-3.036014.87009-5.331996 2.35606-10.187667 4.73568-14.168204zm22.874262-12.538273c4.897859-.563725 10.554524-.635764 15.88856-.199427.166017.410956.512503 1.224738.512503 1.224738-3.049233.884456-6.246994 2.012704-9.503212 3.475482-2.948662 1.324614-5.054441 2.532108-5.054441 2.532108-1.122689-2.261166-1.775113-4.611838-1.84341-7.032901zm-34.980152 17.107922c.918 2.515103 2.06202 5.286224 3.49835 7.959372 1.31834 2.453565 2.55503 4.144887 2.55503 4.144887-.0607.495846-.11516.993105-.16684 1.491169-.93512.316604-2.01145.54795-3.18149.572756-1.0723.02273-1.94846-.151706-1.94846-.151706-.5887-3.638834-1.36565-11.423211-1.36565-11.423211.19277-.866172.39484-1.732208.60906-2.593262zm67.640129-23.6174018c.854114.2273794 1.701881.4679656 2.54053.7219807.06571 1.2178781.693079 3.6906711.693079 3.6906711-2.531941.101218-5.670177.419575-8.701462.854839-2.857859.410362-5.078806.848066-5.078806.848066-.486631-.08024-.975164-.157082-1.466331-.227489 3.445431-2.406396 7.518483-4.287032 12.01299-5.8880678zm-68.724639 28.4491958c.28019 3.110879 1.0822 9.023644 1.0822 9.023644-.81172-.189161-2.53145-.960857-2.53145-.960857.41257-2.589926.89988-5.372862 1.44925-8.062787zm73.409155-27.036304c2.593102.884973 5.03631 1.917724 7.282932 3.162038-2.199833-.170378-6.685099-.215384-6.685099-.215384-.299509-1.002134-.503816-1.977609-.597833-2.946654zm-89.502555 20.568371c1.18777 1.733225 3.26501 4.662728 3.26501 4.662728-1.22437 2.479674-2.34079 4.735455-3.13212 7.331194-.0301-.04323-.12013-.214238-.12013-.214238.00085.654885-.0137-12.441349-.0124-11.779453 0 0-.00032-.000231-.00032-.000231zm4.39207 6.204332c1.76592 2.386507 4.76805 5.740877 4.76805 5.740877.17042 2.943379.37828 6.020006.64823 9.320169.24306 2.97129.4612 5.18966.4612 5.18966-1.61873-1.621307-3.429-3.778986-5.47855-6.806038-1.86341-2.752128-3.42952-5.50428-3.42952-5.50428.76959-2.751738 1.85883-5.24418 3.03059-7.940388zm5.65584 6.626454c1.2145 1.179283 3.40838 2.746026 3.40838 2.746026-.70072 4.156103-1.34355 8.499466-1.6793 12.296544-.12641-.10012-.41278-.369165-.41278-.369165-.51577-4.520517-.9683-9.416322-1.3163-14.673405zm4.34468 3.307707c1.08334.614423 3.08375 1.237889 3.08375 1.237889.53215 3.170824 1.20267 6.499375 2.06277 9.92156.77847 3.097412 1.48168 5.335327 1.48168 5.335327-1.47131-.254284-3.18013-.78261-5.03682-1.786957-1.7005-.91985-3.08084-2.038244-3.08084-2.038244.26517-3.896939.83685-8.385409 1.48946-12.669575zm3.86474 1.401204c1.61435.289746 4.61866-.256549 4.61866-.256549-.4181 5.246169-.39225 10.781168.0828 15.565307-.28466-.001-.89313-.06745-.89313-.06745-1.49998-4.542542-2.80044-9.60549-3.80836-15.241311v.000005zm5.5988-.570821c.41423-.135216 1.22505-.512769 1.22505-.512769.8878 3.062268 2.01788 6.261961 3.4784 9.513218 1.32299 2.94511 2.526979 5.045342 2.526979 5.045342-1.254679.631218-2.717649 1.196269-4.334329 1.529883-1.48093.305606-2.69754.313302-2.69754.313302-.56338-4.897905-.63504-10.55473-.19856-15.888976zm2.50135-1.181461c2.00968-1.139768 6.332659-4.93142 6.332659-4.93142.416574 1.012563 1.302167 2.955126 1.302167 2.955126-.484181 2.235578-.74905 4.583588-.812332 6.95491-2.541584-1.224182-4.801544-2.878691-6.822494-4.978616zm7.131973-5.684845c.832246-.776164 2.616571-2.550698 2.616571-2.550698-.702114 1.451107-1.268821 2.992152-1.710787 4.605776-.316484-.675117-.618591-1.360173-.905784-2.055078zm15.532464-14.009751c1.312094-.939653 4.098965-2.746027 4.098965-2.746027.257388.43489.774397 1.291397.774397 1.291397-1.680633.374791-3.316006.857874-4.873362 1.45463zm5.484671-3.57597c2.188332-1.267659 4.797077-2.614321 7.893539-3.89304 2.825928-1.166998 5.277668-1.931649 5.277668-1.931649-1.111135 1.097854-2.312484 2.628935-3.346581 4.195528-.980625 1.485585-1.64445 2.754824-1.64445 2.754824-2.374665.02378-4.769662.245352-7.076541.654442-.399303-.587838-.767772-1.180896-1.103635-1.780105zm16.235051-6.73366c1.015347-.27072 3.038065-.762716 3.038065-.762716 5.331768.869951 10.187581 2.355444 14.167885 4.735017-2.373848.245108-4.980869.682368-7.749968 1.410022-2.51744.661525-4.429083 1.381678-4.429083 1.381678-2.146011-2.376048-3.872194-4.555598-5.026899-6.764001zm5.521165-1.28953c2.179328-.422039 4.671234-.813847 7.440337-1.087046 2.526336-.249249 4.572527-.317223 4.572527-.317223.420249 1.141331.967634 2.367097 1.7566 3.887605.706483 1.361543 1.387223 2.549581 1.387223 2.549581-.502204.02139-1.557556.07184-1.557556.07184-3.780365-2.470941-8.424281-4.083636-13.599136-5.104801 0 0 .000005.000047.000005.000047zm14.046699-1.456499c2.634115-.02637 7.828867.345429 7.828867.345429 3.711825 2.286368 6.596661 5.097909 8.768124 8.543519-2.483756-.933175-5.30353-1.663484-8.476312-2.069236-2.880685-.368397-5.190391-.349647-5.190391-.349647-1.24857-2.389188-2.261136-4.474492-2.930288-6.470065zm10.115165.62871c2.679842.391648 7.783811 1.749805 7.783811 1.749805.164764 1.360371.359299 2.7604.645627 4.564949.253255 1.596104.492472 2.978582.492472 2.978582-.200905-.08803-.648739-.297466-.648739-.297466-2.017499-3.579079-4.729893-6.552827-8.273171-8.99587zm9.645464 2.390623c1.725651.645581 3.615712 1.487389 5.541675 2.617639 1.760434 1.03311 3.066218 2.047824 3.066218 2.047824 2.0174 4.304955 3.3979348 9.250678 4.3345647 14.282866-1.9970531-2.922668-4.3329957-5.635209-7.1751517-7.952904-2.568508-2.094542-4.799688-3.232588-4.799688-3.232588-.402318-2.819211-.739394-5.361497-.967618-7.762837zm10.285818 6.033935c1.4786647 1.303742 4.1247361 4.37561 4.1247361 4.37561.013667 3.571705.012566 10.8459.012566 10.8459-.032295-.0436-.1280611-.210646-.1280611-.210646-.868804-5.209567-2.1428767-10.44174-4.009236-15.01077.01106.014-.000002-.000093-.000002-.000093s-.000002-.000001-.000003-.000001zm-78.890028 10.278397c1.05069 2.095457 2.69039 4.530005 4.529381 6.832443 1.727441 2.162778 3.286516 3.784348 3.286516 3.784348-1.422588 1.73169-3.477738 4.302506-5.150623 6.316177-1.673989 2.014999-2.996031 3.472419-2.996031 3.472419-1.189558-1.458891-2.575389-3.411556-3.842341-5.420647-1.194946-1.894906-2.05815-3.492914-2.05815-3.492914 1.054871-4.473529 3.04394-8.381225 6.231248-11.491826zm1.00552-.920861c3.366377-2.893633 7.595744-4.722539 12.157247-5.725324 1.468277 2.042525 5.406093 6.028128 5.406093 6.028128-3.720211 3.158927-9.790958 10.079195-9.790958 10.079195-3.197662-3.180818-5.847721-6.581755-7.772382-10.381999zm26.755923-14.618531c1.166178 1.999855 4.931286 6.334588 4.931286 6.334588-.987534.406715-2.956758 1.30366-2.956758 1.30366-2.235199-.484103-4.582694-.749186-6.953673-.812371 1.224172-2.542884 2.878849-4.803962 4.979145-6.825877zm-43.008895 30.505922c1.15853 1.183827 2.53194 2.368632 4.1654 3.434178 1.488155.970765 2.783121 1.558043 2.783121 1.558043.02368 2.375335.245571 4.770838.654653 7.078286-.577561.408372-1.780012 1.103824-1.780012 1.103824-2.276422-3.913972-4.252162-8.273018-5.823162-13.174331zm8.662652-1.761181c1.383531 2.59612 4.663513 7.258595 4.663513 7.258595-1.842768-.354639-5.201039-1.544586-5.201039-1.544586.03158-1.935235.207749-3.857312.537526-5.714009zm21.503877-20.193695c1.894567-.323115 3.841165-.510458 5.779113-.55552-.660791 1.651491-1.543512 5.274181-1.543512 5.274181-1.604788-1.551862-3.027096-3.108721-4.235601-4.718661zm-22.035905 27.469817c1.666418.684732 5.274024 1.544299 5.274024 1.544299-1.533253 1.604611-4.718553 4.236738-4.718553 4.236738-.323082-1.895154-.510512-3.842424-.555471-5.781037zm29.376991-28.030924c1.935077.03147 3.857026.207555 5.713489.537291-2.571947 1.371538-7.257597 4.665435-7.257597 4.665435.350978-1.825165.858656-3.55796 1.544108-5.202726zm-62.603875 20.225027c1.83088 3.207238 3.76533 6.286312 5.8737 9.000664 1.90776 2.456081 3.4199 3.888699 3.4199 3.888699.261 2.536955.54144 5.052855.87753 7.789539.29924 2.436511.54058 4.22339.54058 4.22339-2.31286-1.846098-4.84822-4.430938-7.50172-8.253164-2.41823-3.483323-4.2933-7.128588-4.2933-7.128588.0326-3.831177.41729-6.847658 1.08331-9.52054zm11.70443 15.032318c1.65115 1.31007 3.4706 2.41566 5.45069 3.171863 1.7983.686779 3.21173.87458 3.21173.87458.81659 2.516591 1.73282 5.027614 2.80255 7.605129.9602 2.313608 1.73656 3.948006 1.73656 3.948006-2.36698-.178955-5.13056-.727194-8.04038-1.98949-2.67197-1.159105-4.76037-2.690983-4.76037-2.690983-.53896-3.655821-.59208-7.307083-.40078-10.919105zm11.41757 4.260875c1.4875-.0086 3.11798-.237563 4.8499-.787063 1.57827-.500757 2.793373-1.137155 2.793373-1.137155 1.395381 2.358719 2.966263 4.689953 4.810062 7.081369 1.655302 2.146935 2.99509 3.661087 2.99509 3.661087-2.131673.970619-4.658638 1.824478-7.494865 2.270822-2.5983.408899-4.73728.320639-4.73728.320639-1.66082-3.429867-2.64348-7.313484-3.21628-11.409699zm8.627079-2.442067c.444853-.233657 1.291448-.77459 1.291448-.77459.37473 1.680772.857368 3.317016 1.454038 4.874446-.941617-1.298761-1.859285-2.661126-2.745486-4.099856zm2.37528-1.507751c2.058205-1.448458 6.026968-5.406469 6.026968-5.406469 3.173735 3.739453 10.074672 9.79074 10.074672 9.79074-1.752817 1.772124-3.845463 3.641088-6.262193 5.313969-2.215153 1.533348-4.116925 2.458013-4.116925 2.458013-2.892347-3.366281-4.720225-7.595215-5.722522-12.156253zm7.558938-7.098554c1.273124-1.430394 3.882898-4.660689 3.882898-4.660689-.370161 1.573006-.509681 3.205809-.423961 4.829131-1.17624-.0111-2.329069-.06481-3.458937-.168442zm12.521267-15.056742c1.539767-1.665253 4.838488-4.831791 4.838488-4.831791-.08543 1.140557-.166858 3.494047-.166858 3.494047-1.610233.226935-3.191273.676652-4.67163 1.337744zm6.914874-6.620207c1.468152-1.197729 3.421924-2.584139 5.42766-3.849108 1.892067-1.19328 3.484238-2.053305 3.484238-2.053305 4.472666 1.054839 8.37951 3.044482 11.489733 6.231981-2.085313 1.046479-4.518289 2.684975-6.823346 4.52636-2.164751 1.729301-3.790554 3.29222-3.790554 3.29222-3.550981-2.933894-6.767532-5.418397-9.787731-8.148148zm10.613577-6.741707c.694411-.316182 2.056773-.907084 2.056773-.907084.811524.833733 2.552494 2.619088 2.552494 2.619088-1.451922-.702855-2.9946-1.269729-4.609267-1.712004zm3.638959-1.528996c2.229214-.826461 4.81595-1.605794 7.738806-2.17156 2.668056-.516445 4.862251-.685557 4.862251-.685557 3.171198 2.130337 5.605506 4.816591 7.427532 8.174012-2.455745-.03122-5.153351.258173-8.011912 1.036583-2.599463.707854-4.558159 1.628459-4.558159 1.628459-2.657869-2.991316-5.240147-5.578182-7.458518-7.981937zm17.168254-3.030305c2.612833.03733 5.616585.307973 8.767032 1.055334 2.891917.686031 5.121403 1.638572 5.121403 1.638572 1.784748 3.152147 2.923836 6.643633 3.571654 10.2992-2.403683-1.638261-5.113535-2.950575-8.161586-3.761619-2.762035-.734939-4.965645-.822915-4.965645-.822915-1.530825-3.194505-3.052983-5.985651-4.332858-8.408572zm17.511576 4.456873c2.494684 1.421517 5.204814 3.412842 7.892877 6.341299 2.4558394 2.675464 4.2282472 5.491766 4.2282472 5.491766.7685104 4.600514 1.1649432 9.174046 1.20887 13.055151-2.1379397-3.994781-4.5064232-7.71663-7.3020342-10.895223-2.519941-2.865156-4.653793-4.417159-4.653793-4.417159-.47441-3.465272-.918686-6.436556-1.374167-9.575834zm-60.798227 19.292802c3.028707 2.885335 9.902419 8.176973 9.902419 8.176973-2.316212.32615-5.163646.713387-7.947262.956246-2.612434.227921-4.62326.256487-4.62326.256487-.181952-3.302676.660391-6.633584 2.668103-9.389706zm.958529-1.17398c2.298318-2.518608 5.405562-4.031199 8.671744-4.536304.09288 4.000675 1.215927 12.632899 1.215927 12.632899-3.496166-2.631098-6.8343-5.210287-9.887671-8.096595zm10.391634-9.604589c1.474048 1.278536 4.665747 3.888119 4.665747 3.888119-1.574465-.371556-3.208998-.512121-4.834082-.426604.01103-1.177116.0647-2.330805.168335-3.461515zm-18.803829 21.567545c1.148167.103752 3.493062.167121 3.493062.167121.22737 1.611459.678082 3.193551 1.340113 4.674774-1.667357-1.526528-3.286194-3.126585-4.833175-4.841895zm4.94775.15958c4.019577-.07555 12.629357-1.215421 12.629357-1.215421-1.395378 1.865939-3.150336 4.177585-4.957069 6.344155-1.701948 2.040911-3.136809 3.542844-3.136809 3.542844-2.517886-2.298454-4.030577-5.405332-4.535479-8.671578zm13.694823-16.822846c3.302342-.182029 6.632468.661269 9.388236 2.669433-2.86739 3.011619-8.175235 9.904554-8.175235 9.904554-.608828-4.32513-1.137193-8.508442-1.213001-12.573987zm-61.523844 17.634395c2.14527 4.021054 4.52009 7.746491 7.31015 10.915378 2.51707 2.858823 4.64444 4.402212 4.64444 4.402212.51381 3.6778 1.37388 9.575966 1.37388 9.575966-2.47904-1.405594-5.19242-3.395634-7.88278-6.327765-2.45894-2.679906-4.237-5.510138-4.237-5.510138-.76831-4.600788-1.16474-9.174682-1.20869-13.055653zm13.37813 16.356352c2.41134 1.654201 5.13179 2.967283 8.1709 3.773481 2.75817.731668 4.95333.815432 4.95333.815432.91469 1.895368 1.78894 3.5951 2.80718 5.525187.88735 1.681953 1.524913 2.883318 1.524913 2.883318-2.591613-.03039-5.601693-.300554-8.753133-1.049629-2.89598-.688352-5.13277-1.647763-5.13277-1.647763-1.7843-3.152594-2.92287-6.644322-3.57042-10.300026zm14.59568 4.650718c2.46505.0417 5.174467-.251746 8.02192-1.02973 2.594573-.708892 4.543813-1.630291 4.543813-1.630291 1.605341 1.797239 3.044564 3.310357 4.831627 5.189002 1.52818 1.606493 2.625662 2.792241 2.625662 2.792241-2.203916.826149-4.801821 1.60858-7.722576 2.171893-2.672047.515346-4.874556.681468-4.874556.681468-3.170681-2.130598-5.60432-4.817071-7.42589-8.174583zm13.875434-3.278043c2.098443-1.039743 4.540499-2.68504 6.836612-4.523069 2.160368-1.729366 3.777387-3.292438 3.777387-3.292438 1.740565 1.430371 4.310525 3.485188 6.321553 5.156214 2.012292 1.672076 3.465708 2.990542 3.465708 2.990542-1.50355 1.241306-3.305991 2.586466-5.381185 3.886925-1.901072 1.191343-3.531251 2.013829-3.531251 2.013829-4.472493-1.054901-8.379092-3.044448-11.488824-6.232003zm11.689502-8.909945c2.904328-3.014631 8.175462-9.903316 8.175462-9.903316.33483 2.3096.72461 5.186735.963534 7.95423.225403 2.610891.249478 4.618281.249478 4.618281-3.302191.182378-6.632746-.661029-9.388474-2.669195zm10.453177-12.935737c1.429997-1.889253 3.151329-4.159645 4.97068-6.346653 1.697618-2.040671 3.123817-3.542623 3.123817-3.542623 2.51807 2.298595 4.031146 5.405932 4.535717 8.672075-4.097727.07802-8.301322.607941-12.630214 1.217201zm9.152577-10.981472c1.777562-1.778291 3.856023-3.636006 6.275333-5.314552 2.21056-1.533712 4.103765-2.460534 4.103765-2.460534 2.892787 3.366099 4.7213 7.594517 5.724022 12.15532-2.026661 1.458006-6.027427 5.408574-6.027427 5.408574-3.138134-3.712147-6.575166-6.849239-10.075693-9.788808zm11.655292-8.387205c2.154287-.968782 4.672401-1.819846 7.509798-2.269004 2.59465-.410732 4.726645-.327499 4.726645-.327499 1.661183 3.429527 2.644071 7.312656 3.217065 11.408714-1.481846.02243-3.098763.246676-4.841535.796052-1.582131.498737-2.804998 1.132246-2.804998 1.132246-2.450343-4.157205-5.119611-7.635879-7.806975-10.740509zm13.6698-2.52594c2.385428.189132 5.143777.737666 8.052705 1.997594 2.66866 1.155863 4.751021 2.678486 4.751021 2.678486.5392 3.655458.592376 7.306243.401181 10.918185-1.645843-1.292954-3.45633-2.396238-5.443167-3.158058-1.801393-.690714-3.22144-.884731-3.22144-.884731-1.430546-4.431913-2.982287-8.207964-4.5403-11.551476zm14.199308 5.726068c2.326513 1.865645 4.859057 4.451155 7.510805 8.269056 2.4156793 3.478016 4.2854137 7.107552 4.2854137 7.107552-.032555 3.830806-.4173227 6.847449-1.0832632 9.520521-1.8247654-3.183983-3.7522345-6.255333-5.8666445-8.980641-1.910384-2.462336-3.427772-3.904881-3.427772-3.904881-.446295-4.414744-.93085-8.377043-1.418539-12.011607zm-48.456819 17.724858c2.335843-.328985 5.179816-.715563 7.961108-.958256 2.608251-.227596 4.611212-.256351 4.611212-.256351.181538 3.302559-.662095 6.632649-2.670482 9.388702-3.060837-2.931252-6.406669-5.538623-9.901838-8.174095zm-.941779 1.255879c1.876455 1.403572 4.18514 3.156842 6.349678 4.962157 2.037903 1.699697 3.535286 3.130073 3.535286 3.130073-2.298162 2.51813-5.404038 4.031142-8.669366 4.536537-.07736-4.096931-.606679-8.300006-1.215598-12.628767zm13.464654-8.716055c1.683039 1.524646 4.838067 4.845024 4.838067 4.845024-1.117215-.100642-3.496862-.166299-3.496862-.166299-.227407-1.612821-.678358-3.196362-1.341205-4.678725zm-18.633391 22.52481c1.574045.371124 3.208125.511296 4.832735.425601.0069 1.188055-.168205 3.460701-.168205 3.460701-1.4766-1.29717-3.032619-2.573421-4.66453-3.886302zm30.775327-28.831599c.957182 1.303091 2.746975 4.10018 2.746975 4.10018-.419322.248888-1.291794.775229-1.291794.775229-.375049-1.681241-.858061-3.31761-1.455181-4.875409zm-41.84733 39.415956c1.451096.702533 2.99262 1.269229 4.606352 1.711447-.656028.317124-2.05524.905946-2.05524.905946-.811254-.851338-1.660192-1.715205-2.551112-2.617393zm17.463943-10.309625c1.610591-.2272 3.192137-.677077 4.672751-1.338661-1.506007 1.662432-4.83946 4.831898-4.83946 4.831898.10305-1.142119.156168-2.306444.166709-3.493237zm13.733409-16.561466c1.204935.01103 3.459535.167345 3.459535.167345-1.262633 1.456693-3.884168 4.662847-3.884168 4.662847.370608-1.573255.510192-3.206519.424633-4.830192zm-78.216214 16.128838c.0531.09764.12806.210721.12806.210721.86883 5.210607 2.14294 10.44392 4.00924 15.01387-1.45413-1.2664-4.12477-4.377511-4.12477-4.377511-.00042-.484116-.0119-10.358081-.0122-10.846809 0 0-.00033-.000271-.00033-.000271zm1.48104 2.308455c2.00418 2.944787 4.34886 5.660305 7.18418 7.969137 2.56535 2.08899 4.78901 3.21989 4.78901 3.21989.4253 2.891693.96772 7.763189.96772 7.763189-1.70718-.632127-3.60395-1.475347-5.53066-2.607248-1.76409-1.036369-3.07635-2.059988-3.07635-2.059988-2.01718-4.305569-3.39728-9.252171-4.3339-14.28498zm13.664 12.04946c.23071.115719.64787.297261.64787.297261 2.01743 3.579772 4.73002 6.554045 8.27333 8.997365-2.64516-.376089-7.78298-1.750813-7.78298-1.750813-.26714-2.324548-.66339-4.78996-1.13822-7.543813zm2.43803 1.032963c2.49273.944724 5.32338 1.674754 8.48752 2.077403 2.87618.366006 5.176459.344364 5.176459.344364.689849 1.304819 1.437736 2.778259 2.045955 4.179501.567156 1.306671.884688 2.290166.884688 2.290166-2.597084.03626-7.826412-.346344-7.826412-.346344-3.7119-2.286631-6.59677-5.098791-8.76821-8.54509zm15.481616 2.40285c.539795-.0096 1.559409-.07161 1.559409-.07161 3.780632 2.471428 8.425283 4.084116 13.600988 5.105089-2.153729.423675-4.662467.817974-7.428865 1.089413-2.531694.248415-4.587552.313838-4.587552.313838-.717431-1.992561-1.80296-4.06557-3.143977-6.436717 0 0-.000003-.000013-.000003-.000013zm3.474787-.228396c2.383286-.238179 5.00504-.67988 7.760306-1.405911 2.511644-.661834 4.413101-1.382043 4.413101-1.382043 1.189322 1.306024 2.448098 2.779631 3.503431 4.282085.975254 1.388447 1.523924 2.480292 1.523924 2.480292-.97267.272279-3.032444.760917-3.032444.760917-5.332102-.869794-10.187854-2.355578-14.168318-4.73534zm13.785026-3.405135c1.02963-.405884 2.956439-1.302872 2.956439-1.302872 2.234801.484091 4.581693.749017 6.952334.812253-.672979 1.418521-1.581791 2.934259-2.797372 4.44807-1.109292 1.381447-2.180147 2.374474-2.180147 2.374474-1.195949-2.078332-2.879056-4.128064-4.931254-6.331925zm4.719222-2.191703c2.643062-1.388403 7.255163-4.661965 7.255163-4.661965-.339199 1.85678-1.543289 5.198741-1.543289 5.198741-1.934494-.03134-3.855973-.207288-5.711874-.536776zm9.404467-6.391729c3.834444-3.226347 9.789967-10.075885 9.789967-10.075885 1.77982 1.760217 3.647918 3.853569 5.318301 6.266661 1.531177 2.211991 2.453525 4.107912 2.453525 4.107912-3.366456 2.893339-7.595237 4.722613-12.156221 5.725833-1.480156-2.079725-3.302769-4.056624-5.405572-6.024521zm10.752098-11.231544c1.575885-1.897203 3.588052-4.420176 5.163937-6.31738 1.670379-2.015396 2.985261-3.474564 2.985261-3.474564 1.248721 1.512317 2.593776 3.31612 3.891624 5.387191 1.189204 1.897699 2.00864 3.521215 2.00864 3.521215-1.055175 4.473782-3.045544 8.381581-6.234064 11.492806-1.943363-3.895363-4.607405-7.373008-7.815398-10.609268zm9.661472-11.412863c1.563323-1.598947 4.717902-4.237586 4.717902-4.237586.322973 1.894464.510179 3.841383.555118 5.779222-1.669443-.685012-3.425914-1.191733-5.27302-1.541636zm5.801407-5.012953c.602676-.393873 1.781176-1.10519 1.781176-1.10519 1.27124 2.175103 2.625196 4.802554 3.898111 7.891076 1.165173 2.8271 1.926772 5.280525 1.926772 5.280525-1.149319-1.173431-2.520082-2.358043-4.157889-3.426413-1.491402-.972869-2.793437-1.562924-2.793437-1.562924-.02377-2.374975-.245564-4.769901-.654733-7.077074zm2.735355-1.609957c1.275235-.625693 2.725338-1.18665 4.34515-1.524554 1.477605-.308239 2.688171-.322329 2.688171-.322329.563576 4.898474.635674 10.555962.199103 15.890837-.398844.161831-1.224493.513096-1.224493.513096-1.574143-5.450016-3.620048-10.267129-6.007931-14.55705zm8.129947-1.838039c.309313.02578.893413.06708.893413.06708.838932 2.525666 1.732116 5.581679 2.562349 9.150872.76048 3.269325 1.248077 6.089973 1.248077 6.089973-1.594813-.255795-4.620944.259262-4.620944.259262.41822-5.24658.392504-10.782423-.08288-15.56712 0 0-.000013-.000072-.000013-.000072zm1.939899.214486c1.487185.269248 3.188405.795534 5.045908 1.797376 1.697739.915674 3.07295 2.023991 3.07295 2.023991-.265132 3.897123-.836745 8.386598-1.489387 12.671133-1.065966-.575886-3.083352-1.235973-3.083352-1.235973-.939173-5.628967-2.150661-10.699242-3.546119-15.256527zm9.245755 4.755997c.147316.139837.414238.370233.414238.370233.279937 2.415638.596988 5.681465.874068 8.964112.262803 3.113494.442916 5.709594.442916 5.709594-1.199669-1.137458-3.410959-2.746135-3.410959-2.746135.700763-4.156154 1.343955-8.500879 1.679745-12.297733.0103.01471-.000008-.000071-.000008-.000071zm1.509177 1.419088c1.631182 1.64519 3.43632 3.797847 5.485917 6.821999 1.8611325 2.746074 3.4221981 5.483585 3.4221981 5.483585-.7697695 2.752434-1.8585347 5.245575-3.0304971 7.94262-1.74936-2.338665-4.767596-5.738102-4.767596-5.738102-.293093-5.17524-.675053-10.018299-1.110022-14.510102zm10.1372166 14.456799c.049737.09893.1201179.214178.1201179.214178.014788 3.88201.0128 11.780916.0128 11.780916-1.1688691-1.684085-3.2653968-4.662438-3.2653968-4.662438 1.2244515-2.4803 2.3410561-4.736548 3.1324789-7.332656zm-60.4996256 11.9087c1.619065 1.547075 4.236423 4.717008 4.236423 4.717008-1.89475.323364-3.841593.511038-5.779701.556231.685648-1.669411 1.192919-3.425946 1.543278-5.273239zm21.079369-22.732271c1.87151.359515 5.200074 1.54192 5.200074 1.54192-.03156 1.934386-.207725 3.855552-.53737 5.711377-1.37406-2.595318-2.938488-5.000467-4.662704-7.253297zm-23.145462 29.188242c2.375259-.02372 4.770558-.245766 7.078079-.655071.422747.598249 1.104639 1.780545 1.104639 1.780545-2.164943 1.264981-4.790149 2.618819-7.882948 3.893482-2.830484 1.166551-5.291425 1.930197-5.291425 1.930197 2.108232-2.063398 3.766195-4.365784 4.991655-6.949153zm29.510211-27.124315c1.429082.687491 2.937853 1.591828 4.45435 2.806863 1.380577 1.106135 2.371961 2.169969 2.371961 2.169969-1.174088.685268-2.434538 1.567715-3.907588 2.790751-1.325854 1.100821-2.426883 2.143166-2.426883 2.143166-.396003-1.004579-1.304038-2.957528-1.304038-2.957528.484035-2.235101.749026-4.582333.812198-6.953221zm-1.215138 8.606734c.329157.681287.907497 2.057653.907497 2.057653-.821088.799726-2.621271 2.555372-2.621271 2.555372.703667-1.453071 1.271132-2.996914 1.713774-4.613025zm-19.501918 17.521254c1.68228-.375254 3.319806-.858634 4.878561-1.456295-1.284237.943368-4.103236 2.748364-4.103236 2.748364-.242302-.433963-.500953-.86456-.775325-1.292069zm-70.574411-.646846c1.48597 1.834958 4.7993 4.753934 4.7993 4.753934 2.29412 5.050658 5.22003 8.841019 9.00609 11.926158-2.93714-.679286-6.14119-1.669344-9.16528-3.160314-2.77551-1.368411-4.63587-2.842878-4.63587-2.842878 0 .0066-.004-10.670196-.004-10.676753 0 0-.00023-.000147-.00023-.000147zm6.53051 6.029392c1.34127.921435 3.07351 1.871794 4.8709 2.700238 1.68294.77569 3.07891 1.286076 3.07891 1.286076.19526 2.106457.24417 6.088926.24417 6.088926-3.34504-2.683018-6.02859-5.922251-8.19398-10.07524zm9.82324 4.601417c2.90717.885958 8.98071 1.821742 8.98071 1.821742 2.90869 1.805359 6.178 3.206432 9.69419 4.364369.02849.605129-.102891 1.813813-.102891 1.813813-3.459629.0422-7.483809-.0544-11.623569-.449934-3.8135-.36432-6.68958-.918563-6.68958-.918563.0811-2.183102-.0213-4.338947-.25887-6.631429 0 0 .00001.000002.00001.000002zm11.33469 2.05336c2.24236.18473 6.684507.2163 6.684507.2163.320492 1.015744.598669 2.946676.598669 2.946676-2.593356-.885091-5.036536-1.918318-7.283176-3.162976zm8.730332.16356c2.544041-.09559 5.693955-.415599 8.714755-.850866 2.853289-.411131 5.065575-.850348 5.065575-.850348.486721.08024.97518.157384 1.466423.227785-1.825925 1.282926-4.492252 2.686101-7.225863 3.913611-2.590799 1.163382-4.783752 1.971925-4.783752 1.971925-.854997-.22759-1.703603-.46839-2.543034-.722679-.04947-1.216629-.291377-2.433572-.694104-3.689428zm19.4919-3.11966c3.058411-.879084 6.271092-2.013926 9.515053-3.473389 2.944242-1.324619 5.042554-2.5326 5.042554-2.5326.635145 1.261636 1.199544 2.725746 1.532601 4.339678.305158 1.47874.313116 2.691085.313116 2.691085-4.898735.564131-10.555654.636759-15.890093.200429-.149354-.40897-.320788-.817162-.513231-1.225203zm15.956312-6.807088c2.353743-1.381081 4.702902-2.964302 7.084514-4.804032 2.145929-1.65767 3.65788-3.002962 3.65788-3.002962.975605 2.141055 1.828681 4.670027 2.274482 7.502674.408478 2.595491.320819 4.728779.320819 4.728779-3.430176 1.661384-7.314094 2.6447-11.410729 3.218087-.02801-2.636882-.71434-5.193191-1.926966-7.642546zm11.754328-8.694685c1.753816-1.549727 3.36497-3.080478 5.194359-4.825462 1.605838-1.53175 2.78971-2.636339 2.78971-2.636339.831116 2.215669 1.613291 4.81634 2.17584 7.732721.51478 2.668743.680703 4.864227.680703 4.864227-2.13102 3.172146-4.818085 5.607252-8.176746 7.42982.06416-4.370195-.912744-8.637831-2.663866-12.564967zm8.778529-8.187782c1.321527-1.184381 2.774275-2.427553 4.286457-3.494497 1.387619-.979053 2.477877-1.535432 2.477877-1.535432.280464 1.001925.762371 3.036192.762371 3.036192-.869964 5.332204-2.355699 10.188246-4.735525 14.168892-.43044-4.232207-1.39606-8.339383-2.79118-12.175155zm9.009852-5.991717c.951612-.304355 2.014264-.533932 3.189084-.563091 1.070211-.02656 1.942383.139371 1.942383.139371.606372 3.671603 1.367059 11.423773 1.367059 11.423773-.192737.865937-.39469 1.731742-.608833 2.592561-.912421-2.498054-2.055383-5.268939-3.494108-7.946171-1.320508-2.457252-2.562208-4.154478-2.562208-4.154478.0608-.496108.114931-.993638.166623-1.491961zm5.891555-.262832c.827477.221639 2.531705.959608 2.531705.959608-.412491 2.589891-.899397 5.372579-1.448682 8.062375-.273582-3.093149-.639207-6.112834-1.083023-9.021983zm3.453902 1.469524c1.186998.72412 3.788174 2.948902 3.788174 2.948902.330261 5.324838.579862 16.526993.579862 16.526993-1.289239-.881137-2.614965-1.656963-4.003022-2.214736-1.255866-.504654-2.218015-.677273-2.218015-.677273-.04582-1.97846-.27523-5.910301-.27523-5.910301.821093-3.528922 1.544892-7.328872 2.128231-10.673585zm4.658506 3.806708c1.29608 1.336002 4.255849 4.972701 4.255849 4.972701-1.367432 3.156522-2.291084 5.417994-3.789511 9.346136-.06105-4.873879-.226369-9.703745-.466338-14.318837zm5.36636 6.432691c1.1349326 1.527918 3.70092 5.10186 3.70092 5.10186.012566 3.984823.00469 11.963461.00469 11.963461-1.8413744-1.614265-3.770579-3.354746-5.488757-4.808634-1.60066-1.354445-2.716518-2.185837-2.716518-2.185837 1.785179-4.371067 2.871922-6.760026 4.49966-10.070776.00919.01673-.000001-.000075-.000001-.000075s.000002.000001.000002.000001zm-67.58267 20.084833c.495526.06072.99249.115037 1.490232.166675.3187.940467.549325 2.017498.574097 3.185509.02271 1.070688-.150866 1.943706-.150866 1.943706-3.640526.600909-11.421668 1.365718-11.421668 1.365718-.865893-.192709-1.731634-.39463-2.592354-.60877 4.536993-1.656278 8.637072-3.589996 12.100557-6.052837 0 0 .000002-.000001.000002-.000001zm47.842295-28.507c1.287739 1.842858 2.689346 4.505966 3.917636 7.237599 1.163256 2.587004 1.971356 4.772072 1.971356 4.772072-.227437.854512-.468149 1.702604-.722252 2.541562-1.20784.06581-3.691213.694651-3.691213.694651-.09542-2.528645-.414963-5.676326-.851006-8.702178-.411746-2.857248-.852308-5.07714-.852308-5.07714.08024-.486763.157381-.975284.227787-1.466566zm-.586525 3.455283c.426713 2.167568.820693 4.678888 1.091614 7.439682.248016 2.527398.313393 4.574832.313393 4.574832-1.137203.419117-2.360746.965147-3.88376 1.755581-1.362944.707359-2.554316 1.39019-2.554316 1.39019-.0088-.510161-.0719-1.557871-.0719-1.557871 2.471424-3.781086 4.084-8.426237 5.104999-13.602325.0092.01163-.000018-.000091-.000018-.000091s-.000017.000002-.000017.000002zm-43.714813 25.406649c5.246364.418057 10.781686.392065 15.566744-.08367-.0017.301061-.06705.892582-.06705.892582-2.514391.835021-5.567565 1.728059-9.140658 2.55927-3.272309.761238-6.100401 1.250025-6.100401 1.250025.266426-1.569254.160073-3.102995-.258656-4.618204 0 0 .000021-.000004.000021-.000004zm-56.734203-.07034c2.26497 1.602879 5.07127 3.030608 8.61204 4.196713 3.21363 1.058368 6.06447 1.578763 6.06447 1.578763-.0476 1.264414-.16263 2.724074-.37736 4.355044-.19689 1.49497-.4359 2.78516-.4359 2.78516-2.86772-.24622-6.04693-.61275-9.10781-1.16209-2.81622-.50542-4.76353-1.0491-4.76353-1.0491.00029-.21311.008-10.492725.008-10.704453 0 0-.0001-.000037-.0001-.000037zm17.56552 6.29302c5.06489.80495 15.781981 1.12252 15.781981 1.12252-3.063911.90373-9.076481 2.49403-9.076481 2.49403-2.30565-1.05099-4.57048-2.22801-6.7055-3.61655zm19.327864 1.07739c2.012466-.0465 5.913143-.27486 5.913143-.27486 3.528023.82055 7.326863 1.54359 10.671104 2.1264-.695557 1.1847-2.948417 3.78789-2.948417 3.78789-5.296335.32837-16.526179.57927-16.526179.57927 1.581645-2.29285 2.496925-4.27694 2.890349-6.21871zm9.033206-.51719c3.166115-.274314 9.019177-1.081884 9.019177-1.081884-.191825.823678-.959042 2.529834-.959042 2.529834-2.589345-.41228-5.371124-.89888-8.060135-1.44795zm10.903051-1.382507c3.158463-.523334 6.508123-1.198106 9.920117-2.057356 3.097837-.780136 5.336594-1.487615 5.336594-1.487615-.255129 1.47879-.785317 3.1884-1.788041 5.041958-.91859 1.69802-2.032697 3.07358-2.032697 3.07358-3.897182-.26477-8.387372-.83631-12.671682-1.48859.580326-1.04835.986086-2.073829 1.235709-3.081977zm16.746676-4.013349c2.501716-.802593 5.039838-1.728554 7.604457-2.795366 2.314117-.962611 3.949133-1.744853 3.949133-1.744853-.179173 2.377404-.729709 5.141779-1.990475 8.047582-1.157888 2.668683-2.684863 4.751103-2.684863 4.751103-3.656001.53933-7.30756.59272-10.92006.40182 2.303015-2.91787 3.570709-5.829643 4.041808-8.660286zm12.643285-5.055209c1.853298-.881508 3.637765-1.798657 5.526809-2.798703 1.68156-.890207 2.884678-1.535935 2.884678-1.535935-.03006 2.604799-.30195 5.616022-1.049932 8.762508-.687462 2.891902-1.643298 5.121519-1.643298 5.121519-3.153014 1.785306-6.645429 2.924716-10.302146 3.572706 2.902959-4.246686 4.28195-8.745365 4.583889-13.122095zm9.215689-4.757469c2.387958-1.233679 6.471008-2.932 6.471008-2.932.03701 2.629667-.345205 7.826256-.345205 7.826256-2.286399 3.711939-5.09832 6.596599-8.544057 8.768198 1.657019-4.393136 2.377789-9.077845 2.418254-13.662454zm7.128916-3.141003c1.015336-.287154 2.947108-.59899 2.947108-.59899-.884965 2.59304-1.91809 5.03595-3.162404 7.282435.176831-2.214524.243975-4.454685.215296-6.683445zm3.916961-.656097c.608649.0049 1.815206.102869 1.815206.102869.04271 3.475921-.05494 7.502092-.450122 11.637056-.364077 3.809484-.916753 6.678123-.916753 6.678123-2.159688-.06416-6.632447.258978-6.632447.258978.876556-2.877992 1.820805-8.984914 1.820805-8.984914 1.804719-2.908172 3.205475-6.176941 4.363311-9.692115zm2.91013.301536c.946376.22567 2.006915.579102 3.2473 1.183014 1.124863.547668 2.101536 1.168581 2.101536 1.168581-.832711 2.185717-1.748184 4.562798-2.741566 6.844155-.856995-3.053743-1.678711-6.092499-2.60727-9.19575zm6.510413 3.111433c1.391661.959096 2.843045 2.073374 4.9347592 3.777963 1.8493556 1.507086 3.6449785 2.991526 3.6449785 2.991526.00912 4.041879-.00754 11.938556-.00754 11.938556-3.7569827-1.11961-9.0405737-2.50705-9.0405737-2.50705.337653-5.153068.474599-10.700656.46837-16.200995h.000002zm-81.178513 16.601905c-.204772.93691-.566816 2.01571-1.170738 3.24686-.551781 1.12483-1.180303 2.10147-1.180303 2.10147-2.186047-.83271-4.563617-1.74844-6.845197-2.74193 3.05393-.85678 6.092684-1.67811 9.196238-2.6064zm74.22035-18.340223c.901866 3.089913 2.495723 9.078639 2.495723 9.078639-1.051139 2.306036-2.228211 4.57139-3.61685 6.706864.788607-5.002326 1.11904-10.422839 1.121127-15.785503zm6.182966 3.009099c-.01498 4.610327-.450162 13.494122-.450162 13.494122-.786507-2.210299-2.24551-7.153486-2.24551-7.153486.971457-2.117436 1.871117-4.313026 2.695672-6.340636zm-98.596734 14.295014c1.9944 1.32986 4.09916 2.47066 6.23629 3.49591-2.43127.68435-7.0405 2.14841-7.0405 2.14841.41227-2.01043.67179-3.84307.80421-5.64432zm84.748591-8.004653c-.380339 2.678595-1.7501 7.787004-1.7501 7.787004-1.355808.164309-2.752549.358319-4.560338.645219-1.597739.25357-2.98406.49351-2.98406.49351.10333-.20458.298659-.65142.298659-.65142 3.579201-2.01775 6.552827-4.730848 8.995839-8.274313zm-46.245052 10.666453c4.156289.70016 8.501971 1.34304 12.299103 1.67826-.116146.14482-.370906.41499-.370906.41499-2.403978.27859-5.668399.59561-8.954457.87303-3.116437.26309-5.71907.44372-5.71907.44372 1.126912-1.17464 2.032796-2.30494 2.74533-3.41zm-31.033229 1.41276c2.11741.97148 4.31279 1.87093 6.34058 2.69546-4.57985-.015-13.49295-.45076-13.49295-.45076 2.27286-.80866 4.66364-1.53321 7.15237-2.2447zm87.852084-10.794906c.682908 2.463513 2.149789 7.043206 2.149789 7.043206-2.049854-.40575-5.646411-.80487-5.646411-.80487 1.330132-1.995052 2.471137-4.100549 3.496622-6.238336zm-111.861994 11.798996c3.49365.80208 12.52167 1.78199 12.52167 1.78199-2.87241 1.19762-5.63253 2.64849-8.37808 4.72702-2.45621 1.85951-4.16542 3.62045-4.16542 3.62045.00041-.14281.0215-9.98914.0218-10.12947 0 0 .00002.00001.00002.00001zm15.42312 1.99755c5.17991.34664 16.199745.4689 16.199745.4689-.926275 1.36912-2.076935 2.86463-3.767035 4.93386-1.51034 1.84915-2.99984 3.64465-2.99984 3.64465-4.02052.009-11.93869-.008-11.93869-.008 1.10306-3.66674 1.89495-6.38829 2.50583-9.03986 0 0-.00001.00009-.00001.00009zm19.941765.44319c4.986789-.0558 14.316728-.4659 14.316728-.4659-1.308557 1.29425-4.97009 4.25429-4.97009 4.25429-3.157185-1.36721-5.418286-2.29024-9.346638-3.78839zm16.047915-.55989c2.895461-.16011 6.052009-.37366 9.313847-.64236 2.973267-.24492 5.196146-.46749 5.196146-.46749-1.628347 1.62656-3.789706 3.43821-6.811831 5.48463-2.748596 1.8612-5.490971 3.42221-5.490971 3.42221-2.75274-.76963-5.246364-1.85845-7.943815-3.03014 2.302633-1.71355 4.17574-3.25716 5.736624-4.76685zm15.988789-1.25617c2.470964-.24521 5.100703-.53849 7.782783-.87016 2.438901-.30161 4.230275-.54852 4.230275-.54852-1.85326 2.32304-4.442354 4.85907-8.25953 7.50899-3.479608 2.41559-7.113375 4.28525-7.113375 4.28525-3.8312-.0325-6.848152-.4172-9.52173-1.08317 5.740303-3.28434 9.820631-6.19858 12.881577-9.29239zm13.204582-1.58021c3.802535-.50976 9.57859-1.37481 9.57859-1.37481-1.410621 2.48943-3.405162 5.2049-6.333046 7.89118-2.676531 2.45567-5.496747 4.22803-5.496747 4.22803-4.601238.76876-9.175771 1.16549-13.057612 1.20941 7.166319-3.83057 11.97353-7.6568 15.308815-11.95381zm10.527544-1.51113c2.817835-.38984 7.763653-.96816 7.763653-.96816-.636865 1.72091-1.482133 3.61853-2.611527 5.54052-1.034376 1.76028-2.052669 3.06604-2.052669 3.06604-4.304696 2.01748-9.250054 3.39786-14.281879 4.33458 5.214456-3.55737 8.758114-7.53829 11.182422-11.97298zm8.558398-1.04014c2.096569-.16566 6.088802-.24431 6.088802-.24431-2.682482 3.34478-5.920879 6.02823-10.072375 8.19362 1.680413-2.45856 2.982092-5.12688 3.983573-7.94931zm7.622751-.2004c1.28707.0653 2.697075.1745 4.354405.38848 1.496018.19326 2.786996.42529 2.786996.42529-.2472 2.88091-.614317 6.06013-1.162944 9.11681-.504799 2.81249-1.046825 4.75454-1.046825 4.75454-3.604905.006-10.703807-.008-10.703807-.008 2.824805-4.00763 4.631087-9.01998 5.772188-14.67702 0 0-.000013.00012-.000013.00012zm8.634074 1.09375c1.444043.29317 2.972378.62922 5.0295731 1.12469 1.8228407.43903 3.5035469.86692 3.5035469.86692.00483 3.70333-.021522 10.72968-.021522 10.72968-3.667101-3.78187-6.216149-7.28173-8.511598-12.72129zm-82.769636 5.45408c4.372887 1.78562 6.759128 2.87132 10.071738 4.49962-1.503509 1.13442-5.099438 3.7001-5.099438 3.7001-3.963468.0126-11.963502.004-11.963502.004 3.11782-3.54492 5.138225-5.73267 6.991267-8.20437 0 0-.000065.00018-.000065.00018zm73.178557-5.67403c-.682176 2.9518-1.674028 6.15597-3.163197 9.17594-1.366858 2.77193-2.836753 4.62711-2.836753 4.62711-3.535335.0104-10.675547.004-10.675547.004 1.807658-1.46471 4.75098-4.79934 4.75098-4.79934 5.0499-2.29459 8.839712-5.22132 11.924551-9.00801 0 0-.000034.00028-.000034.00028zm-92.764479 5.33585c-.26698 1.39103-.62922 3.02645-1.1153 5.02973-.44227 1.82274-.87542 3.50355-.87542 3.50355-3.68301.004-10.73073-.0215-10.73073-.0215 3.7822-3.66755 7.28184-6.21658 12.72145-8.51173v-.00004zm101.634488-4.04569c1.194094 2.88221 2.650802 5.64871 4.727137 8.38741 1.8598847 2.45321 3.6208397 4.1574 3.6208397 4.1574-3.4754147.00017-10.1289277-.0219-10.1289277-.0219.823369-3.63072 1.394599-7.89271 1.780949-12.52287 0 0 .000002-.00005.000002-.00005zm-22.36284 8.39282c-1.287067 1.47863-4.375362 4.12533-4.375362 4.12533-3.55223.0136-10.8454.0122-10.8454.0122.06291-.0321.209785-.12757.209785-.12757 5.209908-.86895 10.442054-2.1437 15.011143-4.01036 0 0-.000166.00036-.000166.00036zm-48.729581.92503c2.480671 1.22425 4.737495 2.34091 7.333925 3.13221-.07782.0495-.213278.11964-.213278.11964-3.860918.0148-11.780867.0125-11.780867.0125 1.706041-1.17684 3.21038-2.2204 4.660424-3.26464 0 0-.000204.0003-.000204.0003z" fill="#fff" transform="translate(132.07957 9.524996)"/>
</svg>
